<?xml version="1.0" encoding="UTF-8"?>
<svg xmlns="http://www.w3.org/2000/svg" xmlns:xlink="http://www.w3.org/1999/xlink" width="224.87999pt" height="225pt" viewBox="0 0 224.87999 225" version="1.2">
<defs>
<clipPath id="clip1">
  <path d="M 0 0.0585938 L 224.761719 0.0585938 L 224.761719 224.9375 L 0 224.9375 Z M 0 0.0585938 "/>
</clipPath>
<clipPath id="clip2">
  <path d="M 37 138 L 188 138 L 188 224.71875 L 37 224.71875 Z M 37 138 "/>
</clipPath>
<clipPath id="clip3">
  <path d="M 208 115 L 215.023438 115 L 215.023438 123 L 208 123 Z M 208 115 "/>
</clipPath>
<clipPath id="clip4">
  <path d="M 191 19.328125 L 199 19.328125 L 199 26 L 191 26 Z M 191 19.328125 "/>
</clipPath>
<clipPath id="clip5">
  <path d="M 9.636719 128 L 17 128 L 17 136 L 9.636719 136 Z M 9.636719 128 "/>
</clipPath>
<clipPath id="clip6">
  <path d="M 16 19.328125 L 23 19.328125 L 23 26 L 16 26 Z M 16 19.328125 "/>
</clipPath>
<clipPath id="clip7">
  <path d="M 9.636719 25 L 17 25 L 17 33 L 9.636719 33 Z M 9.636719 25 "/>
</clipPath>
</defs>
<g id="surface1">
<g clip-path="url(#clip1)" clip-rule="nonzero">
<path style=" stroke:none;fill-rule:nonzero;fill:rgb(100%,100%,100%);fill-opacity:1;" d="M 0 0.0585938 L 224.878906 0.0585938 L 224.878906 232.4375 L 0 232.4375 Z M 0 0.0585938 "/>
<path style=" stroke:none;fill-rule:nonzero;fill:rgb(100%,100%,100%);fill-opacity:1;" d="M 0 0.0585938 L 224.878906 0.0585938 L 224.878906 224.941406 L 0 224.941406 Z M 0 0.0585938 "/>
<path style=" stroke:none;fill-rule:nonzero;fill:rgb(100%,100%,100%);fill-opacity:1;" d="M 0 0.0585938 L 224.878906 0.0585938 L 224.878906 224.941406 L 0 224.941406 Z M 0 0.0585938 "/>
</g>
<path style=" stroke:none;fill-rule:nonzero;fill:rgb(82.749939%,62.748718%,42.349243%);fill-opacity:1;" d="M 122.269531 161.777344 L 171.960938 161.777344 L 171.960938 221.40625 L 112.328125 221.40625 L 112.328125 141.902344 L 122.269531 161.777344 "/>
<path style=" stroke:none;fill-rule:nonzero;fill:rgb(82.749939%,62.748718%,42.349243%);fill-opacity:1;" d="M 112.328125 221.40625 L 52.699219 221.40625 L 52.699219 161.777344 L 102.390625 161.777344 L 112.328125 141.902344 L 112.328125 221.40625 "/>
<path style=" stroke:none;fill-rule:nonzero;fill:rgb(87.449646%,69.799805%,54.508972%);fill-opacity:1;" d="M 171.960938 141.902344 L 181.898438 161.777344 L 122.269531 161.777344 L 112.328125 141.902344 L 171.960938 141.902344 "/>
<path style=" stroke:none;fill-rule:nonzero;fill:rgb(87.449646%,69.799805%,54.508972%);fill-opacity:1;" d="M 112.328125 141.902344 L 102.390625 161.777344 L 42.761719 161.777344 L 52.699219 141.902344 L 112.328125 141.902344 "/>
<path style=" stroke:none;fill-rule:nonzero;fill:rgb(66.668701%,78.42865%,95.689392%);fill-opacity:1;" d="M 165.335938 82.273438 L 171.960938 95.523438 C 165.371094 99.9375 159.496094 105.292969 154.566406 111.492188 L 148.769531 118.710938 L 150.027344 108.644531 C 150.699219 103.402344 152.40625 98.371094 154.996094 93.90625 C 157.582031 89.429688 161.089844 85.457031 165.335938 82.273438 "/>
<path style=" stroke:none;fill-rule:nonzero;fill:rgb(66.668701%,78.42865%,95.689392%);fill-opacity:1;" d="M 74.632812 108.644531 L 75.890625 118.710938 L 70.09375 111.492188 C 65.164062 105.292969 59.289062 99.9375 52.699219 95.523438 L 59.324219 82.273438 C 63.570312 85.457031 67.078125 89.429688 69.664062 93.90625 C 72.253906 98.371094 73.960938 103.402344 74.632812 108.644531 "/>
<path style=" stroke:none;fill-rule:nonzero;fill:rgb(43.528748%,60.778809%,85.488892%);fill-opacity:1;" d="M 198.460938 73.292969 L 195.148438 78.960938 L 194.644531 85.585938 L 188.523438 84.03125 L 182.402344 85.585938 L 181.898438 78.960938 L 178.585938 73.292969 L 184.421875 70.78125 L 188.523438 65.707031 L 192.625 70.78125 L 198.460938 73.292969 "/>
<path style=" stroke:none;fill-rule:nonzero;fill:rgb(43.528748%,60.778809%,85.488892%);fill-opacity:1;" d="M 132.207031 44.445312 L 125.582031 55.769531 L 124.625 69.019531 L 112.328125 65.902344 L 100.035156 69.019531 L 99.078125 55.769531 L 92.453125 44.445312 L 104.152344 39.398438 L 112.328125 29.269531 L 120.507812 39.398438 L 132.207031 44.445312 "/>
<path style=" stroke:none;fill-rule:nonzero;fill:rgb(43.528748%,60.778809%,85.488892%);fill-opacity:1;" d="M 46.074219 73.292969 L 42.761719 78.960938 L 42.269531 85.585938 L 36.136719 84.03125 L 30.003906 85.585938 L 29.511719 78.960938 L 26.199219 73.292969 L 32.035156 70.78125 L 36.136719 65.707031 L 40.238281 70.78125 L 46.074219 73.292969 "/>
<g clip-path="url(#clip2)" clip-rule="nonzero">
<path style=" stroke:none;fill-rule:nonzero;fill:rgb(0%,0%,0%);fill-opacity:1;" d="M 168.648438 218.09375 L 115.644531 218.09375 L 115.644531 194.90625 L 109.015625 194.90625 L 109.015625 218.09375 L 56.011719 218.09375 L 56.011719 165.089844 L 104.4375 165.089844 L 109.015625 155.929688 L 109.015625 184.96875 L 115.644531 184.96875 L 115.644531 155.929688 L 120.222656 165.089844 L 168.648438 165.089844 Z M 54.746094 145.214844 L 106.972656 145.214844 L 100.347656 158.464844 L 48.121094 158.464844 Z M 169.914062 145.214844 L 176.539062 158.464844 L 124.3125 158.464844 L 117.6875 145.214844 Z M 174.003906 138.589844 L 50.65625 138.589844 L 37.40625 165.089844 L 49.386719 165.089844 L 49.386719 224.71875 L 175.273438 224.71875 L 175.273438 165.089844 L 187.253906 165.089844 L 174.003906 138.589844 "/>
</g>
<path style=" stroke:none;fill-rule:nonzero;fill:rgb(0%,0%,0%);fill-opacity:1;" d="M 62.640625 198.21875 L 82.515625 198.21875 L 82.515625 191.59375 L 62.640625 191.59375 L 62.640625 198.21875 "/>
<path style=" stroke:none;fill-rule:nonzero;fill:rgb(0%,0%,0%);fill-opacity:1;" d="M 62.640625 211.46875 L 82.515625 211.46875 L 82.515625 204.84375 L 62.640625 204.84375 L 62.640625 211.46875 "/>
<path style=" stroke:none;fill-rule:nonzero;fill:rgb(0%,0%,0%);fill-opacity:1;" d="M 89.140625 211.46875 L 95.765625 211.46875 L 95.765625 204.84375 L 89.140625 204.84375 L 89.140625 211.46875 "/>
<path style=" stroke:none;fill-rule:nonzero;fill:rgb(0%,0%,0%);fill-opacity:1;" d="M 106.210938 42.105469 L 112.328125 34.535156 L 118.449219 42.105469 L 127.457031 46 L 122.332031 54.761719 L 121.59375 64.828125 L 112.328125 62.472656 L 103.066406 64.828125 L 102.328125 54.761719 L 97.203125 46 Z M 97.035156 73.214844 L 112.328125 69.304688 L 127.625 73.214844 L 128.828125 56.78125 L 136.957031 42.894531 L 122.578125 36.671875 L 112.328125 24 L 102.082031 36.671875 L 87.703125 42.894531 L 95.832031 56.78125 L 97.035156 73.214844 "/>
<path style=" stroke:none;fill-rule:nonzero;fill:rgb(0%,0%,0%);fill-opacity:1;" d="M 39.515625 77.949219 L 39.269531 81.390625 L 36.136719 80.601562 L 33.003906 81.390625 L 32.757812 77.949219 L 30.949219 74.855469 L 34.105469 73.484375 L 36.136719 70.976562 L 38.167969 73.484375 L 41.324219 74.855469 Z M 46.011719 79.96875 L 50.824219 71.75 L 42.296875 68.050781 L 36.136719 60.441406 L 29.976562 68.050781 L 21.449219 71.75 L 26.261719 79.96875 L 26.976562 89.777344 L 36.136719 87.433594 L 45.296875 89.777344 L 46.011719 79.96875 "/>
<path style=" stroke:none;fill-rule:nonzero;fill:rgb(0%,0%,0%);fill-opacity:1;" d="M 191.902344 77.949219 L 191.65625 81.390625 L 188.523438 80.601562 L 185.390625 81.390625 L 185.144531 77.949219 L 183.335938 74.855469 L 186.492188 73.484375 L 188.523438 70.976562 L 190.554688 73.484375 L 193.710938 74.855469 Z M 198.398438 79.96875 L 203.210938 71.75 L 194.683594 68.050781 L 188.523438 60.441406 L 182.363281 68.050781 L 173.835938 71.75 L 178.648438 79.96875 L 179.363281 89.777344 L 188.523438 87.433594 L 197.683594 89.777344 L 198.398438 79.96875 "/>
<path style=" stroke:none;fill-rule:nonzero;fill:rgb(0%,0%,0%);fill-opacity:1;" d="M 60.414062 87.511719 C 66.015625 92.804688 69.808594 99.871094 71.113281 107.503906 C 66.933594 102.589844 62.1875 98.203125 56.945312 94.4375 Z M 50.863281 98.277344 C 57.164062 102.484375 62.769531 107.621094 67.503906 113.550781 L 80.625 129.945312 L 77.921875 108.230469 C 76.496094 96.894531 70.441406 86.476562 61.304688 79.621094 L 58.136719 77.238281 L 48.429688 96.660156 L 50.863281 98.277344 "/>
<path style=" stroke:none;fill-rule:nonzero;fill:rgb(0%,0%,0%);fill-opacity:1;" d="M 167.714844 94.4375 C 162.472656 98.203125 157.726562 102.589844 153.546875 107.503906 C 154.851562 99.871094 158.644531 92.804688 164.246094 87.511719 Z M 146.738281 108.230469 L 144.035156 129.945312 L 157.15625 113.550781 C 161.890625 107.621094 167.496094 102.484375 173.796875 98.277344 L 176.230469 96.660156 L 166.523438 77.238281 L 163.355469 79.621094 C 154.21875 86.476562 148.160156 96.894531 146.738281 108.230469 "/>
<path style=" stroke:none;fill-rule:nonzero;fill:rgb(0%,0%,0%);fill-opacity:1;" d="M 125.582031 131.964844 L 132.207031 131.964844 L 132.207031 118.078125 C 132.207031 102.175781 137.824219 86.683594 148.007812 74.457031 L 142.910156 70.210938 C 131.742188 83.628906 125.582031 100.621094 125.582031 118.078125 L 125.582031 131.964844 "/>
<path style=" stroke:none;fill-rule:nonzero;fill:rgb(0%,0%,0%);fill-opacity:1;" d="M 155.394531 59.082031 L 148.769531 59.082031 L 148.769531 65.707031 L 155.394531 65.707031 L 155.394531 59.082031 "/>
<path style=" stroke:none;fill-rule:nonzero;fill:rgb(0%,0%,0%);fill-opacity:1;" d="M 165.335938 45.832031 L 158.707031 45.832031 L 158.707031 52.457031 L 165.335938 52.457031 L 165.335938 45.832031 "/>
<path style=" stroke:none;fill-rule:nonzero;fill:rgb(0%,0%,0%);fill-opacity:1;" d="M 92.453125 131.964844 L 99.078125 131.964844 L 99.078125 118.078125 C 99.078125 100.621094 92.917969 83.628906 81.75 70.210938 L 76.652344 74.457031 C 86.835938 86.683594 92.453125 102.175781 92.453125 118.078125 L 92.453125 131.964844 "/>
<path style=" stroke:none;fill-rule:nonzero;fill:rgb(0%,0%,0%);fill-opacity:1;" d="M 75.890625 59.082031 L 69.265625 59.082031 L 69.265625 65.707031 L 75.890625 65.707031 L 75.890625 59.082031 "/>
<path style=" stroke:none;fill-rule:nonzero;fill:rgb(0%,0%,0%);fill-opacity:1;" d="M 65.953125 45.832031 L 59.324219 45.832031 L 59.324219 52.457031 L 65.953125 52.457031 L 65.953125 45.832031 "/>
<path style=" stroke:none;fill-rule:nonzero;fill:rgb(0%,0%,0%);fill-opacity:1;" d="M 115.644531 75.644531 L 109.015625 75.644531 L 109.015625 82.273438 L 115.644531 82.273438 L 115.644531 75.644531 "/>
<path style=" stroke:none;fill-rule:nonzero;fill:rgb(0%,0%,0%);fill-opacity:1;" d="M 109.015625 131.964844 L 115.644531 131.964844 L 115.644531 88.898438 L 109.015625 88.898438 L 109.015625 131.964844 "/>
<path style=" stroke:none;fill-rule:nonzero;fill:rgb(0%,0%,0%);fill-opacity:1;" d="M 208.398438 108.773438 L 201.773438 108.773438 L 201.773438 115.398438 L 208.398438 115.398438 L 208.398438 108.773438 "/>
<path style=" stroke:none;fill-rule:nonzero;fill:rgb(0%,0%,0%);fill-opacity:1;" d="M 201.773438 128.652344 L 208.398438 128.652344 L 208.398438 122.023438 L 201.773438 122.023438 L 201.773438 128.652344 "/>
<g clip-path="url(#clip3)" clip-rule="nonzero">
<path style=" stroke:none;fill-rule:nonzero;fill:rgb(0%,0%,0%);fill-opacity:1;" d="M 208.398438 115.398438 L 208.398438 122.023438 L 215.023438 122.023438 L 215.023438 115.398438 L 208.398438 115.398438 "/>
</g>
<path style=" stroke:none;fill-rule:nonzero;fill:rgb(0%,0%,0%);fill-opacity:1;" d="M 195.148438 115.398438 L 195.148438 122.023438 L 201.773438 122.023438 L 201.773438 115.398438 L 195.148438 115.398438 "/>
<g clip-path="url(#clip4)" clip-rule="nonzero">
<path style=" stroke:none;fill-rule:nonzero;fill:rgb(0%,0%,0%);fill-opacity:1;" d="M 198.460938 19.328125 L 191.835938 19.328125 L 191.835938 25.957031 L 198.460938 25.957031 L 198.460938 19.328125 "/>
</g>
<path style=" stroke:none;fill-rule:nonzero;fill:rgb(0%,0%,0%);fill-opacity:1;" d="M 191.835938 39.207031 L 198.460938 39.207031 L 198.460938 32.582031 L 191.835938 32.582031 L 191.835938 39.207031 "/>
<path style=" stroke:none;fill-rule:nonzero;fill:rgb(0%,0%,0%);fill-opacity:1;" d="M 205.085938 32.582031 L 205.085938 25.957031 L 198.460938 25.957031 L 198.460938 32.582031 L 205.085938 32.582031 "/>
<path style=" stroke:none;fill-rule:nonzero;fill:rgb(0%,0%,0%);fill-opacity:1;" d="M 191.835938 25.957031 L 185.210938 25.957031 L 185.210938 32.582031 L 191.835938 32.582031 L 191.835938 25.957031 "/>
<path style=" stroke:none;fill-rule:nonzero;fill:rgb(0%,0%,0%);fill-opacity:1;" d="M 22.886719 122.023438 L 16.261719 122.023438 L 16.261719 128.652344 L 22.886719 128.652344 L 22.886719 122.023438 "/>
<path style=" stroke:none;fill-rule:nonzero;fill:rgb(0%,0%,0%);fill-opacity:1;" d="M 16.261719 141.902344 L 22.886719 141.902344 L 22.886719 135.277344 L 16.261719 135.277344 L 16.261719 141.902344 "/>
<path style=" stroke:none;fill-rule:nonzero;fill:rgb(0%,0%,0%);fill-opacity:1;" d="M 22.886719 135.277344 L 29.511719 135.277344 L 29.511719 128.652344 L 22.886719 128.652344 L 22.886719 135.277344 "/>
<g clip-path="url(#clip5)" clip-rule="nonzero">
<path style=" stroke:none;fill-rule:nonzero;fill:rgb(0%,0%,0%);fill-opacity:1;" d="M 9.636719 128.652344 L 9.636719 135.277344 L 16.261719 135.277344 L 16.261719 128.652344 L 9.636719 128.652344 "/>
</g>
<g clip-path="url(#clip6)" clip-rule="nonzero">
<path style=" stroke:none;fill-rule:nonzero;fill:rgb(0%,0%,0%);fill-opacity:1;" d="M 22.886719 19.328125 L 16.261719 19.328125 L 16.261719 25.957031 L 22.886719 25.957031 L 22.886719 19.328125 "/>
</g>
<path style=" stroke:none;fill-rule:nonzero;fill:rgb(0%,0%,0%);fill-opacity:1;" d="M 16.261719 39.207031 L 22.886719 39.207031 L 22.886719 32.582031 L 16.261719 32.582031 L 16.261719 39.207031 "/>
<path style=" stroke:none;fill-rule:nonzero;fill:rgb(0%,0%,0%);fill-opacity:1;" d="M 29.511719 32.582031 L 29.511719 25.957031 L 22.886719 25.957031 L 22.886719 32.582031 L 29.511719 32.582031 "/>
<g clip-path="url(#clip7)" clip-rule="nonzero">
<path style=" stroke:none;fill-rule:nonzero;fill:rgb(0%,0%,0%);fill-opacity:1;" d="M 16.261719 25.957031 L 9.636719 25.957031 L 9.636719 32.582031 L 16.261719 32.582031 L 16.261719 25.957031 "/>
</g>
</g>
</svg>
