<?xml version="1.0" encoding="UTF-8"?>
<svg xmlns="http://www.w3.org/2000/svg" xmlns:xlink="http://www.w3.org/1999/xlink" width="224.87999pt" height="225pt" viewBox="0 0 224.87999 225" version="1.2">
<defs>
<clipPath id="clip1">
  <path d="M 0 0.0585938 L 224.761719 0.0585938 L 224.761719 224.9375 L 0 224.9375 Z M 0 0.0585938 "/>
</clipPath>
<clipPath id="clip2">
  <path d="M 0.0351562 170.375 L 224.761719 170.375 L 224.761719 224.9375 L 0.0351562 224.9375 Z M 0.0351562 170.375 "/>
</clipPath>
<clipPath id="clip3">
  <path d="M 93 18.050781 L 139 18.050781 L 139 64 L 93 64 Z M 93 18.050781 "/>
</clipPath>
</defs>
<g id="surface1">
<g clip-path="url(#clip1)" clip-rule="nonzero">
<path style=" stroke:none;fill-rule:nonzero;fill:rgb(100%,100%,100%);fill-opacity:1;" d="M 0 0.0585938 L 224.878906 0.0585938 L 224.878906 232.4375 L 0 232.4375 Z M 0 0.0585938 "/>
<path style=" stroke:none;fill-rule:nonzero;fill:rgb(100%,100%,100%);fill-opacity:1;" d="M 0 0.0585938 L 224.878906 0.0585938 L 224.878906 224.941406 L 0 224.941406 Z M 0 0.0585938 "/>
<path style=" stroke:none;fill-rule:nonzero;fill:rgb(100%,100%,100%);fill-opacity:1;" d="M 0 0.0585938 L 224.878906 0.0585938 L 224.878906 224.941406 L 0 224.941406 Z M 0 0.0585938 "/>
</g>
<g clip-path="url(#clip2)" clip-rule="nonzero">
<path style=" stroke:none;fill-rule:nonzero;fill:rgb(62.348938%,76.858521%,91.758728%);fill-opacity:1;" d="M 224.847656 224.941406 L 0.0351562 224.941406 L 0.0351562 170.566406 L 224.847656 170.566406 L 224.847656 224.941406 M 115.195312 186.589844 C 64.066406 186.589844 22.621094 189.328125 22.621094 192.703125 C 22.621094 196.082031 64.066406 198.820312 115.195312 198.820312 C 166.324219 198.820312 207.769531 196.082031 207.769531 192.703125 C 207.769531 189.328125 166.324219 186.589844 115.195312 186.589844 "/>
</g>
<path style=" stroke:none;fill-rule:nonzero;fill:rgb(45.878601%,56.079102%,67.449951%);fill-opacity:1;" d="M 115.195312 198.820312 C 64.066406 198.820312 22.621094 196.082031 22.621094 192.703125 C 22.621094 189.328125 64.066406 186.589844 115.195312 186.589844 C 166.324219 186.589844 207.769531 189.328125 207.769531 192.703125 C 207.769531 196.082031 166.324219 198.820312 115.195312 198.820312 "/>
<path style=" stroke:none;fill-rule:nonzero;fill:rgb(36.859131%,14.509583%,56.469727%);fill-opacity:1;" d="M 204.582031 114.449219 C 203.738281 116.34375 202.699219 118.132812 201.492188 119.789062 L 202.539062 120.550781 C 203.796875 118.820312 204.878906 116.953125 205.761719 114.976562 Z M 197.363281 124.375 C 195.839844 125.75 194.171875 126.972656 192.382812 128.003906 L 193.03125 129.125 C 194.898438 128.042969 196.640625 126.769531 198.234375 125.335938 L 197.367188 124.375 Z M 186.75 130.519531 C 184.816406 131.152344 182.800781 131.585938 180.714844 131.804688 L 180.851562 133.089844 C 183.027344 132.863281 185.132812 132.410156 187.148438 131.753906 Z M 174.546875 131.808594 C 172.464844 131.59375 170.445312 131.164062 168.511719 130.539062 L 168.113281 131.769531 C 170.132812 132.421875 172.242188 132.875 174.414062 133.097656 Z M 162.875 128.035156 C 161.082031 127 159.410156 125.785156 157.882812 124.410156 L 157.015625 125.375 C 158.613281 126.808594 160.359375 128.078125 162.230469 129.15625 Z M 153.746094 119.835938 C 152.535156 118.179688 151.496094 116.394531 150.648438 114.503906 L 149.46875 115.03125 C 150.351562 117.003906 151.4375 118.871094 152.699219 120.597656 Z M 148.734375 108.640625 C 148.3125 106.664062 148.085938 104.613281 148.085938 102.507812 L 146.789062 102.507812 C 146.792969 104.703125 147.027344 106.847656 147.46875 108.910156 Z M 148.707031 96.371094 C 149.136719 94.328125 149.773438 92.363281 150.601562 90.5 L 149.417969 89.976562 C 148.554688 91.921875 147.886719 93.972656 147.441406 96.105469 Z M 153.675781 85.152344 C 154.886719 83.480469 156.265625 81.941406 157.796875 80.558594 L 156.925781 79.601562 C 155.332031 81.042969 153.890625 82.648438 152.628906 84.394531 Z M 162.773438 76.917969 C 164.539062 75.886719 166.421875 75.039062 168.398438 74.390625 L 167.996094 73.160156 C 165.933594 73.835938 163.964844 74.722656 162.121094 75.796875 Z M 174.425781 73.097656 C 175.46875 72.984375 176.53125 72.925781 177.605469 72.925781 C 178.613281 72.925781 179.613281 72.976562 180.597656 73.074219 L 180.726562 71.789062 C 179.699219 71.6875 178.65625 71.632812 177.605469 71.632812 C 176.484375 71.632812 175.378906 71.691406 174.289062 71.808594 Z M 186.636719 74.332031 C 188.617188 74.96875 190.503906 75.808594 192.277344 76.828125 L 192.921875 75.707031 C 191.070312 74.640625 189.097656 73.765625 187.03125 73.101562 Z M 197.277344 80.4375 C 198.8125 81.8125 200.203125 83.34375 201.421875 85.007812 L 202.464844 84.242188 C 201.195312 82.507812 199.742188 80.90625 198.140625 79.472656 Z M 204.53125 90.332031 C 205.367188 92.191406 206.019531 94.152344 206.457031 96.191406 L 207.726562 95.921875 C 207.265625 93.792969 206.585938 91.742188 205.710938 89.804688 Z M 207.121094 102.324219 L 207.121094 102.445312 C 207.121094 104.550781 206.902344 106.601562 206.484375 108.582031 L 207.75 108.851562 C 208.1875 106.78125 208.417969 104.640625 208.417969 102.445312 L 208.417969 102.320312 L 207.121094 102.324219 "/>
<path style=" stroke:none;fill-rule:nonzero;fill:rgb(36.859131%,14.509583%,56.469727%);fill-opacity:1;" d="M 94.996094 118.59375 C 94.15625 120.488281 93.117188 122.277344 91.910156 123.933594 L 92.957031 124.695312 C 94.214844 122.964844 95.296875 121.097656 96.179688 119.121094 Z M 87.78125 128.519531 C 86.257812 129.898438 84.585938 131.117188 82.796875 132.152344 L 83.445312 133.273438 C 85.3125 132.191406 87.058594 130.917969 88.648438 129.480469 Z M 77.167969 134.667969 C 75.234375 135.296875 73.214844 135.730469 71.132812 135.949219 L 71.269531 137.238281 C 73.441406 137.007812 75.550781 136.554688 77.566406 135.898438 Z M 64.964844 135.957031 C 62.882812 135.742188 60.863281 135.3125 58.929688 134.6875 L 58.53125 135.917969 C 60.550781 136.570312 62.65625 137.019531 64.832031 137.242188 Z M 53.292969 132.179688 C 51.5 131.148438 49.828125 129.933594 48.296875 128.558594 L 47.433594 129.519531 C 49.027344 130.953125 50.773438 132.226562 52.644531 133.304688 Z M 44.164062 123.980469 C 42.953125 122.324219 41.914062 120.539062 41.066406 118.648438 L 39.886719 119.179688 C 40.769531 121.152344 41.855469 123.019531 43.117188 124.746094 Z M 39.152344 112.785156 C 38.730469 110.808594 38.503906 108.757812 38.5 106.652344 L 37.207031 106.65625 C 37.210938 108.851562 37.445312 110.992188 37.882812 113.058594 Z M 39.125 100.515625 C 39.554688 98.476562 40.191406 96.507812 41.019531 94.644531 L 39.835938 94.121094 C 38.972656 96.066406 38.304688 98.121094 37.859375 100.25 Z M 44.09375 89.300781 C 45.304688 87.625 46.683594 86.085938 48.210938 84.707031 L 47.339844 83.746094 C 45.75 85.1875 44.308594 86.796875 43.046875 88.539062 Z M 53.1875 81.0625 C 54.957031 80.035156 56.839844 79.183594 58.816406 78.535156 L 58.410156 77.304688 C 56.347656 77.984375 54.382812 78.871094 52.539062 79.945312 Z M 64.84375 77.242188 C 65.886719 77.128906 66.949219 77.074219 68.019531 77.074219 C 69.03125 77.074219 70.03125 77.125 71.015625 77.222656 L 71.140625 75.9375 C 70.117188 75.832031 69.074219 75.78125 68.019531 75.78125 C 66.898438 75.78125 65.796875 75.839844 64.707031 75.957031 Z M 77.054688 78.480469 C 79.03125 79.113281 80.921875 79.957031 82.695312 80.972656 L 83.339844 79.851562 C 81.488281 78.789062 79.515625 77.910156 77.449219 77.25 Z M 87.695312 84.585938 C 89.230469 85.960938 90.621094 87.488281 91.839844 89.15625 L 92.882812 88.386719 C 91.609375 86.652344 90.160156 85.054688 88.558594 83.621094 Z M 94.949219 94.480469 C 95.785156 96.339844 96.4375 98.300781 96.875 100.339844 L 98.140625 100.066406 C 97.683594 97.9375 97.003906 95.890625 96.128906 93.949219 Z M 97.539062 106.46875 L 97.539062 106.59375 C 97.539062 108.695312 97.320312 110.75 96.902344 112.726562 L 98.167969 112.996094 C 98.601562 110.929688 98.832031 108.789062 98.832031 106.59375 L 98.832031 106.464844 L 97.539062 106.46875 "/>
<path style=" stroke:none;fill-rule:nonzero;fill:rgb(36.859131%,14.509583%,56.469727%);fill-opacity:1;" d="M 146.144531 95.964844 C 145.117188 98.265625 143.855469 100.441406 142.390625 102.453125 L 143.664062 103.378906 C 145.191406 101.277344 146.507812 99.007812 147.578125 96.605469 Z M 137.378906 108.023438 C 135.523438 109.695312 133.496094 111.175781 131.320312 112.433594 L 132.105469 113.792969 C 134.375 112.476562 136.492188 110.933594 138.429688 109.191406 Z M 124.476562 115.484375 C 122.132812 116.25 119.683594 116.777344 117.148438 117.039062 L 117.3125 118.605469 C 119.953125 118.328125 122.515625 117.777344 124.964844 116.980469 Z M 109.65625 117.042969 C 107.125 116.78125 104.671875 116.257812 102.324219 115.496094 L 101.839844 116.992188 C 104.292969 117.785156 106.851562 118.332031 109.496094 118.609375 Z M 95.480469 112.453125 C 93.304688 111.195312 91.273438 109.714844 89.417969 108.046875 L 88.367188 109.214844 C 90.300781 110.957031 92.421875 112.5 94.695312 113.8125 Z M 84.398438 102.480469 C 82.929688 100.46875 81.667969 98.300781 80.640625 96 L 79.207031 96.644531 C 80.277344 99.042969 81.59375 101.308594 83.128906 103.410156 L 84.394531 102.480469 Z M 78.320312 88.878906 C 77.808594 86.476562 77.539062 83.984375 77.535156 81.429688 L 75.964844 81.429688 C 75.96875 84.09375 76.25 86.695312 76.78125 89.207031 Z M 78.304688 73.972656 C 78.824219 71.492188 79.601562 69.109375 80.609375 66.84375 L 79.171875 66.207031 C 78.121094 68.570312 77.308594 71.058594 76.765625 73.648438 Z M 84.351562 60.355469 C 85.824219 58.324219 87.503906 56.457031 89.359375 54.78125 L 88.308594 53.613281 C 86.371094 55.363281 84.617188 57.3125 83.082031 59.429688 Z M 95.414062 50.363281 C 97.5625 49.117188 99.851562 48.085938 102.25 47.304688 L 101.761719 45.808594 C 99.257812 46.625 96.867188 47.703125 94.625 49.003906 Z M 109.578125 45.738281 C 110.828125 45.605469 112.097656 45.539062 113.382812 45.539062 C 114.628906 45.539062 115.859375 45.601562 117.070312 45.726562 L 117.230469 44.164062 C 115.964844 44.035156 114.683594 43.96875 113.382812 43.96875 C 112.042969 43.96875 110.71875 44.039062 109.414062 44.175781 Z M 124.40625 47.265625 C 126.808594 48.039062 129.101562 49.066406 131.253906 50.304688 L 132.039062 48.941406 C 129.792969 47.648438 127.398438 46.578125 124.886719 45.769531 Z M 137.320312 54.703125 C 139.183594 56.375 140.867188 58.238281 142.347656 60.261719 L 143.617188 59.332031 C 142.070312 57.21875 140.316406 55.277344 138.371094 53.535156 Z M 146.113281 66.738281 C 147.125 68.996094 147.910156 71.378906 148.441406 73.855469 L 149.976562 73.527344 C 149.425781 70.941406 148.601562 68.453125 147.546875 66.09375 Z M 149.234375 81.308594 L 149.234375 81.386719 C 149.234375 83.945312 148.964844 86.4375 148.457031 88.839844 L 149.996094 89.164062 C 150.527344 86.65625 150.804688 84.054688 150.804688 81.386719 L 150.800781 81.304688 L 149.234375 81.308594 "/>
<path style=" stroke:none;fill-rule:nonzero;fill:rgb(61.959839%,81.568909%,83.139038%);fill-opacity:1;" d="M 173.457031 172.984375 C 173.457031 175.875 171.113281 178.21875 168.222656 178.21875 L 60.019531 178.21875 C 57.128906 178.21875 54.78125 175.875 54.78125 172.984375 L 54.78125 108.109375 C 54.78125 105.21875 57.128906 102.871094 60.019531 102.871094 L 168.222656 102.871094 C 171.113281 102.871094 173.457031 105.21875 173.457031 108.109375 L 173.457031 172.984375 "/>
<path style=" stroke:none;fill-rule:nonzero;fill:rgb(36.859131%,14.509583%,56.469727%);fill-opacity:1;" d="M 173.457031 172.984375 L 172.082031 172.984375 C 172.082031 174.054688 171.652344 175.011719 170.953125 175.714844 C 170.25 176.414062 169.296875 176.84375 168.222656 176.84375 L 60.019531 176.84375 C 58.949219 176.84375 57.992188 176.414062 57.289062 175.714844 C 56.589844 175.011719 56.160156 174.054688 56.160156 172.984375 L 56.160156 108.109375 C 56.160156 107.039062 56.589844 106.082031 57.289062 105.378906 C 57.992188 104.679688 58.949219 104.25 60.019531 104.25 L 168.222656 104.25 C 169.292969 104.25 170.25 104.679688 170.953125 105.378906 C 171.652344 106.082031 172.082031 107.039062 172.082031 108.109375 L 172.082031 172.984375 L 174.835938 172.984375 L 174.835938 108.109375 C 174.835938 106.289062 174.09375 104.625 172.898438 103.433594 C 171.707031 102.242188 170.042969 101.496094 168.222656 101.496094 L 60.019531 101.496094 C 58.195312 101.496094 56.535156 102.242188 55.34375 103.433594 C 54.148438 104.625 53.40625 106.289062 53.40625 108.109375 L 53.40625 172.984375 C 53.40625 174.808594 54.148438 176.46875 55.34375 177.660156 C 56.535156 178.855469 58.195312 179.597656 60.019531 179.59375 L 168.222656 179.59375 C 170.042969 179.597656 171.707031 178.855469 172.898438 177.660156 C 174.09375 176.46875 174.835938 174.808594 174.835938 172.984375 L 173.457031 172.984375 "/>
<path style=" stroke:none;fill-rule:nonzero;fill:rgb(100%,100%,100%);fill-opacity:1;" d="M 168.9375 169.496094 L 59.304688 169.496094 L 59.304688 111.597656 L 168.9375 111.597656 L 168.9375 169.496094 "/>
<path style=" stroke:none;fill-rule:nonzero;fill:rgb(36.859131%,14.509583%,56.469727%);fill-opacity:1;" d="M 168.9375 169.496094 L 168.9375 168.121094 L 60.679688 168.121094 L 60.679688 112.972656 L 167.5625 112.972656 L 167.5625 169.496094 L 168.9375 169.496094 L 168.9375 168.121094 L 168.9375 169.496094 L 170.3125 169.496094 L 170.3125 111.597656 C 170.3125 111.234375 170.167969 110.882812 169.910156 110.625 C 169.65625 110.371094 169.300781 110.222656 168.9375 110.222656 L 59.304688 110.222656 C 58.941406 110.222656 58.585938 110.371094 58.332031 110.625 C 58.074219 110.882812 57.929688 111.234375 57.929688 111.597656 L 57.929688 169.496094 C 57.929688 169.859375 58.074219 170.214844 58.332031 170.472656 C 58.585938 170.726562 58.941406 170.875 59.304688 170.875 L 168.9375 170.875 C 169.304688 170.875 169.648438 170.730469 169.910156 170.472656 C 170.171875 170.210938 170.3125 169.867188 170.3125 169.496094 L 168.9375 169.496094 "/>
<path style=" stroke:none;fill-rule:nonzero;fill:rgb(36.859131%,14.509583%,56.469727%);fill-opacity:1;" d="M 63.839844 107.96875 L 97.230469 107.96875 C 97.992188 107.96875 98.605469 107.351562 98.605469 106.59375 C 98.605469 105.832031 97.992188 105.214844 97.230469 105.214844 L 63.839844 105.214844 C 63.082031 105.214844 62.464844 105.832031 62.464844 106.59375 C 62.464844 107.351562 63.082031 107.96875 63.839844 107.96875 "/>
<path style=" stroke:none;fill-rule:nonzero;fill:rgb(36.859131%,14.509583%,56.469727%);fill-opacity:1;" d="M 99.730469 107.96875 L 103.632812 107.96875 C 104.390625 107.96875 105.007812 107.351562 105.007812 106.59375 C 105.007812 105.832031 104.390625 105.214844 103.632812 105.214844 L 99.730469 105.214844 C 98.972656 105.214844 98.355469 105.832031 98.355469 106.59375 C 98.355469 107.351562 98.972656 107.96875 99.730469 107.96875 "/>
<path style=" stroke:none;fill-rule:nonzero;fill:rgb(36.859131%,14.509583%,56.469727%);fill-opacity:1;" d="M 115.800781 166.949219 L 151.691406 166.949219 C 152.449219 166.949219 153.066406 166.332031 153.066406 165.574219 C 153.066406 164.8125 152.449219 164.199219 151.691406 164.199219 L 115.800781 164.199219 C 115.042969 164.199219 114.425781 164.8125 114.425781 165.574219 C 114.425781 166.332031 115.042969 166.949219 115.800781 166.949219 "/>
<path style=" stroke:none;fill-rule:nonzero;fill:rgb(36.859131%,14.509583%,56.469727%);fill-opacity:1;" d="M 154.964844 166.792969 L 161.363281 166.792969 C 162.125 166.792969 162.738281 166.179688 162.738281 165.417969 C 162.738281 164.660156 162.125 164.042969 161.363281 164.042969 L 154.964844 164.042969 C 154.207031 164.042969 153.589844 164.660156 153.589844 165.417969 C 153.589844 166.179688 154.207031 166.792969 154.964844 166.792969 "/>
<path style=" stroke:none;fill-rule:nonzero;fill:rgb(61.959839%,81.568909%,83.139038%);fill-opacity:1;" d="M 45.125 176.207031 L 45.125 186.753906 C 45.125 190.042969 47.789062 192.703125 51.078125 192.703125 L 177.164062 192.703125 C 180.453125 192.703125 183.117188 190.042969 183.117188 186.753906 L 183.117188 176.207031 L 45.125 176.207031 "/>
<path style=" stroke:none;fill-rule:nonzero;fill:rgb(36.859131%,14.509583%,56.469727%);fill-opacity:1;" d="M 45.125 176.207031 L 43.746094 176.207031 L 43.746094 186.753906 C 43.746094 188.773438 44.570312 190.613281 45.894531 191.9375 C 47.21875 193.257812 49.058594 194.082031 51.078125 194.078125 L 177.164062 194.078125 C 179.183594 194.082031 181.023438 193.257812 182.347656 191.9375 C 183.667969 190.613281 184.492188 188.773438 184.492188 186.753906 L 184.492188 176.207031 C 184.492188 175.84375 184.347656 175.488281 184.089844 175.234375 C 183.835938 174.976562 183.480469 174.832031 183.117188 174.832031 L 45.125 174.832031 C 44.761719 174.832031 44.40625 174.976562 44.152344 175.234375 C 43.894531 175.488281 43.746094 175.84375 43.746094 176.207031 L 45.125 176.207031 L 45.125 177.582031 L 181.742188 177.582031 L 181.742188 186.753906 C 181.742188 188.023438 181.234375 189.15625 180.402344 189.988281 C 179.566406 190.816406 178.433594 191.328125 177.164062 191.328125 L 51.078125 191.328125 C 49.808594 191.328125 48.671875 190.816406 47.839844 189.988281 C 47.007812 189.15625 46.5 188.023438 46.5 186.753906 L 46.5 176.207031 L 45.125 176.207031 L 45.125 177.582031 L 45.125 176.207031 "/>
<path style=" stroke:none;fill-rule:nonzero;fill:rgb(100%,100%,100%);fill-opacity:1;" d="M 133.382812 182.710938 L 94.859375 182.710938 L 94.859375 176.207031 L 133.382812 176.207031 L 133.382812 182.710938 "/>
<path style=" stroke:none;fill-rule:nonzero;fill:rgb(36.859131%,14.509583%,56.469727%);fill-opacity:1;" d="M 133.382812 182.710938 L 133.382812 181.335938 L 96.234375 181.335938 L 96.234375 177.582031 L 132.007812 177.582031 L 132.007812 182.710938 L 133.382812 182.710938 L 133.382812 181.335938 L 133.382812 182.710938 L 134.757812 182.710938 L 134.757812 176.207031 C 134.757812 175.84375 134.613281 175.488281 134.355469 175.234375 C 134.101562 174.976562 133.746094 174.832031 133.382812 174.832031 L 94.859375 174.832031 C 94.496094 174.832031 94.144531 174.976562 93.886719 175.234375 C 93.632812 175.488281 93.484375 175.84375 93.484375 176.207031 L 93.484375 182.710938 C 93.484375 183.074219 93.632812 183.429688 93.886719 183.683594 C 94.144531 183.941406 94.496094 184.085938 94.859375 184.085938 L 133.382812 184.085938 C 133.75 184.085938 134.097656 183.945312 134.355469 183.683594 C 134.613281 183.425781 134.757812 183.078125 134.757812 182.710938 L 133.382812 182.710938 "/>
<path style=" stroke:none;fill-rule:nonzero;fill:rgb(100%,100%,100%);fill-opacity:1;" d="M 137.4375 40.765625 C 137.4375 52.738281 127.730469 62.441406 115.761719 62.441406 C 103.785156 62.441406 94.082031 52.738281 94.082031 40.765625 C 94.082031 28.792969 103.785156 19.085938 115.761719 19.085938 C 127.730469 19.085938 137.4375 28.792969 137.4375 40.765625 "/>
<g clip-path="url(#clip3)" clip-rule="nonzero">
<path style=" stroke:none;fill-rule:nonzero;fill:rgb(36.859131%,14.509583%,56.469727%);fill-opacity:1;" d="M 137.4375 40.765625 L 136.378906 40.765625 C 136.378906 46.460938 134.074219 51.609375 130.339844 55.34375 C 126.605469 59.078125 121.457031 61.382812 115.761719 61.382812 C 110.0625 61.382812 104.914062 59.078125 101.179688 55.34375 C 97.445312 51.609375 95.140625 46.460938 95.140625 40.765625 C 95.140625 35.066406 97.445312 29.917969 101.179688 26.183594 C 104.914062 22.449219 110.0625 20.144531 115.761719 20.144531 C 121.457031 20.144531 126.605469 22.449219 130.339844 26.183594 C 134.074219 29.917969 136.378906 35.066406 136.378906 40.765625 L 138.496094 40.765625 C 138.492188 28.207031 128.316406 18.03125 115.761719 18.027344 C 103.203125 18.03125 93.023438 28.207031 93.023438 40.765625 C 93.023438 53.320312 103.203125 63.5 115.761719 63.5 C 128.316406 63.5 138.492188 53.320312 138.496094 40.765625 L 137.4375 40.765625 "/>
</g>
<path style=" stroke:none;fill-rule:nonzero;fill:rgb(100%,100%,100%);fill-opacity:1;" d="M 74.824219 71.957031 C 74.824219 83.929688 65.117188 93.636719 53.144531 93.636719 C 41.171875 93.636719 31.46875 83.929688 31.46875 71.957031 C 31.46875 59.988281 41.171875 50.28125 53.144531 50.28125 C 65.117188 50.28125 74.824219 59.988281 74.824219 71.957031 "/>
<path style=" stroke:none;fill-rule:nonzero;fill:rgb(36.859131%,14.509583%,56.469727%);fill-opacity:1;" d="M 74.824219 71.957031 L 73.765625 71.957031 C 73.761719 77.65625 71.457031 82.804688 67.722656 86.539062 C 63.992188 90.273438 58.839844 92.578125 53.144531 92.578125 C 47.445312 92.578125 42.296875 90.273438 38.5625 86.539062 C 34.828125 82.804688 32.523438 77.65625 32.523438 71.957031 C 32.523438 66.261719 34.828125 61.113281 38.5625 57.378906 C 42.296875 53.644531 47.445312 51.339844 53.144531 51.339844 C 58.839844 51.339844 63.992188 53.644531 67.722656 57.378906 C 71.457031 61.113281 73.761719 66.261719 73.765625 71.957031 L 75.878906 71.957031 C 75.878906 59.402344 65.699219 49.226562 53.144531 49.222656 C 40.589844 49.226562 30.410156 59.402344 30.410156 71.957031 C 30.410156 84.515625 40.589844 94.695312 53.144531 94.695312 C 65.699219 94.695312 75.878906 84.515625 75.878906 71.957031 L 74.824219 71.957031 "/>
<path style=" stroke:none;fill-rule:nonzero;fill:rgb(100%,100%,100%);fill-opacity:1;" d="M 196.773438 71.957031 C 196.773438 83.929688 187.070312 93.636719 175.097656 93.636719 C 163.125 93.636719 153.417969 83.929688 153.417969 71.957031 C 153.417969 59.988281 163.125 50.28125 175.097656 50.28125 C 187.070312 50.28125 196.773438 59.988281 196.773438 71.957031 "/>
<path style=" stroke:none;fill-rule:nonzero;fill:rgb(36.859131%,14.509583%,56.469727%);fill-opacity:1;" d="M 196.773438 71.957031 L 195.71875 71.957031 C 195.71875 77.65625 193.410156 82.804688 189.679688 86.539062 C 185.945312 90.273438 180.792969 92.578125 175.097656 92.578125 C 169.402344 92.578125 164.25 90.273438 160.515625 86.539062 C 156.785156 82.804688 154.476562 77.65625 154.476562 71.957031 C 154.476562 66.261719 156.785156 61.113281 160.515625 57.378906 C 164.25 53.644531 169.402344 51.339844 175.097656 51.339844 C 180.792969 51.339844 185.945312 53.644531 189.679688 57.378906 C 193.410156 61.113281 195.71875 66.261719 195.71875 71.957031 L 197.832031 71.957031 C 197.832031 59.402344 187.652344 49.226562 175.097656 49.222656 C 162.542969 49.226562 152.363281 59.402344 152.363281 71.957031 C 152.363281 84.515625 162.542969 94.695312 175.097656 94.695312 C 187.652344 94.695312 197.832031 84.515625 197.832031 71.957031 L 196.773438 71.957031 "/>
<path style=" stroke:none;fill-rule:nonzero;fill:rgb(93.728638%,16.468811%,59.21936%);fill-opacity:1;" d="M 128.941406 149.71875 L 102.84375 149.71875 L 98.1875 128.242188 L 135.933594 128.242188 L 128.941406 149.71875 "/>
<path style=" stroke:none;fill-rule:nonzero;fill:rgb(36.859131%,14.509583%,56.469727%);fill-opacity:1;" d="M 128.941406 149.71875 L 128.941406 148.523438 L 103.8125 148.523438 L 99.671875 129.4375 L 134.285156 129.4375 L 127.804688 149.347656 L 128.941406 149.71875 L 128.941406 148.523438 L 128.941406 149.71875 L 130.082031 150.089844 L 137.070312 128.613281 C 137.191406 128.246094 137.128906 127.847656 136.902344 127.539062 C 136.675781 127.226562 136.316406 127.046875 135.933594 127.046875 L 98.1875 127.046875 C 97.824219 127.046875 97.484375 127.207031 97.253906 127.488281 C 97.027344 127.773438 96.9375 128.140625 97.015625 128.496094 L 101.675781 149.972656 C 101.796875 150.523438 102.285156 150.917969 102.84375 150.917969 L 128.941406 150.917969 C 129.460938 150.917969 129.917969 150.582031 130.082031 150.089844 L 128.941406 149.71875 "/>
<path style=" stroke:none;fill-rule:nonzero;fill:rgb(36.859131%,14.509583%,56.469727%);fill-opacity:1;" d="M 129.292969 152.332031 L 101.765625 152.332031 L 95.191406 124.1875 C 95.066406 123.644531 94.585938 123.261719 94.027344 123.261719 L 86.464844 123.261719 C 85.800781 123.261719 85.265625 123.796875 85.265625 124.460938 C 85.265625 125.121094 85.800781 125.65625 86.464844 125.65625 L 93.078125 125.65625 L 99.648438 153.800781 C 99.777344 154.34375 100.257812 154.726562 100.816406 154.726562 L 129.292969 154.726562 C 129.953125 154.726562 130.488281 154.191406 130.488281 153.527344 C 130.488281 152.867188 129.953125 152.332031 129.292969 152.332031 "/>
<path style=" stroke:none;fill-rule:nonzero;fill:rgb(65.489197%,64.709473%,65.098572%);fill-opacity:1;" d="M 110.582031 155.75 C 110.582031 157.597656 109.078125 159.101562 107.226562 159.101562 C 105.375 159.101562 103.871094 157.597656 103.871094 155.75 C 103.871094 153.894531 105.375 152.390625 107.226562 152.390625 C 109.078125 152.390625 110.582031 153.894531 110.582031 155.75 "/>
<path style=" stroke:none;fill-rule:nonzero;fill:rgb(36.859131%,14.509583%,56.469727%);fill-opacity:1;" d="M 110.582031 155.75 L 109.382812 155.75 C 109.382812 156.347656 109.144531 156.878906 108.753906 157.273438 C 108.359375 157.664062 107.828125 157.902344 107.226562 157.90625 C 106.625 157.902344 106.097656 157.664062 105.703125 157.273438 C 105.308594 156.878906 105.070312 156.347656 105.066406 155.75 C 105.070312 155.148438 105.308594 154.613281 105.703125 154.222656 C 106.097656 153.828125 106.625 153.589844 107.226562 153.589844 C 107.828125 153.589844 108.359375 153.828125 108.753906 154.222656 C 109.144531 154.613281 109.382812 155.148438 109.382812 155.75 L 111.777344 155.75 C 111.777344 153.230469 109.742188 151.195312 107.226562 151.195312 C 104.710938 151.195312 102.675781 153.230469 102.675781 155.75 C 102.675781 158.261719 104.710938 160.296875 107.226562 160.300781 C 109.742188 160.296875 111.777344 158.261719 111.777344 155.75 L 110.582031 155.75 "/>
<path style=" stroke:none;fill-rule:nonzero;fill:rgb(65.489197%,64.709473%,65.098572%);fill-opacity:1;" d="M 127.359375 155.75 C 127.359375 157.597656 125.859375 159.101562 124.003906 159.101562 C 122.152344 159.101562 120.652344 157.597656 120.652344 155.75 C 120.652344 153.894531 122.152344 152.390625 124.003906 152.390625 C 125.859375 152.390625 127.359375 153.894531 127.359375 155.75 "/>
<path style=" stroke:none;fill-rule:nonzero;fill:rgb(36.859131%,14.509583%,56.469727%);fill-opacity:1;" d="M 127.359375 155.75 L 126.164062 155.75 C 126.164062 156.347656 125.921875 156.878906 125.53125 157.273438 C 125.136719 157.664062 124.605469 157.902344 124.003906 157.90625 C 123.402344 157.902344 122.871094 157.664062 122.476562 157.273438 C 122.085938 156.878906 121.847656 156.347656 121.847656 155.75 C 121.847656 155.144531 122.089844 154.613281 122.476562 154.222656 C 122.871094 153.828125 123.402344 153.589844 124.003906 153.589844 C 124.605469 153.589844 125.136719 153.828125 125.53125 154.222656 C 125.921875 154.613281 126.164062 155.148438 126.164062 155.75 L 128.554688 155.75 C 128.554688 153.234375 126.519531 151.195312 124.003906 151.195312 C 121.488281 151.195312 119.453125 153.234375 119.453125 155.75 C 119.453125 158.261719 121.488281 160.296875 124.003906 160.300781 C 126.519531 160.296875 128.554688 158.261719 128.554688 155.75 L 127.359375 155.75 "/>
<path style=" stroke:none;fill-rule:nonzero;fill:rgb(93.728638%,16.468811%,59.21936%);fill-opacity:1;" d="M 127.105469 53.941406 L 104.414062 53.941406 L 104.414062 33.253906 L 127.105469 33.253906 L 127.105469 53.941406 "/>
<path style=" stroke:none;fill-rule:nonzero;fill:rgb(36.859131%,14.509583%,56.469727%);fill-opacity:1;" d="M 127.105469 53.941406 L 127.105469 53.648438 L 104.707031 53.648438 L 104.707031 33.546875 L 126.8125 33.546875 L 126.8125 53.941406 L 127.105469 53.941406 L 127.105469 53.648438 L 127.105469 53.941406 L 127.398438 53.941406 L 127.398438 33.253906 C 127.398438 33.175781 127.367188 33.101562 127.3125 33.042969 C 127.257812 32.988281 127.183594 32.960938 127.105469 32.960938 L 104.414062 32.960938 C 104.335938 32.960938 104.261719 32.988281 104.203125 33.042969 C 104.152344 33.101562 104.117188 33.175781 104.117188 33.253906 L 104.117188 53.941406 C 104.117188 54.015625 104.152344 54.09375 104.203125 54.148438 C 104.261719 54.203125 104.335938 54.234375 104.414062 54.234375 L 127.105469 54.234375 C 127.183594 54.234375 127.257812 54.203125 127.3125 54.148438 C 127.367188 54.09375 127.398438 54.019531 127.398438 53.941406 L 127.105469 53.941406 "/>
<path style=" stroke:none;fill-rule:nonzero;fill:rgb(61.959839%,81.568909%,83.139038%);fill-opacity:1;" d="M 118.132812 53.941406 L 113.382812 53.941406 L 113.382812 32.460938 L 118.132812 32.460938 L 118.132812 53.941406 "/>
<path style=" stroke:none;fill-rule:nonzero;fill:rgb(36.859131%,14.509583%,56.469727%);fill-opacity:1;" d="M 118.132812 53.941406 L 118.132812 53.648438 L 113.679688 53.648438 L 113.679688 32.753906 L 117.839844 32.753906 L 117.839844 53.941406 L 118.132812 53.941406 L 118.132812 53.648438 L 118.132812 53.941406 L 118.429688 53.941406 L 118.429688 32.460938 C 118.429688 32.386719 118.398438 32.308594 118.339844 32.253906 C 118.289062 32.199219 118.210938 32.167969 118.132812 32.167969 L 113.382812 32.167969 C 113.304688 32.167969 113.230469 32.199219 113.175781 32.253906 C 113.121094 32.308594 113.089844 32.386719 113.089844 32.460938 L 113.089844 53.941406 C 113.089844 54.015625 113.121094 54.09375 113.175781 54.148438 C 113.230469 54.203125 113.304688 54.234375 113.382812 54.234375 L 118.132812 54.234375 C 118.214844 54.234375 118.285156 54.203125 118.339844 54.148438 C 118.398438 54.09375 118.429688 54.019531 118.429688 53.941406 L 118.132812 53.941406 "/>
<path style=" stroke:none;fill-rule:nonzero;fill:rgb(93.728638%,16.468811%,59.21936%);fill-opacity:1;" d="M 128.371094 37.734375 L 103.148438 37.734375 L 103.148438 32.464844 L 128.371094 32.464844 L 128.371094 37.734375 "/>
<path style=" stroke:none;fill-rule:nonzero;fill:rgb(36.859131%,14.509583%,56.469727%);fill-opacity:1;" d="M 128.371094 37.734375 L 128.371094 37.441406 L 103.441406 37.441406 L 103.441406 32.761719 L 128.078125 32.761719 L 128.078125 37.734375 L 128.371094 37.734375 L 128.371094 37.441406 L 128.371094 37.734375 L 128.667969 37.734375 L 128.667969 32.464844 C 128.667969 32.390625 128.636719 32.3125 128.578125 32.257812 C 128.527344 32.203125 128.449219 32.171875 128.371094 32.171875 L 103.148438 32.171875 C 103.066406 32.171875 102.992188 32.203125 102.9375 32.257812 C 102.882812 32.3125 102.851562 32.390625 102.851562 32.464844 L 102.851562 37.734375 C 102.851562 37.8125 102.882812 37.890625 102.9375 37.941406 C 102.992188 38 103.066406 38.03125 103.148438 38.03125 L 128.371094 38.03125 C 128.453125 38.03125 128.523438 38 128.578125 37.941406 C 128.636719 37.886719 128.667969 37.8125 128.667969 37.734375 L 128.371094 37.734375 "/>
<path style=" stroke:none;fill-rule:nonzero;fill:rgb(61.959839%,81.568909%,83.139038%);fill-opacity:1;" d="M 118.132812 37.757812 L 113.382812 37.757812 L 113.382812 32.460938 L 118.132812 32.460938 L 118.132812 37.757812 "/>
<path style=" stroke:none;fill-rule:nonzero;fill:rgb(36.859131%,14.509583%,56.469727%);fill-opacity:1;" d="M 118.132812 37.757812 L 118.132812 37.460938 L 113.679688 37.460938 L 113.679688 32.753906 L 117.839844 32.753906 L 117.839844 37.757812 L 118.132812 37.757812 L 118.132812 37.460938 L 118.132812 37.757812 L 118.429688 37.757812 L 118.429688 32.460938 C 118.429688 32.386719 118.398438 32.308594 118.339844 32.253906 C 118.289062 32.199219 118.210938 32.167969 118.132812 32.167969 L 113.382812 32.167969 C 113.304688 32.167969 113.230469 32.199219 113.175781 32.253906 C 113.121094 32.308594 113.089844 32.386719 113.089844 32.460938 L 113.089844 37.757812 C 113.089844 37.832031 113.121094 37.910156 113.175781 37.964844 C 113.230469 38.019531 113.304688 38.050781 113.382812 38.050781 L 118.132812 38.050781 C 118.214844 38.050781 118.285156 38.019531 118.339844 37.964844 C 118.398438 37.910156 118.429688 37.835938 118.429688 37.757812 L 118.132812 37.757812 "/>
<path style=" stroke:none;fill-rule:nonzero;fill:rgb(61.959839%,81.568909%,83.139038%);fill-opacity:1;" d="M 114.8125 32.496094 L 119.359375 40.523438 L 120.269531 37.257812 L 123.492188 38.183594 L 120.269531 32.496094 L 114.8125 32.496094 "/>
<path style=" stroke:none;fill-rule:nonzero;fill:rgb(36.859131%,14.509583%,56.469727%);fill-opacity:1;" d="M 114.8125 32.496094 L 114.554688 32.640625 L 119.105469 40.667969 C 119.164062 40.769531 119.277344 40.828125 119.398438 40.8125 C 119.515625 40.800781 119.613281 40.714844 119.644531 40.601562 L 120.472656 37.621094 L 123.410156 38.464844 C 123.527344 38.496094 123.648438 38.457031 123.722656 38.363281 C 123.796875 38.269531 123.808594 38.140625 123.75 38.035156 L 120.527344 32.351562 C 120.476562 32.257812 120.378906 32.203125 120.269531 32.203125 L 114.8125 32.203125 C 114.707031 32.203125 114.613281 32.257812 114.558594 32.347656 C 114.507812 32.4375 114.503906 32.550781 114.554688 32.640625 L 114.8125 32.496094 L 114.8125 32.789062 L 120.097656 32.789062 L 122.882812 37.703125 L 120.347656 36.972656 C 120.273438 36.953125 120.195312 36.960938 120.125 37 C 120.058594 37.039062 120.007812 37.101562 119.984375 37.179688 L 119.265625 39.761719 L 115.066406 32.351562 L 114.8125 32.496094 L 114.8125 32.789062 L 114.8125 32.496094 "/>
<path style=" stroke:none;fill-rule:nonzero;fill:rgb(61.959839%,81.568909%,83.139038%);fill-opacity:1;" d="M 111.246094 32.496094 L 108.027344 38.183594 L 111.25 37.257812 L 112.15625 40.523438 L 116.707031 32.496094 L 111.246094 32.496094 "/>
<path style=" stroke:none;fill-rule:nonzero;fill:rgb(36.859131%,14.509583%,56.469727%);fill-opacity:1;" d="M 111.246094 32.496094 L 110.992188 32.351562 L 107.769531 38.035156 C 107.710938 38.140625 107.722656 38.269531 107.796875 38.363281 C 107.867188 38.457031 107.992188 38.496094 108.109375 38.464844 L 111.042969 37.621094 L 111.875 40.601562 C 111.90625 40.714844 112.003906 40.800781 112.121094 40.8125 C 112.242188 40.828125 112.355469 40.769531 112.414062 40.667969 L 116.960938 32.640625 C 117.011719 32.550781 117.011719 32.4375 116.960938 32.347656 C 116.90625 32.257812 116.8125 32.203125 116.707031 32.203125 L 111.246094 32.203125 C 111.140625 32.203125 111.042969 32.257812 110.992188 32.351562 L 111.246094 32.496094 L 111.246094 32.789062 L 116.203125 32.789062 L 112.25 39.761719 L 111.53125 37.179688 C 111.511719 37.101562 111.460938 37.039062 111.390625 37 C 111.324219 36.960938 111.242188 36.953125 111.167969 36.972656 L 108.636719 37.703125 L 111.503906 32.640625 L 111.246094 32.496094 L 111.246094 32.789062 L 111.246094 32.496094 "/>
<path style=" stroke:none;fill-rule:nonzero;fill:rgb(61.959839%,81.568909%,83.139038%);fill-opacity:1;" d="M 122.34375 31.125 L 117.664062 31.125 C 117.542969 31.007812 117.476562 30.855469 117.476562 30.648438 C 117.476562 29.34375 120.324219 26.496094 121.632812 26.496094 C 122.941406 26.496094 124 27.554688 124 28.863281 C 124 29.921875 123.304688 30.820312 122.34375 31.125 Z M 113.851562 31.125 L 109.171875 31.125 C 108.214844 30.820312 107.515625 29.921875 107.515625 28.863281 C 107.515625 27.554688 108.578125 26.496094 109.886719 26.496094 C 111.195312 26.496094 114.042969 29.34375 114.042969 30.648438 C 114.042969 30.855469 113.976562 31.007812 113.851562 31.125 Z M 122.117188 24.597656 C 120.414062 24.597656 117.183594 27.429688 115.761719 29.757812 C 114.335938 27.429688 111.101562 24.597656 109.402344 24.597656 C 107.179688 24.597656 105.378906 26.398438 105.378906 28.621094 C 105.378906 30.421875 106.5625 31.945312 108.191406 32.460938 L 123.328125 32.460938 C 124.957031 31.945312 126.140625 30.421875 126.140625 28.621094 C 126.140625 26.398438 124.339844 24.597656 122.117188 24.597656 "/>
<path style=" stroke:none;fill-rule:nonzero;fill:rgb(36.859131%,14.509583%,56.469727%);fill-opacity:1;" d="M 122.34375 31.125 L 122.34375 30.828125 L 117.664062 30.828125 L 117.664062 31.125 L 117.867188 30.910156 C 117.804688 30.847656 117.773438 30.789062 117.769531 30.648438 C 117.765625 30.429688 117.914062 30.03125 118.1875 29.605469 C 118.597656 28.964844 119.257812 28.242188 119.925781 27.691406 C 120.261719 27.414062 120.597656 27.183594 120.898438 27.027344 C 121.199219 26.867188 121.464844 26.785156 121.632812 26.789062 C 122.207031 26.789062 122.722656 27.019531 123.097656 27.394531 C 123.472656 27.773438 123.707031 28.289062 123.707031 28.863281 C 123.707031 29.789062 123.097656 30.578125 122.253906 30.84375 L 122.34375 31.125 L 122.34375 30.828125 L 122.34375 31.125 L 122.433594 31.402344 C 123.511719 31.0625 124.292969 30.054688 124.292969 28.863281 C 124.292969 27.394531 123.101562 26.203125 121.632812 26.203125 C 121.199219 26.207031 120.75 26.410156 120.273438 26.710938 C 119.558594 27.164062 118.808594 27.859375 118.21875 28.574219 C 117.925781 28.933594 117.671875 29.296875 117.488281 29.644531 C 117.304688 29.992188 117.183594 30.324219 117.179688 30.648438 C 117.179688 30.917969 117.285156 31.171875 117.460938 31.335938 C 117.515625 31.390625 117.585938 31.417969 117.664062 31.417969 L 122.34375 31.417969 L 122.433594 31.402344 Z M 113.851562 31.125 L 113.851562 30.828125 L 109.171875 30.828125 L 109.171875 31.125 L 109.261719 30.84375 C 108.421875 30.578125 107.808594 29.789062 107.8125 28.863281 C 107.8125 28.289062 108.042969 27.773438 108.417969 27.398438 C 108.796875 27.019531 109.3125 26.789062 109.886719 26.789062 C 110.109375 26.785156 110.503906 26.933594 110.929688 27.207031 C 111.574219 27.617188 112.296875 28.277344 112.84375 28.949219 C 113.121094 29.28125 113.355469 29.617188 113.511719 29.917969 C 113.671875 30.21875 113.753906 30.484375 113.75 30.648438 C 113.746094 30.789062 113.714844 30.847656 113.652344 30.910156 L 113.851562 31.125 L 113.851562 30.828125 L 113.851562 31.125 L 114.058594 31.335938 C 114.234375 31.171875 114.339844 30.921875 114.335938 30.648438 C 114.332031 30.21875 114.125 29.769531 113.828125 29.292969 C 113.371094 28.582031 112.679688 27.828125 111.964844 27.238281 C 111.605469 26.941406 111.242188 26.691406 110.894531 26.507812 C 110.542969 26.324219 110.210938 26.203125 109.886719 26.203125 C 108.414062 26.203125 107.222656 27.394531 107.222656 28.863281 C 107.222656 30.054688 108.007812 31.0625 109.085938 31.402344 L 109.171875 31.417969 L 113.851562 31.417969 C 113.929688 31.417969 114.003906 31.390625 114.058594 31.335938 Z M 122.117188 24.597656 L 122.117188 24.304688 C 121.609375 24.304688 121.058594 24.503906 120.464844 24.816406 C 118.707031 25.761719 116.613281 27.804688 115.507812 29.601562 L 115.761719 29.757812 L 116.007812 29.601562 C 115.273438 28.402344 114.09375 27.101562 112.871094 26.078125 C 112.261719 25.570312 111.640625 25.132812 111.050781 24.816406 C 110.460938 24.503906 109.910156 24.304688 109.402344 24.304688 C 107.015625 24.304688 105.085938 26.238281 105.085938 28.621094 C 105.085938 30.554688 106.351562 32.191406 108.101562 32.742188 L 108.191406 32.753906 L 123.328125 32.753906 L 123.414062 32.742188 C 125.167969 32.191406 126.433594 30.554688 126.433594 28.621094 C 126.433594 26.238281 124.503906 24.304688 122.117188 24.304688 L 122.117188 24.890625 C 123.148438 24.890625 124.078125 25.308594 124.753906 25.984375 C 125.429688 26.660156 125.847656 27.589844 125.847656 28.621094 C 125.847656 30.289062 124.75 31.703125 123.242188 32.179688 L 123.328125 32.460938 L 123.328125 32.167969 L 108.191406 32.167969 L 108.191406 32.460938 L 108.277344 32.179688 C 106.765625 31.703125 105.671875 30.289062 105.671875 28.621094 C 105.671875 27.589844 106.085938 26.660156 106.761719 25.984375 C 107.441406 25.308594 108.371094 24.890625 109.402344 24.890625 C 109.746094 24.890625 110.234375 25.042969 110.773438 25.335938 C 112.402344 26.203125 114.480469 28.21875 115.507812 29.910156 C 115.5625 29.996094 115.65625 30.050781 115.757812 30.050781 C 115.859375 30.050781 115.957031 29.996094 116.007812 29.910156 C 116.699219 28.785156 117.847656 27.507812 119.023438 26.53125 C 119.609375 26.039062 120.203125 25.625 120.742188 25.335938 C 121.285156 25.042969 121.773438 24.890625 122.117188 24.890625 L 122.117188 24.597656 "/>
<path style=" stroke:none;fill-rule:nonzero;fill:rgb(61.959839%,81.568909%,83.139038%);fill-opacity:1;" d="M 117.425781 31.78125 C 117.425781 32.191406 117.09375 32.519531 116.683594 32.519531 L 114.835938 32.519531 C 114.421875 32.519531 114.09375 32.191406 114.09375 31.78125 L 114.09375 29.929688 C 114.09375 29.523438 114.421875 29.191406 114.835938 29.191406 L 116.683594 29.191406 C 117.09375 29.191406 117.425781 29.523438 117.425781 29.929688 L 117.425781 31.78125 "/>
<path style=" stroke:none;fill-rule:nonzero;fill:rgb(36.859131%,14.509583%,56.469727%);fill-opacity:1;" d="M 117.425781 31.78125 L 117.132812 31.78125 C 117.132812 32.027344 116.929688 32.226562 116.683594 32.226562 L 114.835938 32.226562 C 114.585938 32.226562 114.386719 32.03125 114.386719 31.78125 L 114.386719 29.929688 C 114.386719 29.683594 114.585938 29.484375 114.835938 29.484375 L 116.683594 29.484375 C 116.929688 29.484375 117.132812 29.683594 117.132812 29.929688 L 117.132812 31.78125 L 117.71875 31.78125 L 117.71875 29.929688 C 117.71875 29.359375 117.257812 28.894531 116.683594 28.894531 L 114.835938 28.894531 C 114.261719 28.894531 113.800781 29.359375 113.796875 29.929688 L 113.796875 31.78125 C 113.800781 32.351562 114.261719 32.816406 114.835938 32.816406 L 116.683594 32.816406 C 117.257812 32.816406 117.71875 32.355469 117.71875 31.78125 L 117.425781 31.78125 "/>
<path style=" stroke:none;fill-rule:nonzero;fill:rgb(36.859131%,14.509583%,56.469727%);fill-opacity:1;" d="M 114.691406 48.101562 L 114.691406 40.410156 C 114.691406 40.246094 114.558594 40.117188 114.398438 40.117188 C 114.234375 40.117188 114.101562 40.246094 114.101562 40.410156 L 114.101562 48.101562 C 114.101562 48.261719 114.234375 48.394531 114.398438 48.394531 C 114.558594 48.394531 114.691406 48.261719 114.691406 48.101562 "/>
<path style=" stroke:none;fill-rule:nonzero;fill:rgb(36.859131%,14.509583%,56.469727%);fill-opacity:1;" d="M 119.59375 53.238281 L 124.4375 53.238281 C 124.601562 53.238281 124.734375 53.105469 124.734375 52.941406 C 124.734375 52.78125 124.601562 52.648438 124.4375 52.648438 L 119.59375 52.648438 C 119.433594 52.648438 119.300781 52.78125 119.300781 52.941406 C 119.300781 53.105469 119.433594 53.238281 119.59375 53.238281 "/>
<path style=" stroke:none;fill-rule:nonzero;fill:rgb(36.859131%,14.509583%,56.469727%);fill-opacity:1;" d="M 105.992188 53.308594 L 111.761719 53.308594 C 111.925781 53.308594 112.058594 53.175781 112.058594 53.011719 C 112.058594 52.851562 111.925781 52.71875 111.761719 52.71875 L 105.992188 52.71875 C 105.832031 52.71875 105.699219 52.851562 105.699219 53.011719 C 105.699219 53.175781 105.832031 53.308594 105.992188 53.308594 "/>
<path style=" stroke:none;fill-rule:nonzero;fill:rgb(61.959839%,81.568909%,83.139038%);fill-opacity:1;" d="M 40.941406 67.957031 L 40.941406 81.84375 C 40.941406 83.660156 42.414062 85.132812 44.226562 85.132812 L 62.0625 85.132812 C 63.878906 85.132812 65.347656 83.660156 65.347656 81.84375 L 65.347656 67.957031 L 40.941406 67.957031 "/>
<path style=" stroke:none;fill-rule:nonzero;fill:rgb(36.859131%,14.509583%,56.469727%);fill-opacity:1;" d="M 40.941406 67.957031 L 40.679688 67.957031 L 40.679688 81.84375 C 40.679688 83.804688 42.265625 85.394531 44.226562 85.394531 L 62.0625 85.394531 C 64.023438 85.394531 65.613281 83.804688 65.613281 81.84375 L 65.613281 67.957031 C 65.613281 67.890625 65.585938 67.820312 65.535156 67.773438 C 65.484375 67.722656 65.417969 67.695312 65.347656 67.695312 L 40.941406 67.695312 C 40.875 67.695312 40.804688 67.722656 40.753906 67.773438 C 40.707031 67.820312 40.679688 67.890625 40.679688 67.957031 L 40.941406 67.957031 L 40.941406 68.222656 L 65.085938 68.222656 L 65.085938 81.84375 C 65.085938 82.679688 64.75 83.433594 64.199219 83.984375 C 63.652344 84.53125 62.898438 84.867188 62.0625 84.867188 L 44.226562 84.867188 C 43.394531 84.867188 42.640625 84.53125 42.089844 83.984375 C 41.542969 83.433594 41.207031 82.679688 41.207031 81.84375 L 41.207031 67.957031 L 40.941406 67.957031 L 40.941406 68.222656 L 40.941406 67.957031 "/>
<path style=" stroke:none;fill-rule:nonzero;fill:rgb(100%,100%,100%);fill-opacity:1;" d="M 42.535156 68.53125 L 42.535156 80.609375 C 42.535156 82.1875 43.8125 83.464844 45.390625 83.464844 L 60.902344 83.464844 C 62.476562 83.464844 63.757812 82.1875 63.757812 80.609375 L 63.757812 68.53125 L 42.535156 68.53125 "/>
<path style=" stroke:none;fill-rule:nonzero;fill:rgb(36.859131%,14.509583%,56.469727%);fill-opacity:1;" d="M 42.535156 68.53125 L 42.269531 68.53125 L 42.269531 80.609375 C 42.269531 82.332031 43.667969 83.726562 45.390625 83.726562 L 60.902344 83.726562 C 62.621094 83.726562 64.019531 82.332031 64.019531 80.609375 L 64.019531 68.53125 C 64.019531 68.460938 63.992188 68.394531 63.941406 68.347656 C 63.894531 68.296875 63.828125 68.269531 63.757812 68.269531 L 42.535156 68.269531 C 42.464844 68.269531 42.398438 68.296875 42.347656 68.347656 C 42.296875 68.394531 42.269531 68.460938 42.269531 68.53125 L 42.535156 68.53125 L 42.535156 68.792969 L 63.496094 68.792969 L 63.496094 80.609375 C 63.496094 81.324219 63.203125 81.972656 62.734375 82.441406 C 62.265625 82.910156 61.617188 83.199219 60.902344 83.199219 L 45.390625 83.199219 C 44.671875 83.199219 44.027344 82.910156 43.554688 82.441406 C 43.085938 81.972656 42.796875 81.324219 42.796875 80.609375 L 42.796875 68.53125 L 42.535156 68.53125 L 42.535156 68.792969 L 42.535156 68.53125 "/>
<path style=" stroke:none;fill-rule:nonzero;fill:rgb(93.728638%,16.468811%,59.21936%);fill-opacity:1;" d="M 65.351562 69.113281 L 65.351562 63.089844 C 65.351562 61.863281 64.359375 60.867188 63.132812 60.867188 L 43.15625 60.867188 C 41.929688 60.867188 40.933594 61.863281 40.933594 63.089844 L 40.933594 69.113281 L 65.351562 69.113281 "/>
<path style=" stroke:none;fill-rule:nonzero;fill:rgb(36.859131%,14.509583%,56.469727%);fill-opacity:1;" d="M 65.351562 69.113281 L 65.617188 69.113281 L 65.617188 63.089844 C 65.617188 62.40625 65.339844 61.78125 64.890625 61.332031 C 64.441406 60.882812 63.816406 60.605469 63.132812 60.605469 L 43.15625 60.605469 C 41.785156 60.605469 40.671875 61.714844 40.671875 63.089844 L 40.671875 69.113281 C 40.671875 69.183594 40.703125 69.25 40.75 69.296875 C 40.796875 69.347656 40.867188 69.378906 40.933594 69.378906 L 65.351562 69.378906 C 65.421875 69.378906 65.488281 69.347656 65.539062 69.296875 C 65.589844 69.25 65.617188 69.183594 65.617188 69.113281 L 65.351562 69.113281 L 65.351562 68.851562 L 41.199219 68.851562 L 41.199219 63.089844 C 41.199219 62.546875 41.417969 62.058594 41.773438 61.703125 C 42.128906 61.347656 42.617188 61.128906 43.15625 61.128906 L 63.132812 61.128906 C 64.214844 61.128906 65.089844 62.007812 65.089844 63.089844 L 65.089844 69.113281 L 65.351562 69.113281 L 65.351562 68.851562 L 65.351562 69.113281 "/>
<path style=" stroke:none;fill-rule:nonzero;fill:rgb(100%,100%,100%);fill-opacity:1;" d="M 45.125 62.121094 C 45.125 62.609375 44.730469 63.003906 44.238281 63.003906 C 43.75 63.003906 43.355469 62.609375 43.355469 62.121094 L 43.355469 59.671875 C 43.355469 59.179688 43.75 58.785156 44.238281 58.785156 C 44.730469 58.785156 45.125 59.179688 45.125 59.671875 L 45.125 62.121094 "/>
<path style=" stroke:none;fill-rule:nonzero;fill:rgb(36.859131%,14.509583%,56.469727%);fill-opacity:1;" d="M 45.125 62.121094 L 44.859375 62.121094 C 44.859375 62.464844 44.582031 62.742188 44.238281 62.742188 C 43.898438 62.742188 43.617188 62.460938 43.617188 62.121094 L 43.617188 59.671875 C 43.617188 59.328125 43.894531 59.050781 44.238281 59.050781 C 44.585938 59.050781 44.859375 59.324219 44.859375 59.671875 L 44.859375 62.121094 L 45.386719 62.121094 L 45.386719 59.671875 C 45.386719 59.035156 44.875 58.523438 44.238281 58.523438 C 43.605469 58.523438 43.09375 59.035156 43.089844 59.671875 L 43.089844 62.121094 C 43.089844 62.753906 43.601562 63.269531 44.238281 63.269531 C 44.875 63.269531 45.386719 62.753906 45.386719 62.121094 L 45.125 62.121094 "/>
<path style=" stroke:none;fill-rule:nonzero;fill:rgb(100%,100%,100%);fill-opacity:1;" d="M 48.09375 62.121094 C 48.09375 62.609375 47.695312 63.003906 47.207031 63.003906 C 46.71875 63.003906 46.324219 62.609375 46.324219 62.121094 L 46.324219 59.671875 C 46.324219 59.179688 46.71875 58.785156 47.207031 58.785156 C 47.695312 58.785156 48.09375 59.179688 48.09375 59.671875 L 48.09375 62.121094 "/>
<path style=" stroke:none;fill-rule:nonzero;fill:rgb(36.859131%,14.509583%,56.469727%);fill-opacity:1;" d="M 48.09375 62.121094 L 47.832031 62.121094 C 47.828125 62.460938 47.550781 62.742188 47.207031 62.742188 C 46.863281 62.742188 46.585938 62.464844 46.585938 62.121094 L 46.585938 59.671875 C 46.585938 59.324219 46.863281 59.050781 47.207031 59.050781 C 47.550781 59.050781 47.828125 59.328125 47.832031 59.671875 L 47.832031 62.121094 L 48.355469 62.121094 L 48.355469 59.671875 C 48.355469 59.035156 47.839844 58.523438 47.207031 58.523438 C 46.574219 58.523438 46.0625 59.035156 46.058594 59.671875 L 46.058594 62.121094 C 46.0625 62.753906 46.570312 63.269531 47.207031 63.269531 C 47.839844 63.269531 48.355469 62.753906 48.355469 62.121094 L 48.09375 62.121094 "/>
<path style=" stroke:none;fill-rule:nonzero;fill:rgb(100%,100%,100%);fill-opacity:1;" d="M 51.0625 62.121094 C 51.0625 62.609375 50.664062 63.003906 50.175781 63.003906 C 49.6875 63.003906 49.292969 62.609375 49.292969 62.121094 L 49.292969 59.671875 C 49.292969 59.179688 49.6875 58.785156 50.175781 58.785156 C 50.664062 58.785156 51.0625 59.179688 51.0625 59.671875 L 51.0625 62.121094 "/>
<path style=" stroke:none;fill-rule:nonzero;fill:rgb(36.859131%,14.509583%,56.469727%);fill-opacity:1;" d="M 51.0625 62.121094 L 50.800781 62.121094 C 50.800781 62.460938 50.519531 62.742188 50.175781 62.742188 C 49.835938 62.742188 49.554688 62.460938 49.554688 62.121094 L 49.554688 59.671875 C 49.554688 59.328125 49.835938 59.050781 50.175781 59.050781 C 50.519531 59.050781 50.800781 59.328125 50.800781 59.671875 L 50.800781 62.121094 L 51.324219 62.121094 L 51.324219 59.671875 C 51.324219 59.035156 50.808594 58.523438 50.175781 58.523438 C 49.542969 58.523438 49.027344 59.035156 49.027344 59.671875 L 49.027344 62.121094 C 49.027344 62.753906 49.542969 63.269531 50.175781 63.269531 C 50.808594 63.269531 51.324219 62.753906 51.324219 62.121094 L 51.0625 62.121094 "/>
<path style=" stroke:none;fill-rule:nonzero;fill:rgb(100%,100%,100%);fill-opacity:1;" d="M 54.03125 62.121094 C 54.03125 62.609375 53.632812 63.003906 53.144531 63.003906 C 52.65625 63.003906 52.257812 62.609375 52.257812 62.121094 L 52.257812 59.671875 C 52.257812 59.179688 52.65625 58.785156 53.144531 58.785156 C 53.632812 58.785156 54.03125 59.179688 54.03125 59.671875 L 54.03125 62.121094 "/>
<path style=" stroke:none;fill-rule:nonzero;fill:rgb(36.859131%,14.509583%,56.469727%);fill-opacity:1;" d="M 54.03125 62.121094 L 53.765625 62.121094 C 53.765625 62.460938 53.484375 62.742188 53.144531 62.742188 C 52.800781 62.742188 52.523438 62.460938 52.523438 62.121094 L 52.523438 59.671875 C 52.523438 59.328125 52.800781 59.050781 53.144531 59.050781 C 53.488281 59.050781 53.765625 59.328125 53.765625 59.671875 L 53.765625 62.121094 L 54.292969 62.121094 L 54.292969 59.671875 C 54.292969 59.035156 53.777344 58.523438 53.144531 58.523438 C 52.511719 58.523438 51.996094 59.035156 51.996094 59.671875 L 51.996094 62.121094 C 51.996094 62.753906 52.511719 63.269531 53.144531 63.269531 C 53.78125 63.269531 54.292969 62.753906 54.292969 62.121094 L 54.03125 62.121094 "/>
<path style=" stroke:none;fill-rule:nonzero;fill:rgb(100%,100%,100%);fill-opacity:1;" d="M 56.996094 62.121094 C 56.996094 62.609375 56.601562 63.003906 56.113281 63.003906 C 55.625 63.003906 55.230469 62.609375 55.230469 62.121094 L 55.230469 59.671875 C 55.230469 59.179688 55.625 58.785156 56.113281 58.785156 C 56.601562 58.785156 56.996094 59.179688 56.996094 59.671875 L 56.996094 62.121094 "/>
<path style=" stroke:none;fill-rule:nonzero;fill:rgb(36.859131%,14.509583%,56.469727%);fill-opacity:1;" d="M 56.996094 62.121094 L 56.734375 62.121094 C 56.734375 62.464844 56.457031 62.742188 56.113281 62.742188 C 55.769531 62.742188 55.492188 62.464844 55.492188 62.121094 L 55.492188 59.671875 C 55.492188 59.324219 55.769531 59.050781 56.113281 59.050781 C 56.457031 59.050781 56.734375 59.324219 56.734375 59.671875 L 56.734375 62.121094 L 57.257812 62.121094 L 57.257812 59.671875 C 57.257812 59.035156 56.746094 58.523438 56.113281 58.523438 C 55.480469 58.523438 54.96875 59.035156 54.96875 59.671875 L 54.96875 62.121094 C 54.96875 62.753906 55.480469 63.269531 56.113281 63.269531 C 56.75 63.269531 57.257812 62.753906 57.257812 62.121094 L 56.996094 62.121094 "/>
<path style=" stroke:none;fill-rule:nonzero;fill:rgb(100%,100%,100%);fill-opacity:1;" d="M 59.96875 62.121094 C 59.96875 62.609375 59.570312 63.003906 59.082031 63.003906 C 58.589844 63.003906 58.195312 62.609375 58.195312 62.121094 L 58.195312 59.671875 C 58.195312 59.179688 58.589844 58.785156 59.082031 58.785156 C 59.570312 58.785156 59.96875 59.179688 59.96875 59.671875 L 59.96875 62.121094 "/>
<path style=" stroke:none;fill-rule:nonzero;fill:rgb(36.859131%,14.509583%,56.469727%);fill-opacity:1;" d="M 59.96875 62.121094 L 59.703125 62.121094 C 59.703125 62.460938 59.425781 62.742188 59.082031 62.742188 C 58.738281 62.742188 58.460938 62.464844 58.460938 62.121094 L 58.460938 59.671875 C 58.460938 59.324219 58.734375 59.050781 59.082031 59.050781 C 59.425781 59.050781 59.703125 59.328125 59.703125 59.671875 L 59.703125 62.121094 L 60.230469 62.121094 L 60.230469 59.671875 C 60.230469 59.035156 59.714844 58.523438 59.082031 58.523438 C 58.445312 58.523438 57.933594 59.035156 57.933594 59.671875 L 57.933594 62.121094 C 57.933594 62.753906 58.445312 63.269531 59.082031 63.269531 C 59.71875 63.269531 60.230469 62.753906 60.230469 62.121094 L 59.96875 62.121094 "/>
<path style=" stroke:none;fill-rule:nonzero;fill:rgb(100%,100%,100%);fill-opacity:1;" d="M 62.9375 62.121094 C 62.9375 62.609375 62.539062 63.003906 62.050781 63.003906 C 61.5625 63.003906 61.164062 62.609375 61.164062 62.121094 L 61.164062 59.671875 C 61.164062 59.179688 61.5625 58.785156 62.050781 58.785156 C 62.539062 58.785156 62.9375 59.179688 62.9375 59.671875 L 62.9375 62.121094 "/>
<path style=" stroke:none;fill-rule:nonzero;fill:rgb(36.859131%,14.509583%,56.469727%);fill-opacity:1;" d="M 62.9375 62.121094 L 62.671875 62.121094 C 62.671875 62.460938 62.394531 62.742188 62.050781 62.742188 C 61.710938 62.742188 61.425781 62.460938 61.425781 62.121094 L 61.425781 59.671875 C 61.425781 59.328125 61.707031 59.050781 62.050781 59.050781 C 62.394531 59.050781 62.671875 59.328125 62.671875 59.671875 L 62.671875 62.121094 L 63.199219 62.121094 L 63.199219 59.671875 C 63.199219 59.035156 62.683594 58.523438 62.050781 58.523438 C 61.417969 58.523438 60.902344 59.035156 60.898438 59.671875 L 60.898438 62.121094 C 60.902344 62.753906 61.417969 63.269531 62.050781 63.269531 C 62.683594 63.269531 63.199219 62.753906 63.199219 62.121094 L 62.9375 62.121094 "/>
<path style=" stroke:none;fill-rule:nonzero;fill:rgb(61.959839%,81.568909%,83.139038%);fill-opacity:1;" d="M 47.351562 73.355469 L 44.078125 73.355469 L 44.078125 70.773438 L 47.351562 70.773438 L 47.351562 73.355469 "/>
<path style=" stroke:none;fill-rule:nonzero;fill:rgb(36.859131%,14.509583%,56.469727%);fill-opacity:1;" d="M 47.351562 73.355469 L 47.351562 73.09375 L 44.339844 73.09375 L 44.339844 71.035156 L 47.089844 71.035156 L 47.089844 73.355469 L 47.351562 73.355469 L 47.351562 73.09375 L 47.351562 73.355469 L 47.617188 73.355469 L 47.617188 70.773438 C 47.617188 70.703125 47.585938 70.636719 47.539062 70.585938 C 47.492188 70.539062 47.421875 70.507812 47.351562 70.507812 L 44.078125 70.507812 C 44.007812 70.507812 43.941406 70.539062 43.890625 70.585938 C 43.84375 70.636719 43.8125 70.703125 43.8125 70.773438 L 43.8125 73.355469 C 43.8125 73.425781 43.84375 73.492188 43.890625 73.542969 C 43.941406 73.589844 44.007812 73.621094 44.078125 73.621094 L 47.351562 73.621094 C 47.421875 73.621094 47.488281 73.59375 47.539062 73.542969 C 47.585938 73.492188 47.617188 73.425781 47.617188 73.355469 L 47.351562 73.355469 "/>
<path style=" stroke:none;fill-rule:nonzero;fill:rgb(61.959839%,81.568909%,83.139038%);fill-opacity:1;" d="M 52.304688 73.355469 L 49.03125 73.355469 L 49.03125 70.773438 L 52.304688 70.773438 L 52.304688 73.355469 "/>
<path style=" stroke:none;fill-rule:nonzero;fill:rgb(36.859131%,14.509583%,56.469727%);fill-opacity:1;" d="M 52.304688 73.355469 L 52.304688 73.09375 L 49.296875 73.09375 L 49.296875 71.035156 L 52.042969 71.035156 L 52.042969 73.355469 L 52.304688 73.355469 L 52.304688 73.09375 L 52.304688 73.355469 L 52.570312 73.355469 L 52.570312 70.773438 C 52.570312 70.703125 52.539062 70.636719 52.492188 70.585938 C 52.441406 70.539062 52.375 70.507812 52.304688 70.507812 L 49.03125 70.507812 C 48.964844 70.507812 48.894531 70.539062 48.84375 70.585938 C 48.796875 70.636719 48.769531 70.703125 48.769531 70.773438 L 48.769531 73.355469 C 48.769531 73.425781 48.796875 73.492188 48.84375 73.542969 C 48.894531 73.589844 48.964844 73.621094 49.03125 73.621094 L 52.304688 73.621094 C 52.375 73.621094 52.441406 73.59375 52.492188 73.542969 C 52.542969 73.492188 52.570312 73.425781 52.570312 73.355469 L 52.304688 73.355469 "/>
<path style=" stroke:none;fill-rule:nonzero;fill:rgb(61.959839%,81.568909%,83.139038%);fill-opacity:1;" d="M 57.257812 73.355469 L 53.980469 73.355469 L 53.980469 70.773438 L 57.257812 70.773438 L 57.257812 73.355469 "/>
<path style=" stroke:none;fill-rule:nonzero;fill:rgb(36.859131%,14.509583%,56.469727%);fill-opacity:1;" d="M 57.257812 73.355469 L 57.257812 73.09375 L 54.246094 73.09375 L 54.246094 71.035156 L 56.992188 71.035156 L 56.992188 73.355469 L 57.257812 73.355469 L 57.257812 73.09375 L 57.257812 73.355469 L 57.519531 73.355469 L 57.519531 70.773438 C 57.519531 70.703125 57.492188 70.636719 57.441406 70.585938 C 57.394531 70.539062 57.324219 70.507812 57.257812 70.507812 L 53.980469 70.507812 C 53.914062 70.507812 53.84375 70.539062 53.796875 70.585938 C 53.75 70.636719 53.71875 70.703125 53.71875 70.773438 L 53.71875 73.355469 C 53.71875 73.425781 53.75 73.492188 53.796875 73.542969 C 53.84375 73.589844 53.914062 73.621094 53.980469 73.621094 L 57.257812 73.621094 C 57.328125 73.621094 57.394531 73.59375 57.441406 73.542969 C 57.492188 73.492188 57.519531 73.425781 57.519531 73.355469 L 57.257812 73.355469 "/>
<path style=" stroke:none;fill-rule:nonzero;fill:rgb(61.959839%,81.568909%,83.139038%);fill-opacity:1;" d="M 62.210938 73.355469 L 58.9375 73.355469 L 58.9375 70.773438 L 62.210938 70.773438 L 62.210938 73.355469 "/>
<path style=" stroke:none;fill-rule:nonzero;fill:rgb(36.859131%,14.509583%,56.469727%);fill-opacity:1;" d="M 62.210938 73.355469 L 62.210938 73.09375 L 59.199219 73.09375 L 59.199219 71.035156 L 61.949219 71.035156 L 61.949219 73.355469 L 62.210938 73.355469 L 62.210938 73.09375 L 62.210938 73.355469 L 62.472656 73.355469 L 62.472656 70.773438 C 62.472656 70.703125 62.445312 70.636719 62.394531 70.585938 C 62.347656 70.539062 62.28125 70.507812 62.210938 70.507812 L 58.9375 70.507812 C 58.867188 70.507812 58.800781 70.539062 58.753906 70.585938 C 58.703125 70.636719 58.675781 70.703125 58.675781 70.773438 L 58.675781 73.355469 C 58.675781 73.425781 58.703125 73.492188 58.753906 73.542969 C 58.800781 73.589844 58.867188 73.621094 58.9375 73.621094 L 62.210938 73.621094 C 62.28125 73.621094 62.347656 73.59375 62.394531 73.542969 C 62.445312 73.492188 62.472656 73.425781 62.472656 73.355469 L 62.210938 73.355469 "/>
<path style=" stroke:none;fill-rule:nonzero;fill:rgb(61.959839%,81.568909%,83.139038%);fill-opacity:1;" d="M 47.351562 77.015625 L 44.078125 77.015625 L 44.078125 74.429688 L 47.351562 74.429688 L 47.351562 77.015625 "/>
<path style=" stroke:none;fill-rule:nonzero;fill:rgb(36.859131%,14.509583%,56.469727%);fill-opacity:1;" d="M 47.351562 77.015625 L 47.351562 76.753906 L 44.339844 76.753906 L 44.339844 74.695312 L 47.089844 74.695312 L 47.089844 77.015625 L 47.351562 77.015625 L 47.351562 76.753906 L 47.351562 77.015625 L 47.617188 77.015625 L 47.617188 74.429688 C 47.617188 74.363281 47.585938 74.292969 47.539062 74.246094 C 47.492188 74.199219 47.421875 74.167969 47.351562 74.167969 L 44.078125 74.167969 C 44.007812 74.167969 43.941406 74.199219 43.890625 74.246094 C 43.84375 74.292969 43.8125 74.363281 43.8125 74.429688 L 43.8125 77.015625 C 43.8125 77.085938 43.84375 77.15625 43.890625 77.203125 C 43.941406 77.253906 44.007812 77.28125 44.078125 77.28125 L 47.351562 77.28125 C 47.421875 77.28125 47.488281 77.253906 47.539062 77.203125 C 47.585938 77.152344 47.617188 77.085938 47.617188 77.015625 L 47.351562 77.015625 "/>
<path style=" stroke:none;fill-rule:nonzero;fill:rgb(61.959839%,81.568909%,83.139038%);fill-opacity:1;" d="M 52.304688 77.015625 L 49.03125 77.015625 L 49.03125 74.429688 L 52.304688 74.429688 L 52.304688 77.015625 "/>
<path style=" stroke:none;fill-rule:nonzero;fill:rgb(36.859131%,14.509583%,56.469727%);fill-opacity:1;" d="M 52.304688 77.015625 L 52.304688 76.753906 L 49.296875 76.753906 L 49.296875 74.695312 L 52.042969 74.695312 L 52.042969 77.015625 L 52.304688 77.015625 L 52.304688 76.753906 L 52.304688 77.015625 L 52.570312 77.015625 L 52.570312 74.429688 C 52.570312 74.363281 52.539062 74.292969 52.492188 74.246094 C 52.441406 74.199219 52.375 74.167969 52.304688 74.167969 L 49.03125 74.167969 C 48.964844 74.167969 48.894531 74.199219 48.84375 74.246094 C 48.796875 74.292969 48.769531 74.363281 48.769531 74.429688 L 48.769531 77.015625 C 48.769531 77.085938 48.796875 77.15625 48.84375 77.203125 C 48.894531 77.253906 48.964844 77.28125 49.03125 77.28125 L 52.304688 77.28125 C 52.375 77.28125 52.441406 77.253906 52.492188 77.203125 C 52.542969 77.152344 52.570312 77.085938 52.570312 77.015625 L 52.304688 77.015625 "/>
<path style=" stroke:none;fill-rule:nonzero;fill:rgb(61.959839%,81.568909%,83.139038%);fill-opacity:1;" d="M 57.257812 77.015625 L 53.980469 77.015625 L 53.980469 74.429688 L 57.257812 74.429688 L 57.257812 77.015625 "/>
<path style=" stroke:none;fill-rule:nonzero;fill:rgb(36.859131%,14.509583%,56.469727%);fill-opacity:1;" d="M 57.257812 77.015625 L 57.257812 76.753906 L 54.246094 76.753906 L 54.246094 74.695312 L 56.992188 74.695312 L 56.992188 77.015625 L 57.257812 77.015625 L 57.257812 76.753906 L 57.257812 77.015625 L 57.519531 77.015625 L 57.519531 74.429688 C 57.519531 74.363281 57.492188 74.292969 57.441406 74.246094 C 57.394531 74.199219 57.324219 74.167969 57.257812 74.167969 L 53.980469 74.167969 C 53.914062 74.167969 53.84375 74.199219 53.796875 74.246094 C 53.75 74.292969 53.71875 74.363281 53.71875 74.429688 L 53.71875 77.015625 C 53.71875 77.085938 53.75 77.15625 53.796875 77.203125 C 53.84375 77.253906 53.914062 77.28125 53.980469 77.28125 L 57.257812 77.28125 C 57.328125 77.28125 57.394531 77.253906 57.441406 77.203125 C 57.492188 77.152344 57.519531 77.085938 57.519531 77.015625 L 57.257812 77.015625 "/>
<path style=" stroke:none;fill-rule:nonzero;fill:rgb(61.959839%,81.568909%,83.139038%);fill-opacity:1;" d="M 62.210938 77.015625 L 58.9375 77.015625 L 58.9375 74.429688 L 62.210938 74.429688 L 62.210938 77.015625 "/>
<path style=" stroke:none;fill-rule:nonzero;fill:rgb(36.859131%,14.509583%,56.469727%);fill-opacity:1;" d="M 62.210938 77.015625 L 62.210938 76.753906 L 59.199219 76.753906 L 59.199219 74.695312 L 61.949219 74.695312 L 61.949219 77.015625 L 62.210938 77.015625 L 62.210938 76.753906 L 62.210938 77.015625 L 62.472656 77.015625 L 62.472656 74.429688 C 62.472656 74.363281 62.445312 74.292969 62.394531 74.246094 C 62.347656 74.199219 62.28125 74.167969 62.210938 74.167969 L 58.9375 74.167969 C 58.867188 74.167969 58.800781 74.199219 58.753906 74.246094 C 58.703125 74.292969 58.675781 74.363281 58.675781 74.429688 L 58.675781 77.015625 C 58.675781 77.085938 58.703125 77.15625 58.753906 77.203125 C 58.800781 77.253906 58.867188 77.28125 58.9375 77.28125 L 62.210938 77.28125 C 62.28125 77.28125 62.347656 77.253906 62.394531 77.203125 C 62.445312 77.152344 62.472656 77.085938 62.472656 77.015625 L 62.210938 77.015625 "/>
<path style=" stroke:none;fill-rule:nonzero;fill:rgb(61.959839%,81.568909%,83.139038%);fill-opacity:1;" d="M 47.351562 80.679688 L 44.078125 80.679688 L 44.078125 78.09375 L 47.351562 78.09375 L 47.351562 80.679688 "/>
<path style=" stroke:none;fill-rule:nonzero;fill:rgb(36.859131%,14.509583%,56.469727%);fill-opacity:1;" d="M 47.351562 80.679688 L 47.351562 80.417969 L 44.339844 80.417969 L 44.339844 78.355469 L 47.089844 78.355469 L 47.089844 80.679688 L 47.351562 80.679688 L 47.351562 80.417969 L 47.351562 80.679688 L 47.617188 80.679688 L 47.617188 78.09375 C 47.617188 78.023438 47.585938 77.957031 47.539062 77.90625 C 47.492188 77.855469 47.421875 77.832031 47.351562 77.832031 L 44.078125 77.832031 C 44.007812 77.832031 43.941406 77.855469 43.890625 77.90625 C 43.84375 77.957031 43.8125 78.023438 43.8125 78.09375 L 43.8125 80.679688 C 43.8125 80.75 43.84375 80.816406 43.890625 80.863281 C 43.941406 80.914062 44.007812 80.941406 44.078125 80.941406 L 47.351562 80.941406 C 47.421875 80.941406 47.488281 80.914062 47.539062 80.863281 C 47.585938 80.816406 47.617188 80.75 47.617188 80.679688 L 47.351562 80.679688 "/>
<path style=" stroke:none;fill-rule:nonzero;fill:rgb(61.959839%,81.568909%,83.139038%);fill-opacity:1;" d="M 52.304688 80.679688 L 49.03125 80.679688 L 49.03125 78.09375 L 52.304688 78.09375 L 52.304688 80.679688 "/>
<path style=" stroke:none;fill-rule:nonzero;fill:rgb(36.859131%,14.509583%,56.469727%);fill-opacity:1;" d="M 52.304688 80.679688 L 52.304688 80.417969 L 49.296875 80.417969 L 49.296875 78.355469 L 52.042969 78.355469 L 52.042969 80.679688 L 52.304688 80.679688 L 52.304688 80.417969 L 52.304688 80.679688 L 52.570312 80.679688 L 52.570312 78.09375 C 52.570312 78.023438 52.539062 77.957031 52.492188 77.90625 C 52.441406 77.855469 52.375 77.832031 52.304688 77.832031 L 49.03125 77.832031 C 48.964844 77.832031 48.894531 77.855469 48.84375 77.90625 C 48.796875 77.957031 48.769531 78.023438 48.769531 78.09375 L 48.769531 80.679688 C 48.769531 80.75 48.796875 80.816406 48.84375 80.863281 C 48.894531 80.914062 48.964844 80.941406 49.03125 80.941406 L 52.304688 80.941406 C 52.375 80.941406 52.441406 80.914062 52.492188 80.863281 C 52.542969 80.816406 52.570312 80.75 52.570312 80.679688 L 52.304688 80.679688 "/>
<path style=" stroke:none;fill-rule:nonzero;fill:rgb(61.959839%,81.568909%,83.139038%);fill-opacity:1;" d="M 57.257812 80.679688 L 53.980469 80.679688 L 53.980469 78.09375 L 57.257812 78.09375 L 57.257812 80.679688 "/>
<path style=" stroke:none;fill-rule:nonzero;fill:rgb(36.859131%,14.509583%,56.469727%);fill-opacity:1;" d="M 57.257812 80.679688 L 57.257812 80.417969 L 54.246094 80.417969 L 54.246094 78.355469 L 56.992188 78.355469 L 56.992188 80.679688 L 57.257812 80.679688 L 57.257812 80.417969 L 57.257812 80.679688 L 57.519531 80.679688 L 57.519531 78.09375 C 57.519531 78.023438 57.492188 77.957031 57.441406 77.90625 C 57.394531 77.855469 57.324219 77.832031 57.257812 77.832031 L 53.980469 77.832031 C 53.914062 77.832031 53.84375 77.855469 53.796875 77.90625 C 53.75 77.957031 53.71875 78.023438 53.71875 78.09375 L 53.71875 80.679688 C 53.71875 80.75 53.75 80.816406 53.796875 80.863281 C 53.84375 80.914062 53.914062 80.941406 53.980469 80.941406 L 57.257812 80.941406 C 57.328125 80.941406 57.394531 80.914062 57.441406 80.863281 C 57.492188 80.816406 57.519531 80.75 57.519531 80.679688 L 57.257812 80.679688 "/>
<path style=" stroke:none;fill-rule:nonzero;fill:rgb(61.959839%,81.568909%,83.139038%);fill-opacity:1;" d="M 62.210938 80.679688 L 58.9375 80.679688 L 58.9375 78.09375 L 62.210938 78.09375 L 62.210938 80.679688 "/>
<path style=" stroke:none;fill-rule:nonzero;fill:rgb(36.859131%,14.509583%,56.469727%);fill-opacity:1;" d="M 62.210938 80.679688 L 62.210938 80.417969 L 59.199219 80.417969 L 59.199219 78.355469 L 61.949219 78.355469 L 61.949219 80.679688 L 62.210938 80.679688 L 62.210938 80.417969 L 62.210938 80.679688 L 62.472656 80.679688 L 62.472656 78.09375 C 62.472656 78.023438 62.445312 77.957031 62.394531 77.90625 C 62.347656 77.855469 62.28125 77.832031 62.210938 77.832031 L 58.9375 77.832031 C 58.867188 77.832031 58.800781 77.855469 58.753906 77.90625 C 58.703125 77.957031 58.675781 78.023438 58.675781 78.09375 L 58.675781 80.679688 C 58.675781 80.75 58.703125 80.816406 58.753906 80.863281 C 58.800781 80.914062 58.867188 80.941406 58.9375 80.941406 L 62.210938 80.941406 C 62.28125 80.941406 62.347656 80.914062 62.394531 80.863281 C 62.445312 80.816406 62.472656 80.75 62.472656 80.679688 L 62.210938 80.679688 "/>
<path style=" stroke:none;fill-rule:nonzero;fill:rgb(36.859131%,14.509583%,56.469727%);fill-opacity:1;" d="M 42.042969 68.097656 L 52.835938 68.097656 C 52.980469 68.097656 53.101562 67.980469 53.101562 67.835938 C 53.101562 67.691406 52.980469 67.570312 52.835938 67.570312 L 42.042969 67.570312 C 41.894531 67.570312 41.777344 67.691406 41.777344 67.835938 C 41.777344 67.980469 41.894531 68.097656 42.042969 68.097656 "/>
<path style=" stroke:none;fill-rule:nonzero;fill:rgb(36.859131%,14.509583%,56.469727%);fill-opacity:1;" d="M 53.753906 67.984375 L 54.847656 67.984375 C 54.992188 67.984375 55.109375 67.867188 55.109375 67.722656 C 55.109375 67.574219 54.992188 67.457031 54.847656 67.457031 L 53.753906 67.457031 C 53.609375 67.457031 53.488281 67.574219 53.488281 67.722656 C 53.488281 67.867188 53.609375 67.984375 53.753906 67.984375 "/>
<path style=" stroke:none;fill-rule:nonzero;fill:rgb(93.728638%,16.468811%,59.21936%);fill-opacity:1;" d="M 188.074219 85.21875 L 162.5 85.21875 L 166.699219 60.167969 L 183.871094 60.167969 L 188.074219 85.21875 "/>
<path style=" stroke:none;fill-rule:nonzero;fill:rgb(36.859131%,14.509583%,56.469727%);fill-opacity:1;" d="M 188.074219 85.21875 L 188.074219 84.765625 L 163.03125 84.765625 L 167.082031 60.621094 L 183.488281 60.621094 L 187.628906 85.292969 L 188.074219 85.21875 L 188.074219 84.765625 L 188.074219 85.21875 L 188.519531 85.144531 L 184.316406 60.09375 C 184.285156 59.875 184.09375 59.714844 183.871094 59.714844 L 166.699219 59.714844 C 166.480469 59.714844 166.289062 59.875 166.253906 60.09375 L 162.054688 85.144531 C 162.03125 85.273438 162.070312 85.410156 162.152344 85.511719 C 162.238281 85.613281 162.367188 85.671875 162.5 85.671875 L 188.074219 85.671875 C 188.207031 85.671875 188.335938 85.613281 188.421875 85.507812 C 188.507812 85.410156 188.542969 85.273438 188.519531 85.144531 L 188.074219 85.21875 "/>
<path style=" stroke:none;fill-rule:nonzero;fill:rgb(100%,100%,100%);fill-opacity:1;" d="M 170.914062 62.667969 C 170.914062 63.347656 170.367188 63.894531 169.691406 63.894531 C 169.011719 63.894531 168.464844 63.347656 168.464844 62.667969 C 168.464844 61.992188 169.011719 61.445312 169.691406 61.445312 C 170.367188 61.445312 170.914062 61.992188 170.914062 62.667969 "/>
<path style=" stroke:none;fill-rule:nonzero;fill:rgb(36.859131%,14.509583%,56.469727%);fill-opacity:1;" d="M 170.914062 62.667969 L 170.464844 62.667969 C 170.460938 63.097656 170.117188 63.441406 169.691406 63.445312 C 169.261719 63.441406 168.917969 63.097656 168.917969 62.667969 C 168.917969 62.242188 169.261719 61.894531 169.691406 61.894531 C 170.117188 61.894531 170.460938 62.242188 170.464844 62.667969 L 171.367188 62.667969 C 171.367188 61.742188 170.617188 60.992188 169.691406 60.992188 C 168.761719 60.992188 168.011719 61.742188 168.011719 62.667969 C 168.011719 63.59375 168.761719 64.347656 169.691406 64.347656 C 170.617188 64.347656 171.367188 63.597656 171.367188 62.667969 L 170.914062 62.667969 "/>
<path style=" stroke:none;fill-rule:nonzero;fill:rgb(100%,100%,100%);fill-opacity:1;" d="M 181.523438 62.667969 C 181.523438 63.347656 180.976562 63.894531 180.300781 63.894531 C 179.621094 63.894531 179.074219 63.347656 179.074219 62.667969 C 179.074219 61.992188 179.621094 61.445312 180.300781 61.445312 C 180.976562 61.445312 181.523438 61.992188 181.523438 62.667969 "/>
<path style=" stroke:none;fill-rule:nonzero;fill:rgb(36.859131%,14.509583%,56.469727%);fill-opacity:1;" d="M 181.523438 62.667969 L 181.070312 62.667969 C 181.070312 63.097656 180.726562 63.441406 180.300781 63.445312 C 179.871094 63.441406 179.527344 63.097656 179.523438 62.667969 C 179.527344 62.242188 179.871094 61.894531 180.300781 61.894531 C 180.726562 61.894531 181.070312 62.242188 181.070312 62.667969 L 181.976562 62.667969 C 181.976562 61.742188 181.222656 60.992188 180.300781 60.992188 C 179.371094 60.992188 178.621094 61.742188 178.621094 62.667969 C 178.621094 63.597656 179.371094 64.347656 180.300781 64.347656 C 181.222656 64.347656 181.976562 63.597656 181.976562 62.667969 L 181.523438 62.667969 "/>
<path style=" stroke:none;fill-rule:nonzero;fill:rgb(36.859131%,14.509583%,56.469727%);fill-opacity:1;" d="M 170.199219 63.5625 L 170.199219 58.304688 C 170.199219 56.964844 170.738281 55.757812 171.617188 54.878906 C 172.496094 54 173.703125 53.460938 175.042969 53.460938 C 176.382812 53.460938 177.589844 54 178.46875 54.878906 C 179.34375 55.757812 179.886719 56.964844 179.886719 58.304688 L 179.886719 63.5625 C 179.886719 63.8125 180.089844 64.011719 180.339844 64.011719 C 180.589844 64.011719 180.789062 63.8125 180.789062 63.5625 L 180.789062 58.304688 C 180.789062 55.128906 178.21875 52.554688 175.042969 52.554688 C 171.867188 52.554688 169.292969 55.128906 169.292969 58.304688 L 169.292969 63.5625 C 169.292969 63.8125 169.496094 64.011719 169.746094 64.011719 C 169.996094 64.011719 170.199219 63.8125 170.199219 63.5625 "/>
<path style=" stroke:none;fill-rule:nonzero;fill:rgb(36.859131%,14.509583%,56.469727%);fill-opacity:1;" d="M 164.757812 84.117188 L 174.414062 84.117188 L 174.414062 83.210938 L 164.757812 83.210938 Z M 164.757812 84.117188 "/>
<path style=" stroke:none;fill-rule:nonzero;fill:rgb(36.859131%,14.509583%,56.469727%);fill-opacity:1;" d="M 175.476562 84.03125 L 177.605469 84.03125 L 177.605469 83.128906 L 175.476562 83.128906 Z M 175.476562 84.03125 "/>
</g>
</svg>
