<?xml version="1.0" encoding="UTF-8"?>
<svg xmlns="http://www.w3.org/2000/svg" xmlns:xlink="http://www.w3.org/1999/xlink" width="224.87999pt" height="225pt" viewBox="0 0 224.87999 225" version="1.2">
<defs>
<clipPath id="clip1">
  <path d="M 99 3.496094 L 128 3.496094 L 128 32 L 99 32 Z M 99 3.496094 "/>
</clipPath>
<clipPath id="clip2">
  <path d="M 99.257812 194 L 127.621094 194 L 127.621094 221.632812 L 99.257812 221.632812 Z M 99.257812 194 "/>
</clipPath>
<clipPath id="clip3">
  <path d="M 190.023438 128.144531 L 217.890625 128.144531 L 217.890625 156 L 190.023438 156 Z M 190.023438 128.144531 "/>
</clipPath>
<clipPath id="clip4">
  <path d="M 190.023438 69.125 L 217.890625 69.125 L 217.890625 97.457031 L 190.023438 97.457031 Z M 190.023438 69.125 "/>
</clipPath>
</defs>
<g id="surface1">
<g clip-path="url(#clip1)" clip-rule="nonzero">
<path style=" stroke:none;fill-rule:nonzero;fill:rgb(0%,0%,0%);fill-opacity:1;" d="M 127.453125 17.367188 C 127.453125 25.027344 121.234375 31.242188 113.5625 31.242188 C 105.890625 31.242188 99.675781 25.027344 99.675781 17.367188 C 99.675781 9.707031 105.890625 3.496094 113.5625 3.496094 C 121.234375 3.496094 127.453125 9.707031 127.453125 17.367188 "/>
</g>
<g clip-path="url(#clip2)" clip-rule="nonzero">
<path style=" stroke:none;fill-rule:nonzero;fill:rgb(49.798584%,49.798584%,49.798584%);fill-opacity:1;" d="M 113.5625 221.75 C 105.890625 221.75 99.675781 215.539062 99.675781 207.875 C 99.675781 200.214844 105.890625 194.003906 113.5625 194.003906 C 121.234375 194.003906 127.453125 200.214844 127.453125 207.875 C 127.453125 215.539062 121.234375 221.75 113.5625 221.75 "/>
</g>
<path style=" stroke:none;fill-rule:nonzero;fill:rgb(10.198975%,10.198975%,10.198975%);fill-opacity:1;" d="M 57.511719 49.433594 C 53.21875 49.433594 48.984375 47.449219 46.265625 43.714844 C 41.757812 37.515625 43.132812 28.839844 49.335938 24.335938 C 51.804688 22.546875 54.660156 21.6875 57.492188 21.6875 C 61.785156 21.6875 66.019531 23.667969 68.738281 27.40625 C 73.25 33.605469 71.871094 42.277344 65.664062 46.78125 C 63.199219 48.570312 60.34375 49.433594 57.511719 49.433594 "/>
<path style=" stroke:none;fill-rule:nonzero;fill:rgb(59.999084%,59.999084%,59.999084%);fill-opacity:1;" d="M 169.632812 203.558594 C 165.339844 203.558594 161.105469 201.574219 158.386719 197.839844 C 153.875 191.640625 155.25 182.964844 161.457031 178.460938 C 163.921875 176.671875 166.78125 175.8125 169.613281 175.8125 C 173.90625 175.8125 178.140625 177.792969 180.859375 181.53125 C 185.371094 187.726562 183.992188 196.402344 177.785156 200.90625 C 175.320312 202.695312 172.464844 203.558594 169.632812 203.558594 "/>
<path style=" stroke:none;fill-rule:nonzero;fill:rgb(19.999695%,19.999695%,19.999695%);fill-opacity:1;" d="M 22.859375 97.0625 C 21.4375 97.0625 19.992188 96.84375 18.5625 96.378906 C 11.269531 94.015625 7.277344 86.1875 9.644531 78.898438 C 11.554688 73.039062 17 69.3125 22.851562 69.3125 C 24.273438 69.3125 25.71875 69.53125 27.148438 69.996094 C 34.441406 72.363281 38.433594 80.1875 36.066406 87.472656 C 34.15625 93.335938 28.710938 97.0625 22.859375 97.0625 "/>
<g clip-path="url(#clip3)" clip-rule="nonzero">
<path style=" stroke:none;fill-rule:nonzero;fill:rgb(69.799805%,69.799805%,69.799805%);fill-opacity:1;" d="M 204.273438 155.933594 C 202.851562 155.933594 201.402344 155.714844 199.976562 155.25 C 192.683594 152.882812 188.691406 145.058594 191.0625 137.769531 C 192.96875 131.910156 198.414062 128.183594 204.269531 128.183594 C 205.691406 128.183594 207.136719 128.402344 208.5625 128.863281 C 215.859375 131.234375 219.851562 139.058594 217.480469 146.34375 C 215.574219 152.207031 210.128906 155.933594 204.273438 155.933594 "/>
</g>
<path style=" stroke:none;fill-rule:nonzero;fill:rgb(30.198669%,30.198669%,30.198669%);fill-opacity:1;" d="M 22.851562 155.933594 C 16.996094 155.933594 11.554688 152.207031 9.644531 146.34375 C 7.277344 139.058594 11.269531 131.234375 18.5625 128.863281 C 19.988281 128.402344 21.4375 128.183594 22.859375 128.183594 C 28.714844 128.183594 34.15625 131.910156 36.066406 137.769531 C 38.433594 145.058594 34.441406 152.882812 27.148438 155.25 C 25.722656 155.714844 24.273438 155.933594 22.851562 155.933594 "/>
<g clip-path="url(#clip4)" clip-rule="nonzero">
<path style=" stroke:none;fill-rule:nonzero;fill:rgb(79.998779%,79.998779%,79.998779%);fill-opacity:1;" d="M 204.269531 97.0625 C 198.414062 97.0625 192.96875 93.335938 191.0625 87.472656 C 188.691406 80.1875 192.683594 72.363281 199.976562 69.996094 C 201.402344 69.53125 202.851562 69.3125 204.273438 69.3125 C 210.128906 69.3125 215.574219 73.039062 217.480469 78.898438 C 219.851562 86.1875 215.859375 94.015625 208.5625 96.378906 C 207.136719 96.84375 205.691406 97.0625 204.269531 97.0625 "/>
</g>
<path style=" stroke:none;fill-rule:nonzero;fill:rgb(39.99939%,39.99939%,39.99939%);fill-opacity:1;" d="M 57.492188 203.558594 C 54.660156 203.558594 51.804688 202.695312 49.335938 200.90625 C 43.132812 196.402344 41.757812 187.726562 46.265625 181.53125 C 48.984375 177.792969 53.21875 175.8125 57.511719 175.8125 C 60.34375 175.8125 63.199219 176.671875 65.664062 178.460938 C 71.871094 182.964844 73.25 191.640625 68.738281 197.839844 C 66.023438 201.574219 61.785156 203.558594 57.492188 203.558594 "/>
<path style=" stroke:none;fill-rule:nonzero;fill:rgb(89.7995%,89.7995%,89.7995%);fill-opacity:1;" d="M 169.613281 49.433594 C 166.78125 49.433594 163.921875 48.570312 161.457031 46.78125 C 155.25 42.277344 153.875 33.605469 158.386719 27.40625 C 161.105469 23.671875 165.339844 21.6875 169.632812 21.6875 C 172.464844 21.6875 175.320312 22.546875 177.785156 24.335938 C 183.992188 28.839844 185.371094 37.515625 180.859375 43.714844 C 178.140625 47.449219 173.90625 49.433594 169.613281 49.433594 "/>
</g>
</svg>
