<?xml version="1.0" encoding="UTF-8"?>
<svg xmlns="http://www.w3.org/2000/svg" xmlns:xlink="http://www.w3.org/1999/xlink" width="562.5pt" height="337.499995pt" viewBox="0 0 562.5 337.499995" version="1.2">
<defs>
<clipPath id="clip1">
  <path d="M 0.167969 268 L 561.835938 268 L 561.835938 325.167969 L 0.167969 325.167969 Z M 0.167969 268 "/>
</clipPath>
</defs>
<g id="surface1">
<g clip-path="url(#clip1)" clip-rule="nonzero">
<path style=" stroke:none;fill-rule:nonzero;fill:rgb(29.019165%,74.899292%,92.549133%);fill-opacity:1;" d="M 281.253906 325.179688 C 125.988281 325.179688 0.128906 312.433594 0.128906 296.707031 C 0.128906 280.980469 125.988281 268.226562 281.253906 268.226562 C 436.511719 268.226562 562.371094 280.980469 562.371094 296.707031 C 562.371094 312.433594 436.511719 325.179688 281.253906 325.179688 "/>
</g>
<path style=" stroke:none;fill-rule:nonzero;fill:rgb(93.728638%,66.668701%,19.60907%);fill-opacity:1;" d="M 185.703125 111.90625 C 185.703125 111.90625 149.234375 45.066406 171.78125 26.984375 C 182.046875 18.746094 206.859375 12.0625 223.507812 36.90625 C 232.023438 49.585938 227.601562 70.316406 202.003906 112.972656 L 185.703125 111.90625 "/>
<path style=" stroke:none;fill-rule:nonzero;fill:rgb(88.62915%,55.688477%,15.689087%);fill-opacity:1;" d="M 188.636719 105.210938 C 188.636719 105.210938 156.6875 43.570312 180.148438 35.292969 C 186.261719 33.144531 194.546875 40.851562 196.679688 66.503906 C 199.386719 99.175781 188.636719 105.210938 188.636719 105.210938 "/>
<path style=" stroke:none;fill-rule:nonzero;fill:rgb(93.728638%,66.668701%,19.60907%);fill-opacity:1;" d="M 195.9375 104.746094 C 195.9375 104.746094 218.890625 32.152344 247.554688 35.867188 C 260.617188 37.550781 282.636719 50.800781 276.25 80.015625 C 272.996094 94.9375 254.980469 106.117188 206.464844 117.226562 L 195.9375 104.746094 "/>
<path style=" stroke:none;fill-rule:nonzero;fill:rgb(88.62915%,55.688477%,15.689087%);fill-opacity:1;" d="M 202.804688 102.21875 C 202.804688 102.21875 225.140625 36.476562 247.355469 47.652344 C 253.15625 50.574219 253.324219 61.886719 236.304688 81.191406 C 214.617188 105.785156 202.804688 102.21875 202.804688 102.21875 "/>
<path style=" stroke:none;fill-rule:nonzero;fill:rgb(93.728638%,66.668701%,19.60907%);fill-opacity:1;" d="M 191.535156 106.789062 C 191.535156 106.789062 169.351562 33.957031 140.636719 37.371094 C 127.570312 38.929688 105.414062 51.941406 111.484375 81.222656 C 114.589844 96.167969 132.484375 107.542969 180.875 119.160156 L 191.535156 106.789062 "/>
<path style=" stroke:none;fill-rule:nonzero;fill:rgb(88.62915%,55.688477%,15.689087%);fill-opacity:1;" d="M 184.691406 104.191406 C 184.691406 104.191406 163.050781 38.21875 140.71875 49.167969 C 134.886719 52.011719 134.601562 63.324219 151.417969 82.808594 C 172.855469 107.632812 184.691406 104.191406 184.691406 104.191406 "/>
<path style=" stroke:none;fill-rule:nonzero;fill:rgb(93.728638%,19.219971%,41.958618%);fill-opacity:1;" d="M 279.828125 288.371094 L 105.609375 288.371094 L 105.609375 123.085938 L 279.828125 123.085938 L 279.828125 288.371094 "/>
<path style=" stroke:none;fill-rule:nonzero;fill:rgb(98.429871%,74.899292%,21.179199%);fill-opacity:1;" d="M 287.433594 108.136719 L 98.007812 108.136719 L 98.007812 138.039062 L 287.433594 138.039062 L 287.433594 108.136719 "/>
<path style=" stroke:none;fill-rule:nonzero;fill:rgb(17.248535%,32.939148%,61.959839%);fill-opacity:1;" d="M 289.230469 173.800781 C 289.230469 173.800781 312.179688 101.214844 340.84375 104.925781 C 353.902344 106.613281 375.917969 119.863281 369.542969 149.074219 C 366.277344 164 348.269531 175.179688 299.761719 186.289062 L 289.230469 173.800781 "/>
<path style=" stroke:none;fill-rule:nonzero;fill:rgb(13.729858%,26.269531%,49.409485%);fill-opacity:1;" d="M 296.09375 171.277344 C 296.09375 171.277344 318.425781 105.539062 340.644531 116.714844 C 346.445312 119.628906 346.621094 130.941406 329.589844 150.246094 C 307.902344 174.847656 296.09375 171.277344 296.09375 171.277344 "/>
<path style=" stroke:none;fill-rule:nonzero;fill:rgb(17.248535%,32.939148%,61.959839%);fill-opacity:1;" d="M 293.242188 174.117188 C 293.242188 174.117188 271.054688 101.289062 242.347656 104.703125 C 229.273438 106.253906 207.117188 119.269531 213.199219 148.550781 C 216.296875 163.5 234.1875 174.875 282.578125 186.492188 L 293.242188 174.117188 "/>
<path style=" stroke:none;fill-rule:nonzero;fill:rgb(13.729858%,26.269531%,49.409485%);fill-opacity:1;" d="M 286.402344 171.519531 C 286.402344 171.519531 264.753906 105.550781 242.417969 116.492188 C 236.59375 119.34375 236.304688 130.652344 253.128906 150.136719 C 274.558594 174.964844 286.402344 171.519531 286.402344 171.519531 "/>
<path style=" stroke:none;fill-rule:nonzero;fill:rgb(28.239441%,60.389709%,85.488892%);fill-opacity:1;" d="M 393.316406 288.371094 L 190.492188 288.371094 L 190.492188 197.332031 L 393.316406 197.332031 L 393.316406 288.371094 "/>
<path style=" stroke:none;fill-rule:nonzero;fill:rgb(18.818665%,36.468506%,68.238831%);fill-opacity:1;" d="M 399.109375 175.339844 L 184.691406 175.339844 L 184.691406 204.460938 L 399.109375 204.460938 L 399.109375 175.339844 "/>
<path style=" stroke:none;fill-rule:nonzero;fill:rgb(28.239441%,60.389709%,85.488892%);fill-opacity:1;" d="M 112.308594 186.757812 C 112.308594 179.96875 110.375 177.722656 98.960938 177.722656 C 97.179688 177.722656 89.710938 177.722656 89.710938 177.722656 L 83.121094 177.722656 C 83.121094 177.722656 73.789062 177.722656 72.011719 177.722656 C 67.023438 177.722656 64.695312 179.648438 63.085938 186.316406 L 61.15625 272.507812 L 112.308594 272.507812 L 112.308594 186.757812 "/>
<path style=" stroke:none;fill-rule:nonzero;fill:rgb(17.649841%,30.979919%,64.709473%);fill-opacity:1;" d="M 63.121094 272.507812 L 63.121094 282.679688 C 63.121094 287.417969 66.960938 291.265625 71.707031 291.265625 L 101.152344 291.265625 C 105.902344 291.265625 109.742188 287.417969 109.742188 282.679688 L 109.742188 272.507812 L 63.121094 272.507812 "/>
<path style=" stroke:none;fill-rule:nonzero;fill:rgb(96.078491%,45.098877%,51.759338%);fill-opacity:1;" d="M 102.929688 154.101562 C 102.929688 162.519531 95.703125 168.285156 88.300781 168.285156 C 81.167969 168.285156 73.667969 162.320312 73.667969 153.777344 L 73.667969 146.148438 C 73.667969 138.113281 80.222656 134.421875 88.300781 134.421875 C 96.394531 134.421875 102.929688 138.113281 102.929688 146.148438 L 102.929688 154.101562 "/>
<path style=" stroke:none;fill-rule:nonzero;fill:rgb(96.078491%,45.098877%,51.759338%);fill-opacity:1;" d="M 93.953125 179.515625 C 93.953125 179.515625 92.773438 182.5 88.210938 182.5 C 82.945312 182.5 82.476562 179.515625 82.476562 179.515625 L 82.476562 161.367188 L 93.953125 161.367188 L 93.953125 179.515625 "/>
<path style=" stroke:none;fill-rule:nonzero;fill:rgb(15.689087%,13.729858%,12.939453%);fill-opacity:1;" d="M 99.300781 159.089844 C 99.269531 159.671875 98.425781 160.492188 97.394531 159.828125 C 93.832031 157.5625 86.765625 155.171875 79.5 160.027344 C 78.316406 160.820312 77.21875 159.457031 76.960938 158.605469 C 76.589844 157.414062 76.402344 156.113281 76.402344 154.707031 C 76.390625 152.175781 76.359375 147.75 76.359375 147.75 L 76.316406 147.75 C 76.335938 147.546875 76.339844 147.332031 76.351562 147.117188 C 77.863281 147.414062 78.972656 147.582031 81.09375 147.582031 C 87.472656 147.582031 93.335938 141.304688 96.578125 142.367188 C 98.136719 142.875 99.3125 144.789062 99.3125 146.394531 C 99.3125 147.152344 99.3125 150.839844 99.3125 153.148438 C 99.3125 153.980469 99.3125 154.644531 99.3125 154.914062 C 99.3125 156.210938 99.300781 158.945312 99.300781 159.089844 Z M 88.710938 166.507812 C 85.527344 166.507812 80.734375 165.078125 80.734375 163.289062 C 80.734375 162.335938 85.011719 159.917969 88.664062 159.917969 C 93.535156 159.917969 96.839844 162.425781 96.839844 163.5 C 96.839844 164.992188 93.144531 166.507812 88.710938 166.507812 Z M 88.136719 130.882812 C 80.382812 130.882812 76.113281 137.085938 76.113281 137.085938 C 74.929688 139.253906 68.191406 137.238281 68.191406 137.238281 C 68.34375 140.613281 68.914062 144.1875 73.136719 146.125 L 73.136719 155.484375 L 73.171875 155.46875 C 73.601562 163.378906 80.355469 169.667969 88.648438 169.667969 C 96.871094 169.667969 103.582031 163.480469 104.109375 155.664062 L 104.15625 155.636719 L 104.15625 145.558594 C 104.15625 137.324219 95.894531 130.882812 88.136719 130.882812 "/>
<path style=" stroke:none;fill-rule:nonzero;fill:rgb(96.078491%,45.098877%,51.759338%);fill-opacity:1;" d="M 128.644531 229.773438 L 115.273438 184.875 C 113.894531 180.492188 109.4375 179.171875 106.195312 180.078125 C 102.949219 180.992188 99.914062 185.003906 101.210938 189.128906 L 116.140625 229.773438 L 128.644531 229.773438 "/>
<path style=" stroke:none;fill-rule:nonzero;fill:rgb(16.079712%,52.938843%,81.568909%);fill-opacity:1;" d="M 120.746094 199.558594 L 115.597656 183.90625 C 114.234375 179.765625 109.777344 177.511719 105.628906 178.878906 C 101.488281 180.238281 99.242188 184.695312 100.59375 188.835938 L 105.75 204.488281 L 120.746094 199.558594 "/>
<path style=" stroke:none;fill-rule:nonzero;fill:rgb(96.078491%,45.098877%,51.759338%);fill-opacity:1;" d="M 116.140625 229.773438 L 88.300781 244.007812 L 90.671875 253.230469 C 90.671875 253.230469 131.8125 241.8125 128.644531 229.773438 L 122.148438 229.046875 L 116.140625 229.773438 "/>
<path style=" stroke:none;fill-rule:nonzero;fill:rgb(96.078491%,45.098877%,51.759338%);fill-opacity:1;" d="M 45.828125 229.773438 L 59.191406 184.875 C 60.574219 180.492188 65.03125 179.171875 68.273438 180.078125 C 71.523438 180.992188 74.554688 185.003906 73.261719 189.128906 L 58.324219 229.773438 L 45.828125 229.773438 "/>
<path style=" stroke:none;fill-rule:nonzero;fill:rgb(16.079712%,52.938843%,81.568909%);fill-opacity:1;" d="M 53.722656 199.558594 L 58.871094 183.90625 C 60.238281 179.765625 64.695312 177.511719 68.84375 178.878906 C 72.980469 180.238281 75.230469 184.695312 73.875 188.835938 L 68.714844 204.488281 L 53.722656 199.558594 "/>
<path style=" stroke:none;fill-rule:nonzero;fill:rgb(96.078491%,45.098877%,51.759338%);fill-opacity:1;" d="M 58.324219 229.773438 L 86.171875 244.007812 L 83.800781 253.230469 C 83.800781 253.230469 42.664062 241.8125 45.828125 229.773438 L 52.324219 229.046875 L 58.324219 229.773438 "/>
<path style=" stroke:none;fill-rule:nonzero;fill:rgb(15.689087%,13.729858%,12.939453%);fill-opacity:1;" d="M 117.082031 269.722656 C 117.082031 271.183594 115.894531 272.359375 114.441406 272.359375 L 60.242188 272.359375 C 58.785156 272.359375 57.605469 271.183594 57.605469 269.722656 L 57.605469 229.578125 C 57.605469 228.121094 58.785156 226.945312 60.242188 226.945312 L 114.441406 226.945312 C 115.894531 226.945312 117.082031 228.121094 117.082031 229.578125 L 117.082031 269.722656 "/>
<path style=" stroke:none;fill-rule:nonzero;fill:rgb(23.529053%,20.779419%,19.999695%);fill-opacity:1;" d="M 122.390625 276.949219 C 122.390625 278.109375 121.449219 279.058594 120.28125 279.058594 L 55.546875 279.058594 C 54.386719 279.058594 53.4375 278.109375 53.4375 276.949219 L 53.4375 274.46875 C 53.4375 273.308594 54.386719 272.359375 55.546875 272.359375 L 120.28125 272.359375 C 121.449219 272.359375 122.390625 273.308594 122.390625 274.46875 L 122.390625 276.949219 "/>
<path style=" stroke:none;fill-rule:nonzero;fill:rgb(28.239441%,60.389709%,85.488892%);fill-opacity:1;" d="M 96.941406 284.273438 C 96.941406 284.273438 104.289062 284.777344 106.75 284.765625 C 114.746094 284.726562 119.492188 284.546875 119.492188 284.546875 C 122.925781 284.546875 125.65625 287.054688 125.65625 290.484375 C 125.65625 293.917969 122.867188 296.707031 119.429688 296.707031 L 96.941406 296.707031 L 96.941406 284.273438 "/>
<path style=" stroke:none;fill-rule:nonzero;fill:rgb(18.818665%,36.468506%,68.238831%);fill-opacity:1;" d="M 103.585938 296.707031 L 106.253906 284.273438 L 53.132812 261.214844 C 47.949219 259.589844 40.46875 256.597656 35.988281 265.1875 C 33.472656 269.992188 32.664062 277.871094 42.839844 281.046875 L 89.042969 296.707031 L 103.585938 296.707031 "/>
<path style=" stroke:none;fill-rule:nonzero;fill:rgb(16.079712%,52.938843%,81.568909%);fill-opacity:1;" d="M 69.09375 285.179688 C 69.09375 285.179688 52.234375 284.78125 46.59375 284.273438 C 43.183594 283.957031 40.382812 287.054688 40.382812 290.484375 C 40.382812 293.917969 43.160156 296.707031 46.59375 296.707031 L 69.09375 296.707031 L 69.09375 285.179688 "/>
<path style=" stroke:none;fill-rule:nonzero;fill:rgb(18.818665%,36.468506%,68.238831%);fill-opacity:1;" d="M 124.246094 274.703125 L 65.84375 283.453125 L 65.84375 296.707031 L 128.140625 296.707031 C 138.789062 296.707031 140.378906 288.941406 139.414062 283.609375 C 137.699219 274.074219 129.667969 274.703125 124.246094 274.703125 "/>
<path style=" stroke:none;fill-rule:nonzero;fill:rgb(18.818665%,36.468506%,68.238831%);fill-opacity:1;" d="M 22.292969 66.242188 L 100.015625 66.242188 L 100.015625 114.6875 L 54.402344 114.6875 L 62.191406 130.25 L 37.261719 114.6875 L 22.292969 114.6875 L 22.292969 66.242188 "/>
<path style=" stroke:none;fill-rule:nonzero;fill:rgb(93.728638%,19.219971%,41.958618%);fill-opacity:1;" d="M 327.734375 201.382812 C 325.660156 201.382812 323.984375 199.710938 323.984375 197.640625 C 323.984375 195.578125 325.660156 193.90625 327.734375 193.90625 C 329.796875 193.90625 331.464844 195.578125 331.464844 197.640625 C 331.464844 199.710938 329.796875 201.382812 327.734375 201.382812 Z M 352.757812 199.382812 L 338.234375 189.273438 L 317.328125 189.273438 L 302.515625 199.449219 L 302.515625 259.597656 L 352.757812 259.597656 L 352.757812 199.382812 "/>
<path style=" stroke:none;fill-rule:nonzero;fill:rgb(100%,100%,100%);fill-opacity:1;" d="M 339.402344 235.316406 C 339.402344 234.554688 339.367188 233.855469 339.296875 233.210938 C 339.226562 232.574219 339.117188 232.023438 338.957031 231.5625 C 338.785156 231.097656 338.578125 230.734375 338.308594 230.472656 C 338.042969 230.203125 337.707031 230.070312 337.300781 230.070312 C 336.890625 230.070312 336.554688 230.203125 336.289062 230.472656 C 336.019531 230.734375 335.804688 231.097656 335.644531 231.5625 C 335.480469 232.023438 335.363281 232.574219 335.300781 233.210938 C 335.230469 233.855469 335.195312 234.554688 335.195312 235.316406 C 335.195312 236.0625 335.230469 236.761719 335.300781 237.40625 C 335.363281 238.054688 335.480469 238.609375 335.644531 239.070312 C 335.804688 239.53125 336.019531 239.898438 336.289062 240.164062 C 336.554688 240.429688 336.890625 240.558594 337.300781 240.558594 C 337.707031 240.558594 338.042969 240.429688 338.308594 240.164062 C 338.578125 239.898438 338.785156 239.53125 338.957031 239.070312 C 339.117188 238.609375 339.226562 238.054688 339.296875 237.40625 C 339.367188 236.761719 339.402344 236.0625 339.402344 235.316406 Z M 330.746094 235.316406 C 330.746094 233.820312 330.90625 232.515625 331.222656 231.40625 C 331.539062 230.296875 331.992188 229.378906 332.574219 228.640625 C 333.148438 227.910156 333.839844 227.363281 334.644531 227 C 335.445312 226.636719 336.335938 226.457031 337.300781 226.457031 C 338.265625 226.457031 339.148438 226.636719 339.953125 227 C 340.757812 227.363281 341.449219 227.910156 342.023438 228.640625 C 342.605469 229.378906 343.050781 230.296875 343.371094 231.40625 C 343.691406 232.515625 343.855469 233.820312 343.855469 235.316406 C 343.855469 236.800781 343.691406 238.097656 343.371094 239.207031 C 343.050781 240.316406 342.605469 241.234375 342.023438 241.96875 C 341.449219 242.703125 340.757812 243.253906 339.953125 243.621094 C 339.148438 243.992188 338.265625 244.171875 337.300781 244.171875 C 336.335938 244.171875 335.445312 243.992188 334.644531 243.621094 C 333.839844 243.253906 333.148438 242.703125 332.574219 241.96875 C 331.992188 241.234375 331.539062 240.316406 331.222656 239.207031 C 330.90625 238.097656 330.746094 236.800781 330.746094 235.316406 Z M 338.75 217.890625 L 318.820312 244.582031 L 316.164062 242.539062 L 336.097656 215.847656 Z M 319.761719 224.90625 C 319.761719 224.148438 319.726562 223.449219 319.65625 222.804688 C 319.585938 222.167969 319.476562 221.613281 319.308594 221.15625 C 319.144531 220.691406 318.929688 220.324219 318.667969 220.0625 C 318.402344 219.796875 318.066406 219.664062 317.65625 219.664062 C 317.25 219.664062 316.910156 219.796875 316.648438 220.0625 C 316.378906 220.324219 316.164062 220.691406 316 221.15625 C 315.839844 221.613281 315.722656 222.167969 315.660156 222.804688 C 315.589844 223.449219 315.554688 224.148438 315.554688 224.90625 C 315.554688 225.65625 315.589844 226.355469 315.660156 227 C 315.722656 227.648438 315.839844 228.199219 316 228.664062 C 316.164062 229.125 316.378906 229.488281 316.648438 229.757812 C 316.910156 230.023438 317.25 230.152344 317.65625 230.152344 C 318.066406 230.152344 318.402344 230.023438 318.667969 229.757812 C 318.929688 229.488281 319.144531 229.125 319.308594 228.664062 C 319.476562 228.199219 319.585938 227.648438 319.65625 227 C 319.726562 226.355469 319.761719 225.65625 319.761719 224.90625 Z M 311.101562 224.90625 C 311.101562 223.414062 311.261719 222.109375 311.578125 221 C 311.898438 219.890625 312.351562 218.972656 312.929688 218.234375 C 313.507812 217.503906 314.199219 216.957031 315.003906 216.589844 C 315.804688 216.230469 316.695312 216.050781 317.65625 216.050781 C 318.621094 216.050781 319.507812 216.230469 320.308594 216.589844 C 321.117188 216.957031 321.800781 217.503906 322.382812 218.234375 C 322.964844 218.972656 323.410156 219.890625 323.730469 221 C 324.050781 222.109375 324.210938 223.414062 324.210938 224.90625 C 324.210938 226.394531 324.050781 227.691406 323.730469 228.796875 C 323.410156 229.90625 322.964844 230.824219 322.382812 231.5625 C 321.800781 232.292969 321.117188 232.847656 320.308594 233.210938 C 319.507812 233.585938 318.621094 233.765625 317.65625 233.765625 C 316.695312 233.765625 315.804688 233.585938 315.003906 233.210938 C 314.199219 232.847656 313.507812 232.292969 312.929688 231.5625 C 312.351562 230.824219 311.898438 229.90625 311.578125 228.796875 C 311.261719 227.691406 311.101562 226.394531 311.101562 224.90625 "/>
<path style=" stroke:none;fill-rule:nonzero;fill:rgb(98.429871%,74.899292%,21.179199%);fill-opacity:1;" d="M 327.628906 201.386719 C 326.757812 201.386719 326.054688 200.980469 326.054688 200.980469 L 326.054688 168.058594 C 326.054688 167.1875 326.757812 166.480469 327.628906 166.480469 C 328.5 166.480469 329.214844 167.1875 329.214844 168.058594 L 329.214844 201.074219 C 328.761719 201.304688 328.5 201.386719 327.628906 201.386719 "/>
<path style=" stroke:none;fill-rule:nonzero;fill:rgb(28.239441%,60.389709%,85.488892%);fill-opacity:1;" d="M 190.589844 140.113281 C 188.519531 140.113281 186.847656 138.441406 186.847656 136.371094 C 186.847656 134.3125 188.519531 132.636719 190.589844 132.636719 C 192.660156 132.636719 194.324219 134.3125 194.324219 136.371094 C 194.324219 138.441406 192.660156 140.113281 190.589844 140.113281 Z M 215.617188 138.121094 L 201.097656 128.003906 L 180.183594 128.003906 L 165.371094 138.179688 L 165.371094 198.328125 L 215.617188 198.328125 L 215.617188 138.121094 "/>
<path style=" stroke:none;fill-rule:nonzero;fill:rgb(100%,100%,100%);fill-opacity:1;" d="M 202.257812 174.046875 C 202.257812 173.285156 202.230469 172.589844 202.160156 171.949219 C 202.089844 171.304688 201.972656 170.757812 201.808594 170.292969 C 201.648438 169.828125 201.433594 169.46875 201.164062 169.203125 C 200.902344 168.933594 200.566406 168.808594 200.160156 168.808594 C 199.746094 168.808594 199.410156 168.933594 199.144531 169.203125 C 198.882812 169.46875 198.667969 169.828125 198.503906 170.292969 C 198.339844 170.757812 198.226562 171.304688 198.15625 171.949219 C 198.085938 172.589844 198.058594 173.285156 198.058594 174.046875 C 198.058594 174.792969 198.085938 175.496094 198.15625 176.140625 C 198.226562 176.785156 198.339844 177.34375 198.503906 177.804688 C 198.667969 178.269531 198.882812 178.628906 199.144531 178.894531 C 199.410156 179.160156 199.746094 179.296875 200.160156 179.296875 C 200.566406 179.296875 200.902344 179.160156 201.164062 178.894531 C 201.433594 178.628906 201.648438 178.269531 201.808594 177.804688 C 201.972656 177.34375 202.089844 176.785156 202.160156 176.140625 C 202.230469 175.496094 202.257812 174.792969 202.257812 174.046875 Z M 193.605469 174.046875 C 193.605469 172.554688 193.761719 171.253906 194.082031 170.144531 C 194.402344 169.035156 194.847656 168.109375 195.429688 167.378906 C 196.011719 166.640625 196.703125 166.09375 197.503906 165.734375 C 198.304688 165.375 199.191406 165.195312 200.160156 165.195312 C 201.125 165.195312 202.007812 165.375 202.808594 165.734375 C 203.613281 166.09375 204.304688 166.640625 204.882812 167.378906 C 205.460938 168.109375 205.914062 169.035156 206.234375 170.144531 C 206.550781 171.253906 206.710938 172.554688 206.710938 174.046875 C 206.710938 175.53125 206.550781 176.828125 206.234375 177.9375 C 205.914062 179.046875 205.460938 179.96875 204.882812 180.699219 C 204.304688 181.4375 203.613281 181.992188 202.808594 182.355469 C 202.007812 182.722656 201.125 182.902344 200.160156 182.902344 C 199.191406 182.902344 198.304688 182.722656 197.503906 182.355469 C 196.703125 181.992188 196.011719 181.4375 195.429688 180.699219 C 194.847656 179.96875 194.402344 179.046875 194.082031 177.9375 C 193.761719 176.828125 193.605469 175.53125 193.605469 174.046875 Z M 201.605469 156.625 L 181.675781 183.316406 L 179.027344 181.269531 L 198.953125 154.578125 Z M 182.617188 163.640625 C 182.617188 162.878906 182.582031 162.179688 182.519531 161.542969 C 182.449219 160.898438 182.332031 160.351562 182.167969 159.886719 C 182.007812 159.421875 181.792969 159.0625 181.523438 158.796875 C 181.261719 158.527344 180.921875 158.398438 180.511719 158.398438 C 180.105469 158.398438 179.769531 158.527344 179.503906 158.796875 C 179.242188 159.0625 179.027344 159.421875 178.863281 159.886719 C 178.695312 160.351562 178.585938 160.898438 178.515625 161.542969 C 178.445312 162.179688 178.410156 162.878906 178.410156 163.640625 C 178.410156 164.386719 178.445312 165.089844 178.515625 165.734375 C 178.585938 166.378906 178.695312 166.9375 178.863281 167.394531 C 179.027344 167.859375 179.242188 168.222656 179.503906 168.488281 C 179.769531 168.753906 180.105469 168.886719 180.511719 168.886719 C 180.921875 168.886719 181.261719 168.753906 181.523438 168.488281 C 181.792969 168.222656 182.007812 167.859375 182.167969 167.394531 C 182.332031 166.9375 182.449219 166.378906 182.519531 165.734375 C 182.582031 165.089844 182.617188 164.386719 182.617188 163.640625 Z M 173.957031 163.640625 C 173.957031 162.144531 174.121094 160.84375 174.441406 159.734375 C 174.761719 158.625 175.207031 157.703125 175.789062 156.972656 C 176.363281 156.234375 177.054688 155.6875 177.863281 155.328125 C 178.664062 154.96875 179.546875 154.789062 180.511719 154.789062 C 181.476562 154.789062 182.367188 154.96875 183.167969 155.328125 C 183.972656 155.6875 184.664062 156.234375 185.242188 156.972656 C 185.820312 157.703125 186.273438 158.625 186.589844 159.734375 C 186.910156 160.84375 187.066406 162.144531 187.066406 163.640625 C 187.066406 165.125 186.910156 166.421875 186.589844 167.53125 C 186.273438 168.640625 185.820312 169.5625 185.242188 170.292969 C 184.664062 171.03125 183.972656 171.582031 183.167969 171.949219 C 182.367188 172.316406 181.476562 172.496094 180.511719 172.496094 C 179.546875 172.496094 178.664062 172.316406 177.863281 171.949219 C 177.054688 171.582031 176.363281 171.03125 175.789062 170.292969 C 175.207031 169.5625 174.761719 168.640625 174.441406 167.53125 C 174.121094 166.421875 173.957031 165.125 173.957031 163.640625 "/>
<path style=" stroke:none;fill-rule:nonzero;fill:rgb(100%,100%,100%);fill-opacity:1;" d="M 190.492188 140.125 C 189.617188 140.125 188.910156 139.71875 188.910156 139.71875 L 188.910156 106.789062 C 188.910156 105.917969 189.617188 105.210938 190.492188 105.210938 C 191.363281 105.210938 192.070312 105.917969 192.070312 106.789062 L 192.070312 139.804688 C 191.625 140.035156 191.363281 140.125 190.492188 140.125 "/>
<path style=" stroke:none;fill-rule:nonzero;fill:rgb(17.649841%,30.979919%,64.709473%);fill-opacity:1;" d="M 434.035156 259.566406 L 544.84375 277.890625 L 544.84375 287.507812 L 419.167969 287.882812 L 434.035156 259.566406 "/>
<path style=" stroke:none;fill-rule:nonzero;fill:rgb(98.429871%,74.899292%,21.179199%);fill-opacity:1;" d="M 520.929688 287.882812 C 526.910156 286.007812 524.933594 279.542969 522.792969 279.515625 C 521.210938 279.5 519.355469 279.464844 517.089844 279.464844 C 513.75 279.464844 511.355469 277.90625 511.570312 277.90625 L 502.191406 277.90625 C 501.953125 278.097656 501.738281 278.457031 501.617188 279.089844 L 501.570312 287.882812 L 520.929688 287.882812 "/>
<path style=" stroke:none;fill-rule:nonzero;fill:rgb(98.429871%,74.899292%,21.179199%);fill-opacity:1;" d="M 554.828125 268.535156 C 552.949219 262.558594 546.476562 264.53125 546.449219 266.675781 C 546.429688 268.253906 546.394531 270.109375 546.394531 272.371094 C 546.394531 275.71875 544.84375 278.105469 544.84375 277.890625 L 544.84375 287.269531 C 545.035156 287.507812 545.394531 287.714844 546.027344 287.835938 L 554.828125 287.882812 L 554.828125 268.535156 "/>
<path style=" stroke:none;fill-rule:nonzero;fill:rgb(98.429871%,74.899292%,21.179199%);fill-opacity:1;" d="M 436.097656 258.230469 C 433.808594 225.335938 433.925781 196.386719 425.625 175.597656 C 423.988281 171.496094 421.914062 167.9375 418.042969 166.761719 C 414.644531 165.734375 413.277344 165.890625 408.9375 163.910156 C 408.9375 163.910156 403.40625 162.984375 397.167969 171.675781 C 388.726562 183.453125 385.722656 213.867188 386.382812 258.230469 L 436.097656 258.230469 "/>
<path style=" stroke:none;fill-rule:nonzero;fill:rgb(18.818665%,36.468506%,68.238831%);fill-opacity:1;" d="M 471.5625 210.273438 L 474.003906 211.039062 L 479.933594 192.148438 L 477.496094 191.386719 L 471.5625 210.273438 "/>
<path style=" stroke:none;fill-rule:nonzero;fill:rgb(96.078491%,45.098877%,51.759338%);fill-opacity:1;" d="M 469.0625 212.484375 C 468.195312 210.726562 466.179688 209.925781 464.378906 210.546875 L 436.042969 221.796875 L 430 211.703125 L 430 231.953125 C 431.65625 233.433594 434.109375 233.800781 436.15625 232.804688 L 466.710938 215.367188 C 468.609375 214.4375 469.992188 214.390625 469.0625 212.484375 "/>
<path style=" stroke:none;fill-rule:nonzero;fill:rgb(97.648621%,67.059326%,21.179199%);fill-opacity:1;" d="M 457.65625 210.808594 L 436.160156 218.816406 L 419.167969 189.988281 L 410.726562 177.613281 C 408.820312 174.324219 404.613281 173.203125 401.332031 175.101562 C 398.042969 177 396.917969 181.207031 398.8125 184.488281 C 398.8125 184.488281 404.121094 193.644531 405.851562 196.800781 C 410.703125 205.636719 425.394531 230.164062 425.394531 230.164062 C 426.914062 232.578125 431.566406 235.609375 436.15625 232.804688 L 462.378906 219.59375 C 462.378906 219.59375 458.636719 212.765625 457.65625 210.808594 "/>
<path style=" stroke:none;fill-rule:nonzero;fill:rgb(96.078491%,45.098877%,51.759338%);fill-opacity:1;" d="M 408.210938 152.277344 L 408.210938 165.210938 C 408.210938 167.710938 413.074219 169.738281 415.574219 169.738281 C 417.277344 169.738281 418.246094 168.859375 418.246094 165.210938 L 418.246094 152.277344 L 408.210938 152.277344 "/>
<path style=" stroke:none;fill-rule:nonzero;fill:rgb(96.078491%,45.098877%,51.759338%);fill-opacity:1;" d="M 427.878906 145.960938 C 427.089844 144.289062 426.746094 142.417969 426.644531 140.722656 L 426.664062 140.558594 C 426.960938 138.351562 428.753906 135.058594 428.199219 133.441406 C 426.804688 129.257812 420.890625 126.800781 415.132812 126.023438 C 407.816406 125.035156 402.183594 129.570312 400.773438 140.027344 C 400.039062 145.4375 403.292969 151.375 407.09375 152.59375 C 409.988281 153.515625 415.542969 155.519531 416.074219 155.707031 C 419.589844 156.960938 421.355469 157.191406 422.882812 154.71875 C 424.089844 152.75 424.207031 152.570312 425.371094 150.160156 C 425.96875 148.941406 426.410156 147.878906 427.1875 147.980469 C 429.089844 148.242188 428.082031 146.371094 427.878906 145.960938 "/>
<path style=" stroke:none;fill-rule:nonzero;fill:rgb(15.689087%,13.729858%,12.939453%);fill-opacity:1;" d="M 422.523438 125.078125 C 419.203125 123.707031 411.628906 121.464844 405.410156 126.503906 C 395.996094 134.140625 398.617188 146.441406 400.765625 149.824219 C 402.683594 152.847656 407.414062 153.207031 407.484375 152.714844 C 407.628906 151.628906 407.6875 151.179688 407.925781 149.457031 C 408.023438 148.714844 408.320312 149.054688 407.066406 147.203125 C 404.765625 143.828125 406.710938 141.988281 407.441406 142.085938 C 408.808594 142.273438 408.652344 144.855469 411.882812 139.878906 C 413.96875 136.667969 415.484375 135.808594 420.496094 136.414062 C 423.648438 136.789062 426.210938 135.4375 428.015625 134.945312 C 436.078125 132.738281 428.339844 127.480469 422.523438 125.078125 "/>
<path style=" stroke:none;fill-rule:nonzero;fill:rgb(96.078491%,45.098877%,51.759338%);fill-opacity:1;" d="M 464.722656 210.238281 L 463.460938 210.90625 L 466.132812 215.691406 L 467.332031 215.039062 C 468.933594 215.417969 472.742188 214.117188 474.445312 212.636719 C 477.121094 210.3125 477.847656 206.625 476.390625 205.335938 C 474.914062 204.011719 472.597656 205.128906 470.097656 207.121094 C 469.691406 207.460938 469.203125 207.515625 469.5 206.804688 C 470.097656 205.394531 470.054688 204.550781 469.601562 204.367188 C 468.921875 204.09375 465.652344 207.234375 464.722656 210.238281 "/>
<path style=" stroke:none;fill-rule:nonzero;fill:rgb(18.818665%,36.468506%,68.238831%);fill-opacity:1;" d="M 514.214844 278.546875 C 509.125 261.769531 500.441406 218.148438 493.207031 216.371094 C 475.75 212.074219 436.023438 257.085938 436.023438 257.085938 L 386.378906 257.582031 C 386.378906 257.582031 381.816406 287.546875 393.835938 287.546875 C 393.835938 287.546875 424.859375 288.964844 437.328125 287.175781 C 449.207031 285.46875 485.9375 243.027344 485.9375 243.027344 L 500.882812 278.617188 L 514.214844 278.546875 "/>
<path style=" stroke:none;fill-rule:nonzero;fill:rgb(93.728638%,19.219971%,41.958618%);fill-opacity:1;" d="M 488.394531 136.941406 L 488.390625 136.941406 C 489.722656 134.078125 490.46875 130.890625 490.46875 127.523438 C 490.46875 115.167969 480.453125 105.15625 468.085938 105.15625 C 455.734375 105.15625 445.714844 115.167969 445.714844 127.523438 C 445.714844 130.929688 446.480469 134.164062 447.847656 137.058594 L 447.839844 137.058594 L 447.871094 137.105469 C 448.453125 138.335938 468 171.117188 468 171.117188 C 468 171.117188 487.738281 138.335938 488.390625 136.953125 L 488.394531 136.941406 "/>
<path style=" stroke:none;fill-rule:nonzero;fill:rgb(100%,100%,100%);fill-opacity:1;" d="M 481.410156 127.371094 C 481.410156 135.019531 475.203125 141.222656 467.550781 141.222656 C 459.894531 141.222656 453.691406 135.019531 453.691406 127.371094 C 453.691406 119.722656 459.894531 113.519531 467.550781 113.519531 C 475.203125 113.519531 481.410156 119.722656 481.410156 127.371094 "/>
</g>
</svg>
