<?xml version="1.0" encoding="UTF-8"?>
<svg xmlns="http://www.w3.org/2000/svg" xmlns:xlink="http://www.w3.org/1999/xlink" width="300pt" height="299.999988pt" viewBox="0 0 300 299.999988" version="1.2">
<defs>
<clipPath id="clip1">
  <path d="M 25 283 L 170 283 L 170 285.1875 L 25 285.1875 Z M 25 283 "/>
</clipPath>
<clipPath id="clip2">
  <path d="M 37 15.1875 L 104 15.1875 L 104 41 L 37 41 Z M 37 15.1875 "/>
</clipPath>
</defs>
<g id="surface1">
<path style=" stroke:none;fill-rule:nonzero;fill:rgb(98.429871%,74.899292%,21.179199%);fill-opacity:1;" d="M 225.648438 154.984375 L 95.644531 154.984375 L 95.644531 64.429688 L 225.648438 64.429688 L 225.648438 154.984375 "/>
<path style=" stroke:none;fill-rule:nonzero;fill:rgb(93.728638%,19.219971%,41.958618%);fill-opacity:1;" d="M 160.582031 106.652344 C 160.582031 106.652344 171.230469 76.480469 183.183594 78.453125 C 188.625 79.347656 197.660156 85.230469 194.566406 97.414062 C 192.988281 103.640625 185.28125 108.078125 164.8125 112.050781 L 160.582031 106.652344 "/>
<path style=" stroke:none;fill-rule:nonzero;fill:rgb(77.648926%,15.289307%,31.759644%);fill-opacity:1;" d="M 163.492188 105.691406 C 163.492188 105.691406 173.785156 78.386719 182.933594 83.402344 C 185.3125 84.714844 185.226562 89.46875 177.820312 97.335938 C 168.382812 107.355469 163.492188 105.691406 163.492188 105.691406 "/>
<path style=" stroke:none;fill-rule:nonzero;fill:rgb(93.728638%,19.219971%,41.958618%);fill-opacity:1;" d="M 155.011719 110.710938 C 155.011719 110.710938 139.734375 82.613281 149.175781 75.011719 C 153.476562 71.546875 163.875 68.738281 170.851562 79.179688 C 174.417969 84.515625 172.570312 93.230469 161.84375 111.160156 L 155.011719 110.710938 "/>
<path style=" stroke:none;fill-rule:nonzero;fill:rgb(77.648926%,15.289307%,31.759644%);fill-opacity:1;" d="M 156.242188 107.902344 C 156.242188 107.902344 142.855469 81.980469 152.683594 78.507812 C 155.246094 77.597656 158.714844 80.84375 159.613281 91.625 C 160.746094 105.363281 156.242188 107.902344 156.242188 107.902344 "/>
<path style=" stroke:none;fill-rule:nonzero;fill:rgb(93.728638%,19.219971%,41.958618%);fill-opacity:1;" d="M 159.796875 106.769531 C 159.796875 106.769531 140.992188 80.90625 130.097656 86.21875 C 125.140625 88.640625 118.160156 96.859375 124.59375 107.65625 C 127.878906 113.164062 136.527344 115.214844 157.277344 113.152344 L 159.796875 106.769531 "/>
<path style=" stroke:none;fill-rule:nonzero;fill:rgb(77.648926%,15.289307%,31.759644%);fill-opacity:1;" d="M 156.730469 106.683594 C 156.730469 106.683594 139.082031 83.464844 131.75 90.886719 C 129.835938 92.828125 131.277344 97.359375 140.617188 102.777344 C 152.519531 109.683594 156.730469 106.683594 156.730469 106.683594 "/>
<path style=" stroke:none;fill-rule:nonzero;fill:rgb(93.728638%,19.219971%,41.958618%);fill-opacity:1;" d="M 161.277344 113.488281 C 161.277344 113.488281 181.714844 138.066406 192.246094 132.050781 C 197.035156 129.3125 203.464844 120.65625 196.339844 110.308594 C 192.710938 105.023438 183.949219 103.542969 163.375 106.957031 L 161.277344 113.488281 "/>
<path style=" stroke:none;fill-rule:nonzero;fill:rgb(77.648926%,15.289307%,31.759644%);fill-opacity:1;" d="M 164.339844 113.378906 C 164.339844 113.378906 183.453125 135.390625 190.292969 127.496094 C 192.074219 125.445312 190.34375 121.015625 180.671875 116.214844 C 168.347656 110.105469 164.339844 113.378906 164.339844 113.378906 "/>
<path style=" stroke:none;fill-rule:nonzero;fill:rgb(93.728638%,19.219971%,41.958618%);fill-opacity:1;" d="M 156.324219 108.789062 C 156.324219 108.789062 145.765625 138.992188 156.308594 144.96875 C 161.113281 147.691406 171.824219 148.777344 177.03125 137.347656 C 179.6875 131.503906 176.460938 123.207031 162.992188 107.242188 L 156.324219 108.789062 "/>
<path style=" stroke:none;fill-rule:nonzero;fill:rgb(77.648926%,15.289307%,31.759644%);fill-opacity:1;" d="M 157.992188 111.367188 C 157.992188 111.367188 148.949219 139.109375 159.207031 140.949219 C 161.886719 141.433594 164.78125 137.664062 163.933594 126.882812 C 162.847656 113.140625 157.992188 111.367188 157.992188 111.367188 "/>
<path style=" stroke:none;fill-rule:nonzero;fill:rgb(93.728638%,19.219971%,41.958618%);fill-opacity:1;" d="M 161.277344 113.109375 C 161.277344 113.109375 146.382812 141.417969 134.839844 137.734375 C 129.585938 136.054688 121.5 128.921875 126.3125 117.320312 C 128.777344 111.386719 137.039062 108.117188 157.871094 107.15625 L 161.277344 113.109375 "/>
<path style=" stroke:none;fill-rule:nonzero;fill:rgb(77.648926%,15.289307%,31.759644%);fill-opacity:1;" d="M 158.253906 113.640625 C 158.253906 113.640625 144.132812 139.160156 135.808594 132.867188 C 133.632812 131.230469 134.410156 126.539062 142.871094 119.832031 C 153.65625 111.28125 158.253906 113.640625 158.253906 113.640625 "/>
<path style=" stroke:none;fill-rule:nonzero;fill:rgb(77.648926%,15.289307%,31.759644%);fill-opacity:1;" d="M 166.636719 109.386719 C 166.636719 112.746094 163.925781 115.457031 160.582031 115.457031 C 157.234375 115.457031 154.527344 112.746094 154.527344 109.386719 C 154.527344 106.03125 157.234375 103.3125 160.582031 103.3125 C 163.925781 103.3125 166.636719 106.03125 166.636719 109.386719 "/>
<path style=" stroke:none;fill-rule:nonzero;fill:rgb(34.899902%,79.219055%,96.078491%);fill-opacity:1;" d="M 225.953125 252.347656 L 89.433594 252.347656 L 72.15625 147.078125 L 244.960938 147.078125 L 225.953125 252.347656 "/>
<path style=" stroke:none;fill-rule:nonzero;fill:rgb(28.239441%,60.389709%,85.488892%);fill-opacity:1;" d="M 250.578125 158.769531 L 66.539062 158.769531 L 66.539062 136.132812 L 250.578125 136.132812 L 250.578125 158.769531 "/>
<path style=" stroke:none;fill-rule:nonzero;fill:rgb(28.239441%,60.389709%,85.488892%);fill-opacity:1;" d="M 125.09375 234.152344 L 107.796875 234.152344 L 107.796875 173.9375 L 125.09375 173.9375 L 125.09375 234.152344 "/>
<path style=" stroke:none;fill-rule:nonzero;fill:rgb(28.239441%,60.389709%,85.488892%);fill-opacity:1;" d="M 168.488281 234.152344 L 151.191406 234.152344 L 151.191406 173.9375 L 168.488281 173.9375 L 168.488281 234.152344 "/>
<path style=" stroke:none;fill-rule:nonzero;fill:rgb(28.239441%,60.389709%,85.488892%);fill-opacity:1;" d="M 211.886719 234.152344 L 194.589844 234.152344 L 194.589844 173.9375 L 211.886719 173.9375 L 211.886719 234.152344 "/>
<path style=" stroke:none;fill-rule:nonzero;fill:rgb(34.899902%,79.219055%,96.078491%);fill-opacity:1;" d="M 114.777344 102.015625 L 114.777344 152.707031 L 132.070312 152.707031 L 132.070312 102.015625 L 114.777344 102.015625 "/>
<path style=" stroke:none;fill-rule:nonzero;fill:rgb(18.818665%,36.468506%,68.238831%);fill-opacity:1;" d="M 127.90625 141.929688 C 127.90625 144.410156 125.898438 146.421875 123.421875 146.421875 C 120.945312 146.421875 118.941406 144.410156 118.941406 141.929688 C 118.941406 139.445312 120.945312 137.433594 123.421875 137.433594 C 125.898438 137.433594 127.90625 139.445312 127.90625 141.929688 "/>
<path style=" stroke:none;fill-rule:nonzero;fill:rgb(34.899902%,79.219055%,96.078491%);fill-opacity:1;" d="M 187.609375 102.015625 L 187.609375 152.707031 L 204.910156 152.707031 L 204.910156 102.015625 L 187.609375 102.015625 "/>
<path style=" stroke:none;fill-rule:nonzero;fill:rgb(18.818665%,36.468506%,68.238831%);fill-opacity:1;" d="M 200.738281 141.929688 C 200.738281 144.410156 198.738281 146.421875 196.261719 146.421875 C 193.785156 146.421875 191.777344 144.410156 191.777344 141.929688 C 191.777344 139.445312 193.785156 137.433594 196.261719 137.433594 C 198.738281 137.433594 200.738281 139.445312 200.738281 141.929688 "/>
<path style=" stroke:none;fill-rule:nonzero;fill:rgb(97.24884%,61.178589%,20.779419%);fill-opacity:1;" d="M 78.960938 166.710938 L 78.960938 151.929688 L 73.257812 151.929688 L 73.257812 166.710938 L 78.960938 166.710938 "/>
<path style=" stroke:none;fill-rule:nonzero;fill:rgb(97.24884%,61.178589%,20.779419%);fill-opacity:1;" d="M 108.078125 166.710938 L 108.078125 151.929688 L 102.375 151.929688 L 102.375 166.710938 L 108.078125 166.710938 "/>
<path style=" stroke:none;fill-rule:nonzero;fill:rgb(98.429871%,74.899292%,21.179199%);fill-opacity:1;" d="M 108.078125 151.929688 L 73.257812 151.929688 L 79.515625 146.101562 L 102.75 146.101562 L 108.078125 151.929688 "/>
<path style=" stroke:none;fill-rule:nonzero;fill:rgb(93.728638%,19.219971%,41.958618%);fill-opacity:1;" d="M 134.316406 242.195312 L 46.605469 242.195312 L 54.429688 164.355469 L 126.492188 164.355469 L 134.316406 242.195312 "/>
<path style=" stroke:none;fill-rule:nonzero;fill:rgb(85.879517%,17.248535%,35.688782%);fill-opacity:1;" d="M 138.121094 253.320312 L 42.113281 253.320312 L 46.605469 242.195312 L 134.316406 242.195312 L 138.121094 253.320312 "/>
<path style="fill:none;stroke-width:20.780001;stroke-linecap:round;stroke-linejoin:round;stroke:rgb(100%,100%,100%);stroke-opacity:1;stroke-miterlimit:10;" d="M 505.974255 905.830382 L 3795.687317 905.830382 " transform="matrix(0.0891617,0,0,-0.0894099,-44.015868,334.380822)"/>
<path style="fill:none;stroke-width:20;stroke-linecap:round;stroke-linejoin:round;stroke:rgb(100%,100%,100%);stroke-opacity:1;stroke-miterlimit:10;" d="M 1814.867268 731.85984 L 3490.325679 731.85984 " transform="matrix(0.0891617,0,0,-0.0894099,-44.015868,334.380822)"/>
<g clip-path="url(#clip1)" clip-rule="nonzero">
<path style="fill:none;stroke-width:20;stroke-linecap:round;stroke-linejoin:round;stroke:rgb(100%,100%,100%);stroke-opacity:1;stroke-miterlimit:10;" d="M 785.575112 555.48639 L 2383.356883 555.48639 " transform="matrix(0.0891617,0,0,-0.0894099,-44.015868,334.380822)"/>
</g>
<path style=" stroke:none;fill-rule:nonzero;fill:rgb(98.429871%,74.899292%,21.179199%);fill-opacity:1;" d="M 57.003906 149.285156 C 57.003906 142.035156 53.191406 135.78125 47.675781 132.859375 C 47.679688 132.734375 47.683594 132.605469 47.683594 132.476562 C 47.683594 122.429688 40.355469 114.289062 31.324219 114.289062 C 22.285156 114.289062 14.960938 122.429688 14.960938 132.476562 C 14.960938 132.765625 14.964844 133.050781 14.976562 133.332031 C 9.914062 136.429688 6.484375 142.410156 6.484375 149.285156 C 6.484375 153.011719 7.496094 156.476562 9.222656 159.355469 C 7.351562 162.320312 6.246094 165.917969 6.246094 169.8125 C 6.246094 179.859375 13.574219 188.003906 22.609375 188.003906 C 25.945312 188.003906 29.039062 186.890625 31.628906 184.988281 C 34.214844 186.890625 37.308594 188.003906 40.640625 188.003906 C 49.679688 188.003906 57.003906 179.859375 57.003906 169.8125 C 57.003906 166.003906 55.949219 162.46875 54.148438 159.550781 C 55.949219 156.625 57.003906 153.089844 57.003906 149.285156 "/>
<path style=" stroke:none;fill-rule:nonzero;fill:rgb(100%,100%,100%);fill-opacity:1;" d="M 30.742188 175.191406 C 31.164062 190.8125 31.652344 212.078125 31.640625 227.261719 L 33.128906 227.261719 C 33.140625 210.632812 32.558594 186.722656 32.113281 170.910156 C 34.085938 170.085938 40.480469 165.800781 41.863281 144.546875 C 41.894531 144.140625 41.582031 143.785156 41.171875 143.753906 C 40.75 143.71875 40.410156 144.042969 40.382812 144.453125 C 39.164062 163.144531 34.0625 168.042969 32.066406 169.253906 C 31.816406 160.554688 31.621094 154.671875 31.617188 154.503906 C 31.601562 154.09375 31.28125 153.765625 30.847656 153.785156 C 30.433594 153.800781 30.113281 154.144531 30.128906 154.558594 C 30.132812 154.75 30.394531 162.574219 30.699219 173.566406 C 28.011719 172.386719 20.472656 168.0625 21.183594 156.78125 C 21.207031 156.371094 20.898438 156.019531 20.488281 155.988281 C 20.078125 155.96875 19.722656 156.28125 19.695312 156.691406 C 18.878906 169.707031 28.558594 174.324219 30.742188 175.191406 "/>
<path style=" stroke:none;fill-rule:nonzero;fill:rgb(34.899902%,79.219055%,96.078491%);fill-opacity:1;" d="M 53 252.347656 L 14.707031 252.347656 L 10.148438 207.449219 L 57.324219 207.449219 L 53 252.347656 "/>
<path style=" stroke:none;fill-rule:nonzero;fill:rgb(34.899902%,79.219055%,96.078491%);fill-opacity:1;" d="M 60.503906 214.792969 L 6.96875 214.792969 L 6.96875 204.804688 L 60.503906 204.804688 L 60.503906 214.792969 "/>
<path style=" stroke:none;fill-rule:nonzero;fill:rgb(97.24884%,61.178589%,20.779419%);fill-opacity:1;" d="M 290.554688 193.957031 L 290.554688 188.878906 L 292.515625 188.878906 L 292.515625 193.957031 L 290.554688 193.957031 "/>
<path style=" stroke:none;fill-rule:nonzero;fill:rgb(97.24884%,61.178589%,20.779419%);fill-opacity:1;" d="M 280.546875 193.957031 L 280.546875 188.878906 L 282.507812 188.878906 L 282.507812 193.957031 L 280.546875 193.957031 "/>
<path style=" stroke:none;fill-rule:nonzero;fill:rgb(98.429871%,74.899292%,21.179199%);fill-opacity:1;" d="M 280.546875 188.878906 L 292.515625 188.878906 L 290.363281 186.878906 L 282.378906 186.878906 L 280.546875 188.878906 "/>
<path style=" stroke:none;fill-rule:nonzero;fill:rgb(93.728638%,19.219971%,41.958618%);fill-opacity:1;" d="M 273.339844 224.085938 L 299.71875 224.085938 L 299.71875 193.644531 L 273.339844 193.644531 L 273.339844 224.085938 "/>
<path style=" stroke:none;fill-rule:nonzero;fill:rgb(85.879517%,17.649841%,37.649536%);fill-opacity:1;" d="M 271.398438 224.085938 L 274.941406 224.085938 L 274.941406 193.644531 L 271.398438 193.644531 L 271.398438 224.085938 "/>
<path style=" stroke:none;fill-rule:nonzero;fill:rgb(100%,100%,100%);fill-opacity:1;" d="M 239.460938 268.574219 C 235.570312 267.347656 236.859375 263.109375 238.257812 263.097656 C 239.289062 263.082031 240.496094 263.0625 241.976562 263.0625 C 244.164062 263.0625 245.714844 262.046875 245.574219 262.046875 L 251.410156 261.523438 C 251.566406 261.644531 251.703125 261.882812 251.78125 262.292969 L 251.777344 268.492188 L 239.460938 268.574219 "/>
<path style=" stroke:none;fill-rule:nonzero;fill:rgb(100%,100%,100%);fill-opacity:1;" d="M 267.660156 268.574219 C 271.554688 267.347656 270.261719 263.109375 268.863281 263.097656 C 267.835938 263.082031 266.621094 263.0625 265.144531 263.0625 C 262.957031 263.0625 261.410156 262.046875 261.542969 262.046875 L 255.789062 261.226562 C 255.632812 261.351562 255.308594 261.882812 255.230469 262.292969 L 255.246094 268.574219 L 267.660156 268.574219 "/>
<path style=" stroke:none;fill-rule:nonzero;fill:rgb(96.078491%,45.098877%,51.759338%);fill-opacity:1;" d="M 283.078125 183.980469 L 282.847656 183.136719 L 286.410156 182.160156 L 286.640625 183.015625 C 287.5625 183.597656 288.710938 186.019531 288.800781 187.515625 C 288.949219 189.871094 287.53125 191.933594 286.242188 191.84375 C 284.929688 191.757812 284.382812 190.136719 284.164062 188.019531 C 284.140625 187.667969 283.9375 187.414062 283.742188 187.878906 C 283.347656 188.820312 282.929688 189.195312 282.632812 189.066406 C 282.183594 188.867188 282.085938 185.824219 283.078125 183.980469 "/>
<path style=" stroke:none;fill-rule:nonzero;fill:rgb(96.078491%,45.098877%,51.759338%);fill-opacity:1;" d="M 190.65625 153.066406 L 191.640625 153.191406 L 191.117188 157.339844 L 190.113281 157.214844 C 189.105469 157.921875 186.082031 158.082031 184.476562 157.535156 C 181.945312 156.667969 180.410156 154.300781 181.0625 152.984375 C 181.722656 151.652344 183.652344 151.769531 185.957031 152.472656 C 186.335938 152.589844 186.695312 152.488281 186.285156 152.082031 C 185.472656 151.265625 185.269531 150.667969 185.53125 150.414062 C 185.921875 150.035156 189.160156 151.238281 190.65625 153.066406 "/>
<path style=" stroke:none;fill-rule:nonzero;fill:rgb(15.689087%,13.729858%,12.939453%);fill-opacity:1;" d="M 241.101562 122.714844 C 244.347656 116.574219 244.410156 113.875 243.503906 110.632812 C 242.28125 106.226562 243.78125 103.101562 244.8125 102.011719 C 245.855469 100.914062 245.199219 98.566406 245.199219 98.566406 L 261.960938 98.566406 C 261.960938 98.566406 261.308594 100.914062 262.34375 102.011719 C 263.382812 103.101562 263.722656 106.410156 262.109375 111.335938 C 260.488281 116.269531 266.355469 117.191406 268.003906 123.972656 C 269.648438 130.730469 276.894531 164.566406 252.863281 164.566406 C 229.644531 164.566406 237.046875 130.398438 241.101562 122.714844 "/>
<path style=" stroke:none;fill-rule:nonzero;fill:rgb(96.078491%,45.098877%,51.759338%);fill-opacity:1;" d="M 239.242188 188.28125 L 251.78125 188.28125 L 251.78125 262.4375 L 245.21875 262.292969 C 245.21875 262.292969 241.132812 213.804688 241.21875 209.5625 C 241.292969 205.851562 240.042969 197.179688 239.242188 188.28125 "/>
<path style=" stroke:none;fill-rule:nonzero;fill:rgb(96.078491%,45.098877%,51.759338%);fill-opacity:1;" d="M 266.839844 188.28125 C 266.394531 197.007812 265.730469 206.015625 265.808594 209.542969 C 265.902344 213.785156 261.898438 262.292969 261.898438 262.292969 L 255.230469 262.292969 L 255.230469 188.28125 L 266.839844 188.28125 "/>
<path style=" stroke:none;fill-rule:nonzero;fill:rgb(98.429871%,74.899292%,21.179199%);fill-opacity:1;" d="M 239.8125 160.695312 L 254.109375 159.949219 L 266.839844 160.695312 C 267.71875 169.203125 272.046875 215.71875 275.515625 227.910156 L 233.683594 228.898438 C 238.453125 208.859375 238.707031 172.496094 239.8125 160.695312 "/>
<path style=" stroke:none;fill-rule:nonzero;fill:rgb(100%,100%,100%);fill-opacity:1;" d="M 266.140625 147.269531 C 266.363281 150.710938 266.496094 154.871094 266.839844 160.695312 L 239.8125 160.695312 C 240.089844 155.359375 240.15625 149.714844 240.402344 146.011719 C 240.855469 139.328125 238.722656 133.902344 239.242188 128.160156 C 239.585938 124.492188 242.582031 117.746094 249.710938 116.527344 L 253.195312 116.492188 L 256.683594 116.527344 C 263.808594 117.746094 267.207031 124.558594 267.207031 128.25 C 267.207031 135.289062 265.410156 136.035156 266.140625 147.269531 "/>
<path style=" stroke:none;fill-rule:nonzero;fill:rgb(96.078491%,45.098877%,51.759338%);fill-opacity:1;" d="M 261.5625 117.300781 C 265.105469 118.261719 270.085938 120.933594 272.410156 128.445312 C 277.058594 143.453125 286.378906 182.070312 286.464844 182.410156 L 282.925781 183.421875 C 282.839844 183.078125 271.339844 149.855469 267.390625 134.660156 C 265.773438 128.417969 262.136719 126.449219 261.582031 126.320312 C 261.574219 126.320312 261.570312 126.316406 261.5625 126.316406 L 261.5625 117.300781 "/>
<path style=" stroke:none;fill-rule:nonzero;fill:rgb(100%,100%,100%);fill-opacity:1;" d="M 257.617188 116.722656 C 258.03125 116.808594 268.867188 115.910156 272.609375 128 C 273.316406 130.28125 274.570312 132.996094 275.515625 136.15625 L 267.835938 139.597656 C 267.507812 138.386719 267.382812 136.757812 267.105469 135.699219 C 265.488281 129.453125 261.878906 126.683594 261.324219 126.558594 C 259.0625 126.085938 257.585938 123.890625 258.027344 121.613281 C 258.46875 119.320312 255.316406 116.28125 257.617188 116.722656 "/>
<path style=" stroke:none;fill-rule:nonzero;fill:rgb(96.078491%,45.098877%,51.759338%);fill-opacity:1;" d="M 191.070312 153.117188 C 223.191406 157.757812 238.351562 123.464844 239.683594 121.730469 C 241.933594 118.808594 244.484375 116.8125 247.605469 116.515625 L 247.605469 127.300781 C 245.210938 128.136719 241.328125 129.957031 239.265625 134.121094 C 237.539062 137.597656 235.210938 141.324219 232.328125 144.113281 C 219.625 156.390625 207.21875 159.675781 190.59375 157.273438 L 191.070312 153.117188 "/>
<path style=" stroke:none;fill-rule:nonzero;fill:rgb(100%,100%,100%);fill-opacity:1;" d="M 230.726562 133.429688 C 235.601562 127.285156 239.164062 122.410156 239.683594 121.730469 C 242.667969 117.855469 246.179688 115.613281 250.855469 116.796875 C 253.667969 117.507812 250.886719 123.992188 249.675781 126.617188 C 249.546875 126.902344 243.316406 128.566406 240.226562 134.808594 C 239.359375 136.5625 238.339844 138.121094 237.175781 139.84375 C 236.472656 138.375 231.203125 133.964844 230.726562 133.429688 "/>
<path style=" stroke:none;fill-rule:nonzero;fill:rgb(96.078491%,45.098877%,51.759338%);fill-opacity:1;" d="M 245.386719 102.664062 C 245.386719 107.394531 249.433594 110.632812 253.585938 110.632812 C 257.570312 110.632812 261.773438 107.285156 261.773438 102.484375 L 261.773438 98.195312 C 261.773438 93.6875 258.105469 91.609375 253.578125 91.609375 C 249.050781 91.609375 245.386719 93.6875 245.386719 98.195312 L 245.386719 102.664062 "/>
<path style=" stroke:none;fill-rule:nonzero;fill:rgb(15.689087%,13.729858%,12.939453%);fill-opacity:1;" d="M 263.207031 105.902344 C 263.214844 105.53125 260.21875 103.328125 259.292969 100.417969 C 258.742188 98.691406 257.96875 98.453125 257.988281 97.695312 C 257.542969 98.257812 255.828125 98.535156 254.523438 98.152344 C 251.90625 97.390625 249.292969 101.945312 246.082031 103.277344 C 244.75 103.832031 243.210938 106.015625 243.257812 106.203125 C 243.257812 106.203125 242.164062 102.449219 243.832031 96.953125 C 244.457031 94.902344 245.386719 92.210938 248.8125 90.71875 C 256.402344 87.398438 259.449219 91.824219 259.449219 91.824219 C 261.152344 91.742188 263.164062 94.667969 263.425781 99.273438 C 263.570312 101.800781 263.207031 105.902344 263.207031 105.902344 "/>
<path style=" stroke:none;fill-rule:nonzero;fill:rgb(96.078491%,45.098877%,51.759338%);fill-opacity:1;" d="M 250.414062 116.945312 C 250.414062 116.945312 251.078125 118.621094 253.632812 118.621094 C 256.578125 118.621094 256.839844 116.945312 256.839844 116.945312 L 256.839844 106.75 L 250.414062 106.75 L 250.414062 116.945312 "/>
<path style=" stroke:none;fill-rule:nonzero;fill:rgb(93.728638%,19.219971%,41.958618%);fill-opacity:1;" d="M 237.371094 157.617188 C 251.648438 146.296875 256.792969 129.691406 258.027344 124.871094 C 258.933594 121.332031 258.976562 117.609375 258.933594 116.765625 L 260.101562 116.867188 L 260.972656 117.015625 C 260.992188 117.753906 260.898438 121.3125 259.867188 125.347656 C 258.59375 130.3125 253.292969 147.425781 238.546875 159.109375 C 238.371094 159.25 238.164062 159.316406 237.957031 159.316406 C 237.679688 159.316406 237.402344 159.1875 237.210938 158.957031 C 236.890625 158.542969 236.953125 157.941406 237.371094 157.617188 "/>
<path style=" stroke:none;fill-rule:nonzero;fill:rgb(93.728638%,19.219971%,41.958618%);fill-opacity:1;" d="M 259.140625 168.277344 C 262.855469 163.582031 254.972656 158.632812 249.640625 156.679688 C 245.726562 155.246094 235.707031 152.582031 234.5625 157.570312 C 232.738281 165.507812 233.410156 170.394531 239.855469 173.898438 C 245.566406 177.011719 249.65625 180.246094 259.140625 168.277344 "/>
<path style=" stroke:none;fill-rule:nonzero;fill:rgb(93.728638%,19.219971%,41.958618%);fill-opacity:1;" d="M 257.085938 165.507812 C 257.367188 165.507812 257.644531 165.386719 257.828125 165.148438 C 258.6875 164.070312 271.796875 146.324219 266.671875 134.230469 C 266.671875 134.230469 266.597656 135.539062 266.421875 136.035156 C 266.230469 136.589844 266.140625 138.050781 266.140625 138.050781 C 267.855469 148.007812 256.542969 163.714844 256.34375 163.96875 C 256.019531 164.375 256.089844 164.972656 256.496094 165.304688 C 256.671875 165.441406 256.878906 165.507812 257.085938 165.507812 "/>
<path style=" stroke:none;fill-rule:nonzero;fill:rgb(18.818665%,36.468506%,68.238831%);fill-opacity:1;" d="M 182.542969 159.085938 L 189.320312 159.085938 L 189.320312 147.066406 L 182.542969 147.066406 L 182.542969 159.085938 "/>
<path style=" stroke:none;fill-rule:nonzero;fill:rgb(93.728638%,19.219971%,41.958618%);fill-opacity:1;" d="M 88.054688 284.144531 C 91.992188 282.898438 90.691406 278.632812 89.277344 278.609375 C 88.234375 278.601562 87.011719 278.574219 85.523438 278.574219 C 83.320312 278.574219 81.742188 277.550781 81.882812 277.550781 L 75.699219 277.550781 C 75.554688 277.675781 75.410156 277.914062 75.335938 278.335938 L 75.3125 284.144531 L 88.054688 284.144531 "/>
<path style=" stroke:none;fill-rule:nonzero;fill:rgb(96.078491%,45.098877%,51.759338%);fill-opacity:1;" d="M 88.234375 192.171875 L 71.789062 192.171875 C 74.195312 198.984375 75.664062 269.824219 75.664062 277.550781 L 81.882812 277.550781 C 81.882812 277.550781 88.234375 200.523438 88.234375 192.171875 "/>
<path style=" stroke:none;fill-rule:nonzero;fill:rgb(93.728638%,19.219971%,41.958618%);fill-opacity:1;" d="M 73.5 284.144531 C 77.4375 282.898438 76.140625 278.632812 74.726562 278.609375 C 73.683594 278.601562 72.464844 278.574219 70.972656 278.574219 C 68.769531 278.574219 67.195312 277.550781 67.335938 277.550781 L 61.15625 277.550781 C 61.003906 277.675781 60.863281 277.914062 60.785156 278.335938 L 60.753906 284.144531 L 73.5 284.144531 "/>
<path style=" stroke:none;fill-rule:nonzero;fill:rgb(96.078491%,45.098877%,51.759338%);fill-opacity:1;" d="M 73.691406 192.171875 L 57.234375 192.171875 C 57.234375 199.152344 61.113281 269.824219 61.113281 277.550781 L 67.335938 277.550781 C 67.335938 277.550781 69.847656 201.675781 73.691406 192.171875 "/>
<path style=" stroke:none;fill-rule:nonzero;fill:rgb(18.818665%,36.468506%,68.238831%);fill-opacity:1;" d="M 87.628906 240.035156 C 89.269531 219.144531 88.234375 196.488281 88.234375 192.171875 L 71.789062 192.171875 C 72.664062 197.65625 73.167969 217.253906 72.902344 240.035156 L 87.628906 240.035156 "/>
<path style=" stroke:none;fill-rule:nonzero;fill:rgb(18.818665%,36.468506%,68.238831%);fill-opacity:1;" d="M 71.433594 240.035156 C 72.914062 219.144531 71.789062 200.601562 73.691406 192.171875 L 57.234375 192.171875 C 57.234375 195.988281 56.472656 218.46875 57.234375 239.667969 L 71.433594 240.035156 "/>
<path style=" stroke:none;fill-rule:nonzero;fill:rgb(98.429871%,74.899292%,21.179199%);fill-opacity:1;" d="M 88.96875 193.273438 C 87.417969 171.285156 87.542969 151.929688 82.03125 138.054688 C 80.953125 135.351562 79.589844 133 77.039062 132.222656 C 74.800781 131.542969 73.898438 131.648438 71.042969 130.335938 C 71.042969 130.335938 67.398438 129.726562 63.296875 135.46875 C 57.695312 143.304688 55.722656 163.625 56.195312 193.273438 L 88.96875 193.273438 "/>
<path style=" stroke:none;fill-rule:nonzero;fill:rgb(18.818665%,36.468506%,68.238831%);fill-opacity:1;" d="M 112.273438 160.953125 L 113.882812 161.460938 L 117.796875 148.976562 L 116.1875 148.46875 L 112.273438 160.953125 "/>
<path style=" stroke:none;fill-rule:nonzero;fill:rgb(96.078491%,45.098877%,51.759338%);fill-opacity:1;" d="M 66.152344 138.351562 C 67.984375 137.1875 70.414062 137.738281 71.574219 139.578125 L 88.894531 168.585938 L 107.550781 161.148438 C 108.734375 160.738281 110.066406 161.269531 110.632812 162.433594 C 111.242188 163.6875 110.335938 163.722656 109.082031 164.332031 L 88.964844 175.859375 C 87.3125 176.664062 85.261719 176.117188 84.257812 174.519531 L 84.132812 174.320312 L 64.917969 143.792969 C 63.761719 141.949219 64.308594 139.515625 66.152344 138.351562 "/>
<path style=" stroke:none;fill-rule:nonzero;fill:rgb(98.429871%,74.899292%,21.179199%);fill-opacity:1;" d="M 68.472656 152.492188 L 64.378906 143.933594 C 63.125 141.765625 63.867188 138.988281 66.03125 137.734375 C 68.195312 136.476562 70.96875 137.21875 72.21875 139.390625 L 77.78125 147.570312 L 68.472656 152.492188 "/>
<path style=" stroke:none;fill-rule:nonzero;fill:rgb(96.078491%,45.098877%,51.759338%);fill-opacity:1;" d="M 70.5625 122.652344 L 70.5625 131.195312 C 70.5625 132.847656 73.765625 134.1875 75.410156 134.1875 C 76.535156 134.1875 77.175781 133.605469 77.175781 131.195312 L 77.175781 122.652344 L 70.5625 122.652344 "/>
<path style=" stroke:none;fill-rule:nonzero;fill:rgb(96.078491%,45.098877%,51.759338%);fill-opacity:1;" d="M 83.511719 118.480469 C 82.992188 117.371094 82.769531 116.136719 82.703125 115.019531 C 82.710938 114.953125 82.714844 114.90625 82.714844 114.90625 C 82.910156 113.453125 84.089844 111.273438 83.726562 110.207031 C 82.804688 107.441406 78.914062 105.820312 75.121094 105.304688 C 70.300781 104.65625 66.59375 107.652344 65.667969 114.558594 C 65.183594 118.128906 67.324219 122.050781 69.832031 122.859375 C 71.734375 123.46875 75.390625 124.789062 75.738281 124.921875 C 78.054688 125.746094 79.222656 125.898438 80.226562 124.261719 C 81.019531 122.964844 81.097656 122.84375 81.863281 121.253906 C 82.257812 120.445312 82.546875 119.742188 83.0625 119.816406 C 84.3125 119.984375 83.652344 118.753906 83.511719 118.480469 "/>
<path style=" stroke:none;fill-rule:nonzero;fill:rgb(15.689087%,13.729858%,12.939453%);fill-opacity:1;" d="M 79.988281 104.675781 C 77.800781 103.777344 72.8125 102.292969 68.71875 105.628906 C 62.519531 110.671875 64.246094 118.796875 65.660156 121.027344 C 66.929688 123.03125 70.042969 123.265625 70.082031 122.941406 C 70.179688 122.222656 70.21875 121.925781 70.371094 120.789062 C 70.4375 120.296875 70.636719 120.523438 69.8125 119.296875 C 68.292969 117.070312 69.578125 115.851562 70.058594 115.917969 C 70.953125 116.042969 70.851562 117.75 72.984375 114.460938 C 74.355469 112.339844 75.355469 111.773438 78.65625 112.167969 C 80.734375 112.417969 82.417969 111.527344 83.605469 111.199219 C 88.914062 109.742188 83.816406 106.269531 79.988281 104.675781 "/>
<path style=" stroke:none;fill-rule:nonzero;fill:rgb(96.078491%,45.098877%,51.759338%);fill-opacity:1;" d="M 107.703125 160.902344 L 106.945312 161.324219 L 108.726562 164.53125 L 109.496094 164.101562 C 110.546875 164.351562 113.054688 163.492188 114.179688 162.515625 C 115.941406 160.976562 116.417969 158.542969 115.460938 157.6875 C 114.488281 156.8125 112.960938 157.550781 111.3125 158.867188 C 111.050781 159.09375 110.726562 159.125 110.921875 158.660156 C 111.3125 157.730469 111.289062 157.175781 110.988281 157.046875 C 110.539062 156.867188 108.316406 158.914062 107.703125 160.902344 "/>
<g clip-path="url(#clip2)" clip-rule="nonzero">
<path style=" stroke:none;fill-rule:nonzero;fill:rgb(100%,100%,100%);fill-opacity:1;" d="M 103.550781 40.488281 C 103.535156 34.671875 99.613281 29.785156 94.277344 28.320312 C 94.285156 28.167969 94.292969 28.015625 94.292969 27.863281 C 94.292969 20.875 88.640625 15.214844 81.675781 15.214844 C 77.382812 15.214844 73.601562 17.359375 71.320312 20.636719 C 69.125 18.464844 66.113281 17.121094 62.785156 17.121094 C 56.386719 17.121094 51.144531 22.085938 50.667969 28.382812 C 50.507812 28.375 50.335938 28.371094 50.167969 28.371094 C 43.378906 28.371094 37.859375 33.75 37.578125 40.488281 L 103.550781 40.488281 "/>
</g>
<path style=" stroke:none;fill-rule:nonzero;fill:rgb(100%,100%,100%);fill-opacity:1;" d="M 263.714844 53.125 C 263.695312 47.308594 259.773438 42.421875 254.441406 40.953125 C 254.445312 40.804688 254.453125 40.65625 254.453125 40.5 C 254.453125 33.511719 248.804688 27.851562 241.835938 27.851562 C 237.546875 27.851562 233.761719 29.996094 231.484375 33.269531 C 229.285156 31.101562 226.273438 29.757812 222.945312 29.757812 C 216.546875 29.757812 211.308594 34.722656 210.828125 41.019531 C 210.667969 41.015625 210.5 41.007812 210.332031 41.007812 C 203.542969 41.007812 198.023438 46.386719 197.742188 53.125 L 263.714844 53.125 "/>
</g>
</svg>
