<?xml version="1.0" encoding="UTF-8"?>
<svg xmlns="http://www.w3.org/2000/svg" xmlns:xlink="http://www.w3.org/1999/xlink" width="224.87999pt" height="225pt" viewBox="0 0 224.87999 225" version="1.2">
<defs>
<clipPath id="clip1">
  <path d="M 118 190 L 216 190 L 216 216.792969 L 118 216.792969 Z M 118 190 "/>
</clipPath>
<clipPath id="clip2">
  <path d="M 8.734375 104 L 39 104 L 39 129 L 8.734375 129 Z M 8.734375 104 "/>
</clipPath>
<clipPath id="clip3">
  <path d="M 138 8.40625 L 167 8.40625 L 167 43 L 138 43 Z M 138 8.40625 "/>
</clipPath>
</defs>
<g id="surface1">
<g clip-path="url(#clip1)" clip-rule="nonzero">
<path style=" stroke:none;fill-rule:evenodd;fill:rgb(43.528748%,60.778809%,85.488892%);fill-opacity:1;" d="M 167.320312 190.171875 C 140.457031 190.171875 118.644531 196.136719 118.644531 203.484375 C 118.644531 210.835938 140.457031 216.800781 167.320312 216.800781 C 194.1875 216.800781 215.996094 210.835938 215.996094 203.484375 C 215.996094 196.136719 194.1875 190.171875 167.320312 190.171875 "/>
</g>
<path style=" stroke:none;fill-rule:evenodd;fill:rgb(100%,100%,100%);fill-opacity:1;" d="M 190.140625 211.109375 C 190.140625 211.109375 168.996094 216.332031 151.976562 211.617188 C 151.847656 211.578125 151.769531 211.445312 151.804688 211.316406 C 151.84375 211.183594 151.976562 211.109375 152.105469 211.144531 C 169.015625 215.832031 190.023438 210.636719 190.023438 210.636719 C 190.15625 210.605469 190.285156 210.683594 190.316406 210.8125 C 190.347656 210.945312 190.269531 211.078125 190.140625 211.109375 "/>
<path style=" stroke:none;fill-rule:evenodd;fill:rgb(0%,0%,0%);fill-opacity:1;" d="M 84.550781 131.296875 L 144.230469 131.296875 L 144.230469 189.816406 L 84.550781 189.816406 L 84.550781 131.296875 "/>
<path style=" stroke:none;fill-rule:evenodd;fill:rgb(100%,100%,100%);fill-opacity:1;" d="M 95.550781 145.503906 L 133.226562 145.503906 L 133.226562 153.675781 L 95.550781 153.675781 L 95.550781 145.503906 "/>
<path style=" stroke:none;fill-rule:evenodd;fill:rgb(100%,100%,100%);fill-opacity:1;" d="M 95.550781 168.527344 L 133.226562 168.527344 L 133.226562 176.699219 L 95.550781 176.699219 L 95.550781 168.527344 "/>
<path style=" stroke:none;fill-rule:evenodd;fill:rgb(0%,0%,0%);fill-opacity:1;" d="M 129.167969 150.078125 L 99.613281 150.078125 C 99.476562 150.078125 99.371094 149.96875 99.371094 149.832031 C 99.371094 149.699219 99.476562 149.589844 99.613281 149.589844 L 129.167969 149.589844 C 129.304688 149.589844 129.410156 149.699219 129.410156 149.832031 C 129.410156 149.96875 129.304688 150.078125 129.167969 150.078125 "/>
<path style=" stroke:none;fill-rule:evenodd;fill:rgb(0%,0%,0%);fill-opacity:1;" d="M 129.167969 173.101562 L 99.613281 173.101562 C 99.476562 173.101562 99.371094 172.988281 99.371094 172.855469 C 99.371094 172.722656 99.476562 172.613281 99.613281 172.613281 L 129.167969 172.613281 C 129.304688 172.613281 129.410156 172.722656 129.410156 172.855469 C 129.410156 172.988281 129.304688 173.101562 129.167969 173.101562 "/>
<path style=" stroke:none;fill-rule:evenodd;fill:rgb(0%,0%,0%);fill-opacity:1;" d="M 73.902344 121.285156 C 73.902344 121.285156 61.070312 119.414062 59.121094 149.152344 C 59.113281 149.234375 59.042969 149.296875 58.960938 149.292969 C 58.878906 149.285156 58.816406 149.214844 58.820312 149.132812 C 60.796875 119.011719 73.945312 120.988281 73.945312 120.988281 C 74.027344 121 74.082031 121.078125 74.070312 121.160156 C 74.058594 121.242188 73.984375 121.296875 73.902344 121.285156 "/>
<path style=" stroke:none;fill-rule:evenodd;fill:rgb(0%,0%,0%);fill-opacity:1;" d="M 28.886719 117.453125 C 28.886719 117.453125 47.796875 123.335938 48.285156 151.554688 C 48.289062 151.636719 48.222656 151.707031 48.140625 151.710938 C 48.054688 151.710938 47.988281 151.644531 47.984375 151.5625 C 47.5 123.59375 28.796875 117.742188 28.796875 117.742188 C 28.71875 117.714844 28.675781 117.628906 28.699219 117.550781 C 28.726562 117.472656 28.808594 117.429688 28.886719 117.453125 "/>
<path style=" stroke:none;fill-rule:evenodd;fill:rgb(0%,0%,0%);fill-opacity:1;" d="M 41.761719 99.292969 C 41.761719 99.292969 60.28125 122.023438 53.339844 153.496094 C 53.320312 153.578125 53.238281 153.628906 53.160156 153.609375 C 53.078125 153.59375 53.027344 153.511719 53.046875 153.429688 C 59.957031 122.109375 41.527344 99.480469 41.527344 99.480469 C 41.476562 99.417969 41.484375 99.324219 41.546875 99.269531 C 41.613281 99.21875 41.707031 99.226562 41.761719 99.292969 "/>
<g clip-path="url(#clip2)" clip-rule="nonzero">
<path style=" stroke:none;fill-rule:evenodd;fill:rgb(93.728638%,18.818665%,41.569519%);fill-opacity:1;" d="M 32.601562 119.285156 C 36.371094 121.804688 32.867188 126.972656 29.367188 127.847656 C 21.351562 129.851562 15.355469 120.214844 11.878906 115.003906 C 11.242188 114.050781 8.695312 111.113281 8.964844 110.578125 C 9.292969 109.917969 12.765625 107.796875 13.613281 107.371094 C 15.296875 106.53125 16.65625 105.660156 18.570312 105.183594 C 23.28125 104.003906 27.679688 105.148438 32.0625 107.339844 C 34.898438 108.757812 38.316406 111.28125 38 115.21875 C 37.671875 119.347656 32.601562 119.285156 32.601562 119.285156 "/>
</g>
<path style=" stroke:none;fill-rule:evenodd;fill:rgb(93.728638%,18.818665%,41.569519%);fill-opacity:1;" d="M 43.5625 102.097656 C 43.5625 102.097656 43.941406 105.40625 41.804688 105.90625 C 40.441406 106.226562 38.894531 106.054688 37.679688 105.648438 C 31.402344 103.554688 31.101562 94.714844 32.871094 89.410156 C 33.414062 87.773438 33.589844 84.996094 34.671875 83.910156 C 34.941406 83.644531 35.925781 84.429688 36.136719 84.511719 C 37.628906 85.109375 39.128906 85.925781 40.601562 86.664062 C 44.796875 88.757812 50.308594 91.230469 52.289062 95.855469 C 53.601562 98.90625 53.1875 103.105469 49.539062 104.015625 C 48.371094 104.308594 46.71875 104.128906 45.671875 103.5 C 45.011719 103.105469 44.300781 102.570312 43.5625 102.097656 "/>
<path style=" stroke:none;fill-rule:evenodd;fill:rgb(93.728638%,18.818665%,41.569519%);fill-opacity:1;" d="M 71.835938 121.125 C 71.835938 121.125 68.53125 120.730469 68.535156 118.535156 C 68.535156 117.132812 69.066406 115.667969 69.738281 114.582031 C 73.222656 108.957031 81.898438 110.707031 86.648438 113.652344 C 88.117188 114.5625 90.78125 115.371094 91.585938 116.675781 C 91.785156 117 90.792969 117.773438 90.660156 117.957031 C 89.734375 119.273438 88.597656 120.542969 87.539062 121.8125 C 84.53125 125.40625 80.851562 130.195312 75.894531 131.054688 C 72.621094 131.625 68.632812 130.253906 68.585938 126.496094 C 68.574219 125.289062 69.128906 123.726562 69.980469 122.851562 C 70.519531 122.300781 71.203125 121.730469 71.835938 121.125 "/>
<path style=" stroke:none;fill-rule:evenodd;fill:rgb(43.528748%,60.778809%,85.488892%);fill-opacity:1;" d="M 41.324219 144.460938 L 66.382812 144.460938 L 66.382812 180.59375 L 41.324219 180.59375 L 41.324219 144.460938 "/>
<path style=" stroke:none;fill-rule:evenodd;fill:rgb(43.528748%,60.778809%,85.488892%);fill-opacity:1;" d="M 40.207031 144.460938 L 67.5 144.460938 L 67.5 148.890625 L 40.207031 148.890625 L 40.207031 144.460938 "/>
<path style=" stroke:none;fill-rule:evenodd;fill:rgb(100%,100%,100%);fill-opacity:1;" d="M 63.992188 148.894531 L 44.589844 149.066406 C 44.507812 149.066406 44.441406 149 44.4375 148.917969 C 44.4375 148.835938 44.503906 148.765625 44.585938 148.765625 L 63.992188 148.597656 C 64.074219 148.59375 64.144531 148.660156 64.144531 148.742188 C 64.144531 148.828125 64.074219 148.894531 63.992188 148.894531 "/>
<path style=" stroke:none;fill-rule:evenodd;fill:rgb(100%,100%,100%);fill-opacity:1;" d="M 64.003906 178.3125 L 44.226562 177.953125 C 44.144531 177.949219 44.078125 177.882812 44.078125 177.800781 C 44.082031 177.714844 44.152344 177.648438 44.234375 177.652344 L 64.007812 178.011719 C 64.089844 178.015625 64.160156 178.085938 64.15625 178.167969 C 64.15625 178.25 64.085938 178.316406 64.003906 178.3125 "/>
<path style=" stroke:none;fill-rule:evenodd;fill:rgb(100%,100%,100%);fill-opacity:1;" d="M 30.730469 109.976562 C 29.242188 109.976562 28.03125 111.1875 28.03125 112.675781 C 28.03125 114.164062 29.242188 115.375 30.730469 115.375 C 32.222656 115.375 33.429688 114.164062 33.429688 112.675781 C 33.429688 111.1875 32.222656 109.976562 30.730469 109.976562 "/>
<path style=" stroke:none;fill-rule:evenodd;fill:rgb(100%,100%,100%);fill-opacity:1;" d="M 25.03125 120.078125 C 23.898438 120.078125 22.976562 120.996094 22.976562 122.128906 C 22.976562 123.257812 23.898438 124.179688 25.03125 124.179688 C 26.160156 124.179688 27.078125 123.257812 27.078125 122.128906 C 27.078125 120.996094 26.160156 120.078125 25.03125 120.078125 "/>
<path style=" stroke:none;fill-rule:evenodd;fill:rgb(100%,100%,100%);fill-opacity:1;" d="M 46.96875 95.1875 C 45.835938 95.1875 44.917969 96.105469 44.917969 97.238281 C 44.917969 98.371094 45.835938 99.289062 46.96875 99.289062 C 48.101562 99.289062 49.019531 98.371094 49.019531 97.238281 C 49.019531 96.105469 48.101562 95.1875 46.96875 95.1875 "/>
<path style=" stroke:none;fill-rule:evenodd;fill:rgb(100%,100%,100%);fill-opacity:1;" d="M 74.742188 124.257812 C 73.613281 124.257812 72.691406 125.175781 72.691406 126.304688 C 72.691406 127.4375 73.613281 128.355469 74.742188 128.355469 C 75.875 128.355469 76.792969 127.4375 76.792969 126.304688 C 76.792969 125.175781 75.875 124.257812 74.742188 124.257812 "/>
<path style=" stroke:none;fill-rule:evenodd;fill:rgb(100%,100%,100%);fill-opacity:1;" d="M 17.054688 110.660156 C 16.207031 110.660156 15.515625 111.347656 15.515625 112.199219 C 15.515625 113.046875 16.207031 113.734375 17.054688 113.734375 C 17.902344 113.734375 18.589844 113.046875 18.589844 112.199219 C 18.589844 111.347656 17.902344 110.660156 17.054688 110.660156 "/>
<path style=" stroke:none;fill-rule:evenodd;fill:rgb(100%,100%,100%);fill-opacity:1;" d="M 78.359375 114.855469 C 77.511719 114.855469 76.820312 115.542969 76.820312 116.390625 C 76.820312 117.242188 77.511719 117.929688 78.359375 117.929688 C 79.207031 117.929688 79.898438 117.242188 79.898438 116.390625 C 79.898438 115.542969 79.207031 114.855469 78.359375 114.855469 "/>
<path style=" stroke:none;fill-rule:evenodd;fill:rgb(100%,100%,100%);fill-opacity:1;" d="M 36.933594 93.792969 C 36.085938 93.792969 35.398438 94.480469 35.398438 95.332031 C 35.398438 96.179688 36.085938 96.867188 36.933594 96.867188 C 37.785156 96.867188 38.472656 96.179688 38.472656 95.332031 C 38.472656 94.480469 37.785156 93.792969 36.933594 93.792969 "/>
<path style=" stroke:none;fill-rule:evenodd;fill:rgb(99.21875%,78.819275%,67.83905%);fill-opacity:1;" d="M 183.015625 170.664062 C 183.015625 170.664062 181.8125 172.636719 181.703125 172.882812 C 181.363281 173.632812 182.496094 174.652344 182.777344 174.78125 C 183.664062 175.195312 184.777344 176.882812 185.667969 177.785156 C 186.410156 178.535156 189.175781 181.09375 189.378906 182.03125 C 189.746094 183.769531 188.214844 186.617188 190.789062 187.808594 C 192.882812 188.78125 194.191406 187.273438 195.90625 186.304688 C 198.675781 184.730469 201.75 182.882812 204.417969 181.128906 C 205.359375 180.507812 207.996094 178.621094 208.019531 178.257812 C 208.050781 177.722656 207.789062 177.21875 207.0625 177.277344 C 203.820312 177.554688 199.953125 178.835938 197.082031 178.511719 C 196.28125 178.421875 195.394531 177.707031 194.839844 177.140625 C 192.765625 175.027344 190.929688 171.488281 189.242188 169.371094 C 188.929688 168.980469 187.515625 167.894531 186.96875 167.832031 C 185.945312 167.71875 183.832031 170.011719 183.015625 170.664062 "/>
<path style=" stroke:none;fill-rule:evenodd;fill:rgb(99.21875%,78.819275%,67.83905%);fill-opacity:1;" d="M 148.996094 178.238281 C 148.996094 178.238281 146.929688 179.277344 146.707031 179.421875 C 146.015625 179.878906 146.101562 181.175781 146.269531 181.441406 C 146.804688 182.257812 147.777344 185.488281 148.054688 186.722656 C 148.285156 187.753906 148.671875 190.347656 148.339844 191.25 C 147.730469 192.917969 144.917969 194.515625 146.464844 196.894531 C 147.722656 198.828125 149.632812 198.25 151.601562 198.335938 C 154.789062 198.476562 158.371094 198.542969 161.5625 198.476562 C 162.691406 198.453125 165.925781 198.253906 166.140625 197.960938 C 166.449219 197.523438 166.496094 196.957031 165.851562 196.625 C 162.957031 195.132812 159 194.160156 156.742188 192.363281 C 156.109375 191.863281 155.738281 190.785156 155.570312 190.011719 C 154.933594 187.117188 155.382812 183.09375 155.082031 180.402344 C 155.023438 179.90625 154.28125 178.289062 153.851562 177.945312 C 153.042969 177.304688 150.035156 178.121094 148.996094 178.238281 "/>
<path style=" stroke:none;fill-rule:evenodd;fill:rgb(93.728638%,18.818665%,41.569519%);fill-opacity:1;" d="M 144.132812 108.324219 C 122.71875 106.214844 101.789062 114.664062 101.171875 116.144531 C 99.773438 119.480469 105.121094 128.171875 110.722656 131.429688 C 115.679688 134.3125 128.066406 135.277344 134.722656 133.519531 C 141.042969 131.847656 149.234375 130.746094 154.519531 136.371094 C 158.761719 140.882812 162.113281 147.234375 165.226562 151.914062 C 169.753906 158.726562 184.84375 179.511719 185.191406 179.160156 C 187.574219 176.78125 192.367188 173.375 192.972656 172.453125 C 193.5625 171.5625 184.871094 155.261719 182.105469 150.019531 C 177.253906 140.820312 173.3125 130.144531 167.234375 120.511719 C 166.402344 119.191406 164.566406 117.515625 163.382812 116.570312 C 160 113.863281 148.511719 108.757812 144.132812 108.324219 "/>
<path style=" stroke:none;fill-rule:evenodd;fill:rgb(93.728638%,18.818665%,41.569519%);fill-opacity:1;" d="M 131.808594 125.5625 L 144.964844 182.699219 L 156.722656 181.632812 L 149.226562 128.042969 L 134.289062 119.828125 L 131.808594 125.5625 "/>
<path style=" stroke:none;fill-rule:evenodd;fill:rgb(0%,0%,0%);fill-opacity:1;" d="M 123.949219 59.386719 L 97.929688 57.898438 L 99.425781 38.996094 L 118.25 43.917969 L 123.949219 59.386719 "/>
<path style=" stroke:none;fill-rule:evenodd;fill:rgb(99.21875%,78.819275%,67.83905%);fill-opacity:1;" d="M 108.554688 51.0625 L 116.570312 50.742188 L 118.175781 71.65625 L 106.285156 72.210938 L 108.554688 51.0625 "/>
<path style=" stroke:none;fill-rule:evenodd;fill:rgb(43.528748%,60.778809%,85.488892%);fill-opacity:1;" d="M 104.359375 61.792969 C 104.359375 61.792969 108.035156 63.007812 108.671875 63.179688 C 111.476562 63.933594 114.570312 63.101562 116.128906 62.324219 C 117.5 61.636719 118.148438 60.566406 119.3125 60.765625 C 121.101562 61.070312 126.566406 63.933594 126.878906 64.164062 C 134.230469 69.617188 139.691406 95.835938 140.660156 105.898438 C 142.140625 121.273438 127.214844 116.195312 123.761719 117.320312 C 115.070312 120.148438 104.132812 121.746094 101.03125 118.96875 C 98.355469 116.566406 98.089844 105.570312 97.339844 103.214844 C 96.035156 99.113281 93.542969 88.855469 93.238281 86.558594 C 92.082031 77.773438 96.949219 61.871094 104.359375 61.792969 "/>
<path style=" stroke:none;fill-rule:evenodd;fill:rgb(99.21875%,78.819275%,67.83905%);fill-opacity:1;" d="M 122.148438 74.09375 C 122.363281 77.96875 129.101562 95.070312 136.167969 101.929688 C 140.628906 106.261719 141.074219 108.0625 142.152344 108.894531 C 147.132812 112.738281 151.261719 111.238281 150.03125 108.347656 C 146.425781 99.871094 138.511719 89.664062 136.632812 82.160156 C 136.089844 79.992188 130.078125 64.804688 126.765625 65.234375 C 121.671875 65.894531 121.984375 71.128906 122.148438 74.09375 "/>
<path style=" stroke:none;fill-rule:evenodd;fill:rgb(43.528748%,60.778809%,85.488892%);fill-opacity:1;" d="M 137.523438 82.289062 L 124.320312 85.21875 L 120.402344 66.992188 L 125.792969 63.589844 C 125.792969 63.589844 129.667969 66.042969 131.054688 67.816406 C 133.554688 71.023438 137.523438 82.289062 137.523438 82.289062 "/>
<path style=" stroke:none;fill-rule:evenodd;fill:rgb(0%,0%,0%);fill-opacity:1;" d="M 135.972656 124.375 L 119.734375 116.675781 L 136.101562 112.304688 L 135.972656 124.375 "/>
<path style=" stroke:none;fill-rule:evenodd;fill:rgb(99.21875%,78.819275%,67.83905%);fill-opacity:1;" d="M 108.8125 85.742188 C 108.84375 85.714844 108.921875 90.808594 109.152344 93.03125 C 109.617188 97.445312 110.195312 102.683594 114.03125 105.242188 C 117.144531 107.320312 126.914062 111.320312 130.378906 112.628906 C 134.578125 114.214844 138.140625 109.875 138.25 110.183594 C 138.863281 111.921875 139.675781 117.671875 139.394531 117.730469 C 138.859375 117.839844 130.722656 117.917969 127.535156 117.507812 C 118.648438 116.363281 107.804688 116.125 102.40625 107.125 C 100.433594 103.835938 98.894531 99.964844 98.152344 96.253906 C 97.90625 95.015625 96.425781 87.695312 96.425781 87.695312 L 108.8125 85.742188 "/>
<path style=" stroke:none;fill-rule:evenodd;fill:rgb(0%,0%,0%);fill-opacity:1;" d="M 162.367188 94.984375 C 162.878906 94.90625 163.398438 95.054688 163.796875 95.386719 C 164.195312 95.722656 164.4375 96.210938 164.460938 96.730469 C 164.714844 102.523438 165.429688 118.632812 165.429688 118.632812 L 135.964844 124.390625 C 135.964844 124.390625 133.710938 106.867188 132.972656 101.148438 C 132.847656 100.15625 133.523438 99.253906 134.5 99.105469 C 139.953125 98.300781 156.59375 95.835938 162.367188 94.984375 "/>
<path style=" stroke:none;fill-rule:evenodd;fill:rgb(100%,100%,100%);fill-opacity:1;" d="M 150.828125 106.425781 C 149.3125 106.851562 148.429688 108.425781 148.851562 109.941406 C 149.277344 111.457031 150.851562 112.339844 152.367188 111.917969 C 153.882812 111.492188 154.769531 109.917969 154.34375 108.402344 C 153.917969 106.886719 152.34375 106.003906 150.828125 106.425781 "/>
<path style=" stroke:none;fill-rule:evenodd;fill:rgb(99.21875%,78.819275%,67.83905%);fill-opacity:1;" d="M 105.910156 32.5625 C 106.027344 32.929688 103.609375 35.28125 103.144531 36.085938 C 102.53125 37.15625 103.011719 38.863281 102.375 39.972656 C 101.636719 41.257812 101.574219 48.292969 102.394531 50.164062 C 104.089844 54.039062 106.519531 56.339844 108.894531 57.589844 C 113.628906 60.085938 114.675781 56.628906 116.417969 55.835938 C 120.390625 54.027344 121.113281 43.601562 121.113281 41.023438 C 121.113281 38.179688 105.910156 32.5625 105.910156 32.5625 "/>
<path style=" stroke:none;fill-rule:evenodd;fill:rgb(0%,0%,0%);fill-opacity:1;" d="M 120.601562 36.578125 C 122.285156 38.777344 121.914062 42.75 121.492188 44.511719 C 121.160156 45.890625 118.949219 42.847656 116.476562 41.59375 C 113.609375 40.132812 110.9375 40.871094 109.882812 41.554688 C 108.101562 42.710938 106.511719 44.160156 105.902344 49.382812 C 105.804688 50.199219 105.824219 51.859375 105.621094 53.132812 C 105.425781 54.3125 105.125 55.183594 104.804688 55.445312 C 103.675781 56.363281 101.328125 50.792969 100.667969 49.472656 C 99.160156 46.457031 98.214844 40.675781 99.757812 36.042969 C 100.527344 33.742188 104.535156 30.363281 110.054688 30.5625 C 113.28125 30.679688 117.949219 33.113281 120.601562 36.578125 "/>
<path style=" stroke:none;fill-rule:evenodd;fill:rgb(0%,0%,0%);fill-opacity:1;" d="M 104.941406 28.144531 C 102.753906 28.144531 100.976562 29.921875 100.976562 32.109375 C 100.976562 34.296875 102.753906 36.074219 104.941406 36.074219 C 107.128906 36.074219 108.90625 34.296875 108.90625 32.109375 C 108.90625 29.921875 107.128906 28.144531 104.941406 28.144531 "/>
<path style=" stroke:none;fill-rule:evenodd;fill:rgb(100%,100%,100%);fill-opacity:1;" d="M 154.984375 179.378906 L 146.367188 180.5 C 146.296875 180.507812 146.234375 180.460938 146.226562 180.390625 C 146.21875 180.320312 146.265625 180.257812 146.335938 180.25 L 154.953125 179.128906 C 155.023438 179.121094 155.085938 179.167969 155.09375 179.238281 C 155.101562 179.304688 155.054688 179.371094 154.984375 179.378906 "/>
<path style=" stroke:none;fill-rule:evenodd;fill:rgb(100%,100%,100%);fill-opacity:1;" d="M 190.75 171.292969 L 185.265625 175.992188 C 185.214844 176.039062 185.136719 176.03125 185.089844 175.976562 C 185.046875 175.925781 185.050781 175.84375 185.105469 175.800781 L 190.585938 171.101562 C 190.640625 171.058594 190.71875 171.0625 190.765625 171.117188 C 190.808594 171.167969 190.804688 171.246094 190.75 171.292969 "/>
<path style=" stroke:none;fill-rule:evenodd;fill:rgb(100%,100%,100%);fill-opacity:1;" d="M 147.636719 133.855469 C 147.636719 133.855469 142.691406 132.917969 136.554688 134.082031 C 136.488281 134.09375 136.421875 134.050781 136.40625 133.980469 C 136.394531 133.914062 136.441406 133.847656 136.507812 133.835938 C 142.695312 132.664062 147.683594 133.609375 147.683594 133.609375 C 147.75 133.621094 147.796875 133.6875 147.78125 133.753906 C 147.769531 133.820312 147.703125 133.867188 147.636719 133.855469 "/>
<path style=" stroke:none;fill-rule:evenodd;fill:rgb(100%,100%,100%);fill-opacity:1;" d="M 158.195312 127.214844 L 185.503906 170.21875 C 185.542969 170.273438 185.621094 170.292969 185.679688 170.253906 C 185.738281 170.21875 185.753906 170.140625 185.71875 170.082031 L 158.371094 127.027344 C 158.347656 126.992188 158.3125 126.972656 158.273438 126.96875 L 117.363281 124.558594 C 117.292969 124.554688 117.234375 124.609375 117.230469 124.675781 C 117.226562 124.75 117.28125 124.808594 117.347656 124.8125 L 158.195312 127.214844 "/>
<path style=" stroke:none;fill-rule:evenodd;fill:rgb(100%,100%,100%);fill-opacity:1;" d="M 107.226562 83.746094 L 98.617188 85.09375 C 98.550781 85.105469 98.484375 85.058594 98.472656 84.988281 C 98.464844 84.921875 98.511719 84.855469 98.578125 84.84375 L 107.1875 83.496094 C 107.253906 83.484375 107.320312 83.535156 107.332031 83.601562 C 107.34375 83.667969 107.296875 83.734375 107.226562 83.746094 "/>
<path style=" stroke:none;fill-rule:evenodd;fill:rgb(100%,100%,100%);fill-opacity:1;" d="M 134.792969 80.746094 L 126.441406 83 C 126.371094 83.019531 126.304688 82.980469 126.285156 82.914062 C 126.265625 82.847656 126.304688 82.777344 126.371094 82.757812 L 134.726562 80.507812 C 134.792969 80.488281 134.863281 80.527344 134.878906 80.59375 C 134.898438 80.660156 134.859375 80.730469 134.792969 80.746094 "/>
<path style=" stroke:none;fill-rule:evenodd;fill:rgb(100%,100%,100%);fill-opacity:1;" d="M 118.410156 64.621094 C 117.097656 65.628906 114.828125 66.257812 112.523438 66.359375 C 110.214844 66.460938 107.875 66.023438 106.414062 64.921875 C 106.359375 64.878906 106.347656 64.800781 106.390625 64.746094 C 106.433594 64.691406 106.511719 64.679688 106.566406 64.722656 C 107.984375 65.792969 110.265625 66.203125 112.511719 66.105469 C 114.761719 66.011719 116.972656 65.402344 118.257812 64.421875 C 118.3125 64.382812 118.390625 64.390625 118.433594 64.445312 C 118.476562 64.5 118.464844 64.578125 118.410156 64.621094 "/>
<path style=" stroke:none;fill-rule:evenodd;fill:rgb(100%,100%,100%);fill-opacity:1;" d="M 107.871094 31.910156 C 107.871094 31.910156 106.027344 33.878906 103.488281 34.070312 C 103.417969 34.078125 103.359375 34.027344 103.351562 33.957031 C 103.347656 33.886719 103.398438 33.828125 103.46875 33.820312 C 105.914062 33.636719 107.683594 31.738281 107.683594 31.738281 C 107.730469 31.6875 107.8125 31.6875 107.863281 31.734375 C 107.914062 31.78125 107.917969 31.859375 107.871094 31.910156 "/>
<g clip-path="url(#clip3)" clip-rule="nonzero">
<path style=" stroke:none;fill-rule:evenodd;fill:rgb(0%,0%,0%);fill-opacity:1;" d="M 138.230469 8.398438 L 166.574219 8.398438 L 166.574219 42.566406 L 138.230469 42.566406 L 138.230469 8.398438 "/>
</g>
<path style=" stroke:none;fill-rule:evenodd;fill:rgb(100%,100%,100%);fill-opacity:1;" d="M 140.738281 10.828125 L 164.066406 10.828125 L 164.066406 40.136719 L 140.738281 40.136719 L 140.738281 10.828125 "/>
<path style=" stroke:none;fill-rule:evenodd;fill:rgb(93.728638%,18.818665%,41.569519%);fill-opacity:1;" d="M 153.339844 21.929688 C 154.757812 21.890625 155.652344 21.253906 156.226562 20.394531 C 157.484375 18.511719 156.921875 15.230469 156.921875 15.230469 C 156.84375 14.808594 156.402344 14.523438 155.9375 14.59375 C 155.472656 14.667969 155.160156 15.066406 155.238281 15.488281 C 155.238281 15.488281 155.777344 18.101562 154.777344 19.59375 C 154.488281 20.03125 154.027344 20.324219 153.339844 20.367188 L 153.339844 16.527344 C 153.339844 16.101562 152.957031 15.753906 152.484375 15.753906 C 152.015625 15.753906 151.632812 16.101562 151.632812 16.527344 L 151.632812 21.089844 C 151.632812 21.097656 151.632812 21.105469 151.632812 21.113281 L 151.632812 24.300781 C 151.203125 24.15625 150.867188 23.902344 150.601562 23.59375 C 149.507812 22.320312 149.488281 20.265625 149.488281 20.265625 C 149.476562 19.839844 149.089844 19.496094 148.617188 19.503906 C 148.148438 19.515625 147.773438 19.871094 147.78125 20.296875 C 147.78125 20.296875 147.867188 22.914062 149.265625 24.546875 C 149.832031 25.210938 150.601562 25.726562 151.632812 25.90625 L 151.632812 31.792969 C 151.632812 32.222656 152.015625 32.570312 152.484375 32.570312 C 152.957031 32.570312 153.339844 32.222656 153.339844 31.792969 L 153.339844 21.929688 "/>
<path style=" stroke:none;fill-rule:evenodd;fill:rgb(43.528748%,60.778809%,85.488892%);fill-opacity:1;" d="M 158.105469 24.980469 L 146.128906 24.980469 L 149.121094 35.878906 L 155.109375 35.878906 L 158.105469 24.980469 "/>
<path style=" stroke:none;fill-rule:evenodd;fill:rgb(100%,100%,100%);fill-opacity:1;" d="M 155.832031 26.589844 L 148.394531 26.558594 C 148.347656 26.558594 148.3125 26.527344 148.3125 26.484375 C 148.3125 26.441406 148.347656 26.40625 148.394531 26.40625 L 155.832031 26.433594 C 155.878906 26.433594 155.917969 26.46875 155.917969 26.511719 C 155.917969 26.554688 155.878906 26.589844 155.832031 26.589844 "/>
</g>
</svg>
